<svg id="Layer_1" data-name="Layer 1" xmlns="http://www.w3.org/2000/svg" viewBox="0 0 1293.67 1301.99"><defs><style>.cls-1,.cls-3{fill:#1c889b;}.cls-2{fill:#424245;}.cls-3{font-size:88px;font-family:FFShamelFamily-SansOneBook, FF Shamel Family;}</style></defs><rect class="cls-1" x="555.57" y="522.31" width="183.71" height="183.71" rx="2.16" transform="translate(-244.65 637.69) rotate(-45)"/><path class="cls-1" d="M567.39,909.7H551.18v5.69q0,13.14-5.26,19.64t-16.06,6.5a55.11,55.11,0,0,1-13.44-1.89l2.34-10.08a46.08,46.08,0,0,0,9.2,1.16q6.12,0,9-3.57t2.92-11.76V842.51h11.25v56.38h16.21Zm-26.58-84.27a6.61,6.61,0,0,1-2-4.82,6.39,6.39,0,0,1,2-4.75,6.73,6.73,0,0,1,4.82-2,6.73,6.73,0,0,1,6.72,6.72,6.73,6.73,0,0,1-2,4.82,6.35,6.35,0,0,1-4.75,2.05A6.57,6.57,0,0,1,540.81,825.43Z"/><path class="cls-1" d="M614.93,845.29a42,42,0,0,1,19,17.6q6.35,11.46,6.35,29.57V909.7H567.39a5.48,5.48,0,0,1-4.16-1.61,5.47,5.47,0,0,1,0-7.59,5.45,5.45,0,0,1,4.16-1.61H629v-6.43q0-16.05-6.21-25.77t-18.25-14.53q-12.06-4.83-31-6.29l-1.45-14.75a162.34,162.34,0,0,1,67.76-29.2L642,812.73a183.84,183.84,0,0,0-33.88,10.07q-15.61,6.42-25.7,13.88Q602.29,839.16,614.93,845.29Z"/><path class="cls-1" d="M702.92,909.7H686.71v5.69q0,13.14-5.26,19.64t-16.07,6.5A55.1,55.1,0,0,1,652,939.64l2.34-10.08a46,46,0,0,0,9.19,1.16q6.13,0,9.06-3.57t2.92-11.76V842.51h11.25v56.38h16.21Z"/><path class="cls-1" d="M776,837.77A35.23,35.23,0,0,1,788.64,852a44.74,44.74,0,0,1,4.53,20.3q0,11.54-4.89,20a34.1,34.1,0,0,1-13,13,35.28,35.28,0,0,1-17.45,4.52,38.11,38.11,0,0,1-16.21-3.65,41.25,41.25,0,0,1-14-10.8l-.14.28A24.05,24.05,0,0,1,717.74,906a29.16,29.16,0,0,1-14.82,3.66,6.45,6.45,0,0,1-4.53-1.61,5.29,5.29,0,0,1-1.75-4.09,4.58,4.58,0,0,1,1.68-3.72,7,7,0,0,1,4.6-1.39,18.24,18.24,0,0,0,9.56-2.48,14.54,14.54,0,0,0,6.06-6.87,33.11,33.11,0,0,0,2.34-8.25c.49-3.07.78-4.89.88-5.48A96.25,96.25,0,0,1,724,863.55q3.78-15,12.26-23t21.33-8A33.5,33.5,0,0,1,776,837.77Zm-6.35,58.13a23.28,23.28,0,0,0,8.9-9.2,29.24,29.24,0,0,0,3.36-14.39q0-12.55-6.64-20.52t-17.74-8q-8.62,0-14,5.18t-8.47,15.71a92.33,92.33,0,0,0-2.78,13.43L731,884.87a38.79,38.79,0,0,0,12.49,10.59A30.23,30.23,0,0,0,757.39,899,24.54,24.54,0,0,0,769.66,895.9Z"/><path class="cls-1" d="M30.16,1095.09c2.77,0,4.77-.75,6-2.27s1.87-4.13,1.87-7.87v-64.09H58.21V1085q0,14.28-6.41,21.63t-18.3,7.34A54.23,54.23,0,0,1,16.68,1111l3.88-17.36A43.9,43.9,0,0,0,30.16,1095.09Z"/><path class="cls-1" d="M109.08,1065.19V1085H72.36v-98H92.53v78.25Z"/><path class="cls-1" d="M101.4,1068a10.81,10.81,0,0,1,7.68-2.8h26.7V1085h-26.7a10.82,10.82,0,0,1-7.68-2.81,9.84,9.84,0,0,1,0-14.15Z"/><path class="cls-1" d="M128.1,1068a10.83,10.83,0,0,1,7.68-2.8h26.71V1085H135.78a10.83,10.83,0,0,1-7.68-2.81,9.84,9.84,0,0,1,0-14.15Z"/><path class="cls-1" d="M154.81,1068a10.81,10.81,0,0,1,7.68-2.8h26.7V1085h-26.7a10.82,10.82,0,0,1-7.68-2.81,9.84,9.84,0,0,1,0-14.15Z"/><path class="cls-1" d="M181.52,1068a10.79,10.79,0,0,1,7.67-2.8H215.9V1085H189.19a10.79,10.79,0,0,1-7.67-2.81,9.82,9.82,0,0,1,0-14.15Z"/><path class="cls-1" d="M208.22,1068a10.81,10.81,0,0,1,7.68-2.8h26.7V1085H215.9a10.82,10.82,0,0,1-7.68-2.81,9.84,9.84,0,0,1,0-14.15Z"/><path class="cls-1" d="M334.46,1065.19V1085q-19.62,0-28.16-10-10,10-31,10H242.6a9.42,9.42,0,0,1-7.34-2.94,10.37,10.37,0,0,1,0-13.89,9.41,9.41,0,0,1,7.34-2.93h32.72a46.48,46.48,0,0,0,11.34-1.07,9.46,9.46,0,0,0,5.68-3.54q1.67-2.46,1.67-7.14,0-5.88-5.28-10.29t-15-6.81a94.73,94.73,0,0,0-22.63-2.4l-4-25.1a120.12,120.12,0,0,1,28.77-16.09q15.3-5.94,37.19-9.41L316,1003.1a131.93,131.93,0,0,0-23.82,5.2,112.47,112.47,0,0,0-20.91,8.82q19.9,2.8,31.19,12.08t11.68,23.3Q316,1065.19,334.46,1065.19Z"/><path class="cls-1" d="M391.88,1065.19V1085q-21.22,0-28.71-11.75a32,32,0,0,1-12.08,8.68,42.41,42.41,0,0,1-16.63,3.07,10.59,10.59,0,0,1-7.61-2.94,9.61,9.61,0,0,1-3.07-7.21,9,9,0,0,1,2.94-7,11.11,11.11,0,0,1,7.74-2.66,17.12,17.12,0,0,0,12-4.28q4.68-4.26,4.68-12.82v-27.23h20.16v27.23q0,7.62,4.27,12.16Q380.53,1065.19,391.88,1065.19Zm-51.94-59.69a11.27,11.27,0,1,1,8,3.34A10.89,10.89,0,0,1,339.94,1005.5Zm26.57,0a11.29,11.29,0,1,1,8,3.34A10.93,10.93,0,0,1,366.51,1005.5Z"/><path class="cls-1" d="M408.57,1020.86h20.16V1085H391.88a10.58,10.58,0,0,1-7.61-2.94,9.58,9.58,0,0,1-3.07-7.21,9,9,0,0,1,2.93-7,11.14,11.14,0,0,1,7.75-2.66h16.69Zm-4.14,95.33a11.27,11.27,0,1,1,8,3.34A10.93,10.93,0,0,1,404.43,1116.19Z"/><path class="cls-1" d="M530.74,986.94v98H442.89v-19.76H472l-19.9-65.3h20.83l19.89,65.3h17.77V986.94Z"/><path class="cls-1" d="M544.9,986.94h20.16v98H544.9Z"/><path class="cls-1" d="M678.69,1012v62.62q0,21.24-10.28,32.25t-30,11a102.23,102.23,0,0,1-18.16-1.74l.14-19.49a112.14,112.14,0,0,0,15.09,1.2q12.15,0,17.75-5.54t5.61-17.83v-.4A26,26,0,0,1,637.16,1085a29.24,29.24,0,0,1-16.82-4.81,30.63,30.63,0,0,1-10.75-12.68,39.34,39.34,0,0,1-3.67-16.83,38.64,38.64,0,0,1,4.8-18.89q4.81-8.74,15.16-14.22t26.23-5.48Zm-28.18,50.61a18.58,18.58,0,0,0,6-6.88,19.61,19.61,0,0,0,2.27-9.27v-14.29h-6.94q-13.62,0-19.69,4.74t-6.08,11.81a16.81,16.81,0,0,0,2,8,15.7,15.7,0,0,0,5.81,6.14,16.6,16.6,0,0,0,8.88,2.34A13.61,13.61,0,0,0,650.51,1062.65Z"/><path class="cls-1" d="M736.24,1079.87a32.88,32.88,0,0,1-12.49-13.35,38.59,38.59,0,0,1-4.21-17.76,40.1,40.1,0,0,1,4.21-18.09,33.83,33.83,0,0,1,12.55-13.75q8.34-5.28,20-5.28t19.9,5.21a33.36,33.36,0,0,1,12.41,13.55,40.81,40.81,0,0,1,0,35.86,32.86,32.86,0,0,1-12.41,13.55q-8.28,5.14-19.9,5.14T736.24,1079.87Zm-.41-80.78a11.29,11.29,0,1,1,8,3.34A10.9,10.9,0,0,1,735.83,999.09Zm32.58,61.36a16.46,16.46,0,0,0,4.27-11.42,17.82,17.82,0,0,0-4.47-12.08c-3-3.43-7.06-5.15-12.21-5.15s-9.22,1.67-12.16,5a17.35,17.35,0,0,0-4.4,11.82,16.77,16.77,0,0,0,4.47,11.62q4.47,4.93,12.35,4.94C761.51,1065.19,765.56,1063.6,768.41,1060.45Zm-6-61.36a11.29,11.29,0,1,1,8,3.34A10.95,10.95,0,0,1,762.4,999.09Z"/><path class="cls-1" d="M806.87,1065.19h47.4v-7.61q0-9.75-3.07-15.29a17.6,17.6,0,0,0-9.61-8q-6.55-2.47-17.49-2.48h-9.75v-20.16h10q23.35,0,36.72,11.75t13.36,34.19V1085H806.87Z"/><path class="cls-1" d="M925.3,1065.19V1085H888.58v-98h20.17v78.25Z"/><path class="cls-1" d="M917.62,1068a10.83,10.83,0,0,1,7.68-2.8H952V1085H925.3a10.83,10.83,0,0,1-7.68-2.81,9.84,9.84,0,0,1,0-14.15Z"/><path class="cls-1" d="M944.33,1068a10.8,10.8,0,0,1,7.67-2.8h26.71V1085H952a10.81,10.81,0,0,1-7.67-2.81,9.82,9.82,0,0,1,0-14.15Z"/><path class="cls-1" d="M971,1068a10.79,10.79,0,0,1,7.67-2.8h26.71V1085H978.71a10.79,10.79,0,0,1-7.67-2.81,9.82,9.82,0,0,1,0-14.15Z"/><path class="cls-1" d="M997.74,1068a10.81,10.81,0,0,1,7.68-2.8h26.7V1085h-26.7a10.82,10.82,0,0,1-7.68-2.81,9.82,9.82,0,0,1,0-14.15Z"/><path class="cls-1" d="M1024.44,1068a10.83,10.83,0,0,1,7.68-2.8h26.7V1085h-26.7a10.83,10.83,0,0,1-7.68-2.81,9.84,9.84,0,0,1,0-14.15Z"/><path class="cls-1" d="M1051.15,1068a10.79,10.79,0,0,1,7.67-2.8h26.71V1085h-26.71a10.79,10.79,0,0,1-7.67-2.81,9.82,9.82,0,0,1,0-14.15Z"/><path class="cls-1" d="M1102.22,1020.86h20.16V1085h-36.85a10.59,10.59,0,0,1-7.61-2.94,9.58,9.58,0,0,1-3.07-7.21,9,9,0,0,1,2.94-7,11.09,11.09,0,0,1,7.74-2.66h16.69Zm-11.48,95.2a11.3,11.3,0,1,1,8,3.33A10.92,10.92,0,0,1,1090.74,1116.06Zm26.57,0a11.3,11.3,0,1,1,8,3.33A11,11,0,0,1,1117.31,1116.06Z"/><path class="cls-1" d="M1198.76,1065.19V1085h-13.89q0,14.28-6.41,21.63t-18.29,7.34a54.18,54.18,0,0,1-16.82-2.93l3.87-17.36a44,44,0,0,0,9.61,1.46c2.76,0,4.76-.75,6-2.27s1.87-4.13,1.87-7.87v-64.09h20.16v44.33Z"/><path class="cls-1" d="M1215.45,986.94h20.16v98h-36.85a10.8,10.8,0,0,1-7.68-2.81,9.84,9.84,0,0,1,0-14.15,10.79,10.79,0,0,1,7.68-2.8h16.69Z"/><path class="cls-1" d="M1249.77,986.94h20.16v98h-20.16Z"/><rect class="cls-2" x="25.58" y="922.05" width="425.6" height="5.57"/><rect class="cls-2" x="886.69" y="922.05" width="402" height="5.57"/><rect class="cls-2" x="8.69" y="1151.66" width="1276.3" height="5.57"/><text class="cls-3"><tspan x="0" y="1260.81" xml:space="preserve">ســــــلــــــبارــــــــــط   ةــــعــــماـــــــج</tspan></text><path class="cls-2" d="M565.48,478.32H221.93l-21.75-40.45H524.42L296.53,210l28.6-28.6L582.06,438.31a23.44,23.44,0,0,1-16.58,40Zm535.42-40.45H772L999.93,210l-28.6-28.6L713,439.69a22.62,22.62,0,0,0,16,38.63h346ZM741.6,468.3l0,0Zm-65.16-93.18L924.31,127.25l-27-27L649.46,348.13a1.51,1.51,0,0,1-2.13,0L397.53,98.34l-27,27,249.8,249.8a39.7,39.7,0,0,0,56.09,0ZM203.36,626.27l237.79-4.06,69.22-67.4L202.1,558.87A21.32,21.32,0,0,1,183.64,549L85.28,394.09a21.35,21.35,0,0,1,.5-23.68L316.59,38.49,261.24,0,30.43,331.92a88.61,88.61,0,0,0-2.06,98.31l98.36,154.86a89.34,89.34,0,0,0,75,41.2Zm962.85-41.18,98.35-154.85a88.61,88.61,0,0,0-2-98.32L1031.7,0,976.35,38.49l230.81,331.92a21.35,21.35,0,0,1,.49,23.68L1109.3,549a21.42,21.42,0,0,1-18.46,9.92l-305.52-4.06L848,622.21l241.54,4.06,1.63,0A89.35,89.35,0,0,0,1166.21,585.09Zm-966-147.22"/></svg>