<svg id="Layer_1" data-name="Layer 1" xmlns="http://www.w3.org/2000/svg" viewBox="0 0 1293.67 1302.72"><defs><style>.cls-1,.cls-2{fill:#000003;}.cls-2{font-size:88px;font-family:FFShamelFamily-SansOneBook, FF Shamel Family;}</style></defs><path class="cls-1" d="M565,477.42H222.49l-21.7-40.37H524.06L296.6,209.58,325.14,181,581.59,437.48A23.4,23.4,0,0,1,565,477.42Z"/><path class="cls-1" d="M1071.9,477.42H728.25a22.58,22.58,0,0,1-16-38.56L970.13,181l28.54,28.55L771.21,437.05h326.53Zm-331-10,0,0Z"/><path class="cls-1" d="M647.8,386a39.47,39.47,0,0,1-28-11.57L370.48,125.09l26.93-26.94L646.74,347.48a1.52,1.52,0,0,0,2.13,0l247.39-247.4L923.19,127,675.8,374.41A39.47,39.47,0,0,1,647.8,386Z"/><rect class="cls-1" x="555.95" y="533.42" width="183.37" height="183.37" rx="2.16" transform="translate(631.71 -274.86) rotate(45)"/><path class="cls-1" d="M566.94,908H550.77v5.68q0,13.13-5.25,19.61t-16,6.48a55,55,0,0,1-13.41-1.89l2.33-10.06a46.07,46.07,0,0,0,9.19,1.16c4.08,0,7.09-1.18,9-3.57s2.91-6.29,2.91-11.73V840.92h11.23v56.27h16.17Zm-26.52-84.11a6.59,6.59,0,0,1-2-4.81,6.34,6.34,0,0,1,2-4.74,6.68,6.68,0,0,1,4.8-2,6.73,6.73,0,0,1,6.71,6.71,6.68,6.68,0,0,1-2,4.81,6.34,6.34,0,0,1-4.74,2A6.55,6.55,0,0,1,540.42,823.87Z"/><path class="cls-1" d="M529.48,942.53a58.2,58.2,0,0,1-14.09-2l-2.64-.67,3.56-15.36,2.67.56c8.46,1.78,13.11,1.47,15.5-1.45,1.49-1.82,2.28-5.27,2.28-10V838.14h16.78v56.27h16.18v16.34H553.54v2.91c0,9.36-2,16.55-5.87,21.35C543.64,940,537.52,942.53,529.48,942.53Zm-10.08-6.74c11.49,2.45,19.58,1.14,24-4.27,3.07-3.79,4.63-9.8,4.63-17.86V905.2h16.18V900H548V843.7h-5.67v70c0,6.16-1.16,10.57-3.54,13.49s-6.26,4.59-11.19,4.59a42.65,42.65,0,0,1-7.09-.71Zm25.82-107.1a9.75,9.75,0,0,1-9.62-9.63,9.17,9.17,0,0,1,2.89-6.74,9.58,9.58,0,0,1,13.43,0,9.27,9.27,0,0,1,2.79,6.71A9.46,9.46,0,0,1,552,825.8,9.21,9.21,0,0,1,545.22,828.69Zm0-13.56a3.94,3.94,0,0,0-2.88,1.19,3.6,3.6,0,0,0-1.19,2.74,3.82,3.82,0,0,0,1.23,2.85h0a3.75,3.75,0,0,0,5.57,0,3.89,3.89,0,0,0,1.19-2.88,3.93,3.93,0,0,0-3.93-3.93Z"/><path class="cls-1" d="M614.39,843.69a41.84,41.84,0,0,1,19,17.57q6.35,11.44,6.34,29.51V908H566.94a5.48,5.48,0,0,1-4.15-1.61,5.46,5.46,0,0,1,0-7.58,5.47,5.47,0,0,1,4.15-1.6h61.52v-6.42q0-16-6.19-25.72T604,850.54q-12-4.8-31-6.27l-1.46-14.72a162.09,162.09,0,0,1,67.64-29.15l2.19,10.79a182.73,182.73,0,0,0-33.82,10.06Q592,827.66,582,835.09,601.77,837.57,614.39,843.69Z"/><path class="cls-1" d="M642.46,910.75H566.94a8.14,8.14,0,0,1-8.46-8.17,8.07,8.07,0,0,1,2.3-5.7,8.17,8.17,0,0,1,6.16-2.47h58.74v-3.64c0-10.09-1.93-18.25-5.75-24.22s-9.49-10.46-16.92-13.43C595.3,850,585.15,848,572.86,847l-2.33-.18-1.84-18.6,1.25-.93a161.78,161.78,0,0,1,32-18.47,163.66,163.66,0,0,1,36.85-11.2l2.67-.47,3.28,16.17-2.73.55a181.19,181.19,0,0,0-33.3,9.91,132.8,132.8,0,0,0-19.22,9.57c10.31,1.76,19.09,4.37,26.15,7.8a44.89,44.89,0,0,1,20.16,18.72c4.44,8,6.69,18.39,6.69,30.86ZM566.94,900a2.72,2.72,0,0,0-2.15.74,2.71,2.71,0,0,0,0,3.74,2.72,2.72,0,0,0,2.15.75h70V890.77c0-11.52-2-21-6-28.17a39.36,39.36,0,0,0-17.73-16.41c-8.1-3.93-18.72-6.73-31.56-8.34l-6.48-.81.46,4.66c11.83,1.06,21.74,3.17,29.47,6.27,8.53,3.4,15.1,8.65,19.53,15.58s6.64,16.05,6.64,27.22V900Zm7.59-69.12.58,5.86,5.2-3.85c6.86-5.07,15.69-9.85,26.25-14.19a185.49,185.49,0,0,1,31.6-9.64l-1.09-5.4a159.89,159.89,0,0,0-62.54,27.22Z"/><path class="cls-1" d="M702.22,908H686v5.68q0,13.13-5.25,19.61t-16,6.48a55,55,0,0,1-13.41-1.89l2.33-10.06a46.07,46.07,0,0,0,9.19,1.16c4.08,0,7.09-1.18,9-3.57s2.91-6.29,2.91-11.73V840.92H686v56.27h16.18Z"/><path class="cls-1" d="M664.75,942.53a58.2,58.2,0,0,1-14.09-2l-2.64-.67,3.57-15.36,2.66.56c8.46,1.78,13.11,1.47,15.5-1.45,1.49-1.82,2.28-5.27,2.28-10V838.14h16.79v56.27H705v16.34H688.82v2.91c0,9.36-2,16.55-5.87,21.35C678.92,940,672.79,942.53,664.75,942.53Zm-10.08-6.74c11.49,2.45,19.59,1.14,24-4.27,3.07-3.79,4.63-9.8,4.63-17.86V905.2h16.18V900H683.26V843.7h-5.67v70c0,6.16-1.16,10.57-3.53,13.49s-6.27,4.59-11.2,4.59a42.65,42.65,0,0,1-7.09-.71Z"/><path class="cls-1" d="M775.18,836.18a35.26,35.26,0,0,1,12.61,14.22,44.82,44.82,0,0,1,4.51,20.26q0,11.52-4.88,20a33.94,33.94,0,0,1-13,13A35.22,35.22,0,0,1,757,908.12a38.08,38.08,0,0,1-16.18-3.64,41,41,0,0,1-14-10.79l-.14.29a24,24,0,0,1-9.7,10.35A29.17,29.17,0,0,1,702.22,908a6.41,6.41,0,0,1-4.52-1.61,5.25,5.25,0,0,1-1.75-4.08,4.59,4.59,0,0,1,1.68-3.72,7,7,0,0,1,4.59-1.38,18.17,18.17,0,0,0,9.54-2.48,14.55,14.55,0,0,0,6.06-6.85,34,34,0,0,0,2.33-8.23c.48-3.07.78-4.89.87-5.47a96.39,96.39,0,0,1,2.19-12.25q3.79-15,12.24-22.95t21.28-8A33.52,33.52,0,0,1,775.18,836.18Zm-6.35,58a23.16,23.16,0,0,0,8.9-9.18,29.23,29.23,0,0,0,3.35-14.36q0-12.52-6.63-20.48t-17.72-7.95q-8.6,0-14,5.18t-8.45,15.67a91.06,91.06,0,0,0-2.77,13.41l-1.31,6.71a38.38,38.38,0,0,0,12.46,10.56,30.11,30.11,0,0,0,13.92,3.57A24.4,24.4,0,0,0,768.83,894.2Z"/><path class="cls-1" d="M757,910.9A40.87,40.87,0,0,1,739.68,907a43,43,0,0,1-12.31-8.65,26.66,26.66,0,0,1-9,8.4,32.13,32.13,0,0,1-16.19,4,9.1,9.1,0,0,1-6.4-2.34,8,8,0,0,1-2.64-6.12,7.34,7.34,0,0,1,2.69-5.86,9.69,9.69,0,0,1,6.35-2,15.44,15.44,0,0,0,8.13-2.08,11.78,11.78,0,0,0,4.93-5.58,30.89,30.89,0,0,0,2.13-7.56c.49-3.08.79-4.91.88-5.49a99.3,99.3,0,0,1,2.24-12.48c2.65-10.48,7-18.65,13-24.29s13.94-8.7,23.18-8.7a36.32,36.32,0,0,1,19.94,5.62h0a38,38,0,0,1,13.6,15.3,47.77,47.77,0,0,1,4.81,21.51c0,8.14-1.77,15.32-5.26,21.36a36.84,36.84,0,0,1-14,14A38.1,38.1,0,0,1,757,910.9ZM726.09,889l2.87,2.9A38.56,38.56,0,0,0,742,902a34,34,0,0,0,31.07-.77A31.42,31.42,0,0,0,785,889.24a36.71,36.71,0,0,0,4.51-18.58,42.3,42.3,0,0,0-4.22-19,32.6,32.6,0,0,0-11.62-13.11,31,31,0,0,0-16.95-4.73c-7.89,0-14.23,2.35-19.37,7.19s-9.07,12.17-11.46,21.61a94.21,94.21,0,0,0-2.12,11.9c-.12.7-.41,2.52-.89,5.57a36.41,36.41,0,0,1-2.53,8.91,17.39,17.39,0,0,1-7.18,8.13,21.07,21.07,0,0,1-11,2.87,4.42,4.42,0,0,0-2.82.75,1.79,1.79,0,0,0-.66,1.57,2.47,2.47,0,0,0,.84,2,3.54,3.54,0,0,0,2.64.89,26.56,26.56,0,0,0,13.42-3.28,21.09,21.09,0,0,0,8.59-9.18Zm30.5,11.12a33.07,33.07,0,0,1-15.2-3.88A41.22,41.22,0,0,1,728,884.92l-.8-1,1.57-8a93.2,93.2,0,0,1,2.82-13.66c2.17-7.43,5.26-13.11,9.19-16.89,4.12-3.95,9.48-5.95,15.92-5.95,8.22,0,14.89,3,19.85,8.94s7.28,13.28,7.28,22.26a32,32,0,0,1-3.7,15.7,26,26,0,0,1-10,10.26A27.22,27.22,0,0,1,756.59,900.11Zm-23.41-17.66a35.21,35.21,0,0,0,10.76,8.84c8.15,4.21,16.83,4.27,23.52.49h0a20.5,20.5,0,0,0,7.84-8.11,26.58,26.58,0,0,0,3-13c0-7.65-2-13.94-6-18.7s-9-7-15.58-7c-5,0-9,1.44-12.07,4.41s-5.82,8-7.71,14.44a90.61,90.61,0,0,0-2.68,13Z"/><path class="cls-1" d="M30.74,1093q4.13,0,6-2.26t1.86-7.86v-64H58.72v64q0,14.25-6.39,21.59t-18.26,7.33a54.05,54.05,0,0,1-16.79-2.93l3.86-17.33A43.9,43.9,0,0,0,30.74,1093Z"/><path class="cls-1" d="M34.07,1114.59a56.82,56.82,0,0,1-17.66-3.07l-2.39-.78,5-22.54,2.74.66c7.33,1.75,11.37,1.89,12.81.13.46-.56,1.23-2.09,1.23-6.09v-66.75H61.5v66.75c0,10.15-2.38,18-7.08,23.41S42.78,1114.59,34.07,1114.59ZM20.55,1107a49.48,49.48,0,0,0,13.52,2c7.13,0,12.42-2.09,16.17-6.38s5.7-11,5.7-19.76v-61.19H41.38v61.19c0,4.43-.82,7.58-2.5,9.63s-4.53,3.27-8.14,3.27a38.18,38.18,0,0,1-7.5-.93Z"/><path class="cls-1" d="M109.5,1063.17v19.73H72.85V985.07H93v78.1Z"/><path class="cls-1" d="M112.27,1085.67H70.07V982.29H95.75v78.1h16.52Zm-36.65-5.55h31.1V1066H90.2v-78.1H75.62Z"/><path class="cls-1" d="M101.84,1066a10.79,10.79,0,0,1,7.66-2.8h26.65v19.73H109.5a10.79,10.79,0,0,1-7.66-2.8,9.82,9.82,0,0,1,0-14.13Z"/><path class="cls-1" d="M138.93,1085.67H109.5a13.52,13.52,0,0,1-9.56-3.54,12.6,12.6,0,0,1,0-18.19,13.52,13.52,0,0,1,9.56-3.55h29.43ZM109.5,1066a8,8,0,0,0-5.76,2,7,7,0,0,0,0,10.07,8,8,0,0,0,5.76,2h23.88V1066Z"/><path class="cls-1" d="M128.49,1066a10.82,10.82,0,0,1,7.66-2.8h26.66v19.73H136.15a10.82,10.82,0,0,1-7.66-2.8,9.82,9.82,0,0,1,0-14.13Z"/><path class="cls-1" d="M165.59,1085.67H136.15a13.51,13.51,0,0,1-9.55-3.54,12.58,12.58,0,0,1,0-18.19,13.53,13.53,0,0,1,9.55-3.55h29.44ZM136.15,1066a8,8,0,0,0-5.76,2h0a7,7,0,0,0,0,10,8,8,0,0,0,5.76,2.06H160V1066Z"/><path class="cls-1" d="M155.15,1066a10.8,10.8,0,0,1,7.66-2.8h26.65v19.73H162.81a10.8,10.8,0,0,1-7.66-2.8,9.82,9.82,0,0,1,0-14.13Z"/><path class="cls-1" d="M192.24,1085.67H162.81a13.55,13.55,0,0,1-9.56-3.54,12.6,12.6,0,0,1,0-18.19,13.56,13.56,0,0,1,9.56-3.55h29.43ZM162.81,1066A8,8,0,0,0,157,1068a7,7,0,0,0,0,10,8,8,0,0,0,5.77,2.06h23.88V1066Z"/><path class="cls-1" d="M181.8,1066a10.82,10.82,0,0,1,7.66-2.8h26.66v19.73H189.46a10.82,10.82,0,0,1-7.66-2.8,9.82,9.82,0,0,1,0-14.13Z"/><path class="cls-1" d="M218.89,1085.67H189.46a13.55,13.55,0,0,1-9.56-3.54,12.62,12.62,0,0,1,0-18.19h0a13.56,13.56,0,0,1,9.56-3.55h29.43ZM183.7,1068h0a7,7,0,0,0,0,10.07,8,8,0,0,0,5.76,2h23.88V1066H189.46A8,8,0,0,0,183.7,1068Z"/><path class="cls-1" d="M208.46,1066a10.79,10.79,0,0,1,7.66-2.8h26.65v19.73H216.12a10.79,10.79,0,0,1-7.66-2.8,9.82,9.82,0,0,1,0-14.13Z"/><path class="cls-1" d="M245.55,1085.67H216.11a13.51,13.51,0,0,1-9.55-3.54,12.6,12.6,0,0,1,0-18.19,13.52,13.52,0,0,1,9.55-3.55h29.44ZM216.11,1066a8,8,0,0,0-5.76,2,7,7,0,0,0,0,10.07,8,8,0,0,0,5.76,2H240V1066Z"/><path class="cls-1" d="M334.46,1063.17v19.73q-19.59,0-28.12-10-10,10-30.92,10H242.77a9.43,9.43,0,0,1-7.33-2.93,10.34,10.34,0,0,1,0-13.87,9.43,9.43,0,0,1,7.33-2.93h32.65a45.84,45.84,0,0,0,11.33-1.07,9.35,9.35,0,0,0,5.66-3.53c1.12-1.64,1.67-4,1.67-7.13q0-5.85-5.26-10.26t-14.93-6.8A95,95,0,0,0,251.3,1032l-4-25.06A120,120,0,0,1,276,990.87q15.25-5.93,37.12-9.39l2.93,19.72a131.8,131.8,0,0,0-23.79,5.2,111.54,111.54,0,0,0-20.85,8.8q19.85,2.79,31.11,12.06t11.67,23.25Q316.07,1063.17,334.46,1063.17Z"/><path class="cls-1" d="M337.24,1085.67h-2.78c-12.47,0-22-3-28.26-8.9-7.16,5.91-17.49,8.9-30.78,8.9H242.77a12.11,12.11,0,0,1-9.38-3.83,13.13,13.13,0,0,1,0-17.6,12.13,12.13,0,0,1,9.39-3.85h32.65a43.58,43.58,0,0,0,10.61-1,6.83,6.83,0,0,0,4.08-2.4,10.35,10.35,0,0,0,1.19-5.58c0-3.07-1.39-5.72-4.27-8.13-3.17-2.65-7.82-4.74-13.81-6.23a92.23,92.23,0,0,0-21.92-2.32h-2.37l-4.63-29,1.33-1A123.63,123.63,0,0,1,275,988.28c10.3-4,23-7.22,37.69-9.55l2.77-.44,3.77,25.32-2.83.35a129.83,129.83,0,0,0-23.3,5.08,123.26,123.26,0,0,0-13,4.93c9.89,2.29,18,6,24.23,11.14,8.12,6.68,12.39,15.2,12.68,25.32.62,4.09,3.14,10,17.48,10h2.78ZM242.77,1066a6.73,6.73,0,0,0-5.28,2,7.58,7.58,0,0,0,0,10.13,6.73,6.73,0,0,0,5.28,2h32.65c13.13,0,22.86-3.09,29-9.19l2.12-2.12,1.95,2.29c4.71,5.51,12.52,8.53,23.23,9v-14.19c-14.93-.83-19.27-8.48-20.23-14.95-.27-8.89-3.75-15.83-10.67-21.52-7.08-5.82-17.08-9.67-29.74-11.45l-8.16-1.15,7.19-4a115,115,0,0,1,21.37-9,135.93,135.93,0,0,1,21.47-4.93l-2.11-14.15A174.65,174.65,0,0,0,277,993.46a117.74,117.74,0,0,0-26.72,14.69l3.36,21.08a94,94,0,0,1,20.89,2.46c6.81,1.69,12.21,4.16,16,7.36,4.15,3.48,6.26,7.65,6.26,12.39,0,3.72-.7,6.57-2.15,8.69a12.08,12.08,0,0,1-7.25,4.66,48.24,48.24,0,0,1-12,1.16Z"/><path class="cls-1" d="M391.77,1063.17v19.73q-21.19,0-28.66-11.73a32,32,0,0,1-12.06,8.66,42.2,42.2,0,0,1-16.59,3.07,10.58,10.58,0,0,1-7.59-2.93,9.57,9.57,0,0,1-3.07-7.2,9,9,0,0,1,2.93-6.93,11,11,0,0,1,7.73-2.67,17.12,17.12,0,0,0,12-4.26q4.65-4.26,4.66-12.8v-27.18h20.12v27.18q0,7.61,4.27,12.13Q380.43,1063.18,391.77,1063.17Zm-51.84-59.57a11.26,11.26,0,1,1,8,3.33A10.91,10.91,0,0,1,339.93,1003.6Zm26.52,0a11.26,11.26,0,1,1,8,3.33A10.87,10.87,0,0,1,366.45,1003.6Z"/><path class="cls-1" d="M394.55,1085.67h-2.78c-13.35,0-23-3.43-28.92-10.21a35.4,35.4,0,0,1-10.72,6.93,45.19,45.19,0,0,1-17.67,3.28A13.25,13.25,0,0,1,325,1082a12.28,12.28,0,0,1-3.93-9.2,11.67,11.67,0,0,1,3.84-9,13.8,13.8,0,0,1,9.6-3.39c4.21,0,7.52-1.15,10.12-3.53s3.76-5.83,3.76-10.75v-30H374v30c0,4.37,1.15,7.72,3.51,10.23,2.67,2.67,7.48,4.05,14.24,4.05h2.78Zm-40.65-64v24.4c0,6.47-1.87,11.47-5.57,14.85a19.85,19.85,0,0,1-13.87,5,8.31,8.31,0,0,0-5.86,1.94,6.17,6.17,0,0,0-2,4.88,6.77,6.77,0,0,0,2.22,5.19,7.82,7.82,0,0,0,5.67,2.16,39.73,39.73,0,0,0,15.51-2.85,29.45,29.45,0,0,0,11-7.91l2.45-2.85,2,3.17c4.09,6.42,12,9.91,23.53,10.38v-14.19c-6.89-.39-12.08-2.29-15.44-5.67-3.39-3.59-5.09-8.31-5.09-14.09v-24.4Zm20.54-12a13.64,13.64,0,0,1-10-4.15h0a14,14,0,0,1-3.3-5.06,14.18,14.18,0,0,1-23.21,5.06h0a14,14,0,0,1,0-19.92,14.17,14.17,0,0,1,23.21,5.07,14.18,14.18,0,0,1,23.22-5.07,14.11,14.11,0,0,1-10,24.07Zm0-22.66a8.53,8.53,0,0,0-6,14.58h0a8.43,8.43,0,0,0,12.06,0,8.55,8.55,0,0,0-6-14.58Zm-26.51,0a8.53,8.53,0,0,0-6,14.58h0a8.44,8.44,0,0,0,12.06,0,8.55,8.55,0,0,0-6-14.58Z"/><path class="cls-1" d="M408.43,1018.93h20.12v64H391.77a10.59,10.59,0,0,1-7.6-2.93,9.61,9.61,0,0,1-3.07-7.2,9,9,0,0,1,2.94-6.93,11,11,0,0,1,7.73-2.67h16.66Zm-4.13,95.15a11.26,11.26,0,1,1,8,3.33A10.9,10.9,0,0,1,404.3,1114.08Z"/><path class="cls-1" d="M412.3,1120.19a14.08,14.08,0,0,1-10-24.06,14.07,14.07,0,0,1,19.91,0,14.1,14.1,0,0,1-9.95,24.06Zm0-22.65a8.53,8.53,0,0,0-6,14.58h0a8.44,8.44,0,0,0,12.07,0,8.55,8.55,0,0,0-6-14.58Zm19-11.87H391.77a13.29,13.29,0,0,1-9.52-3.7,12.31,12.31,0,0,1-3.92-9.2,11.67,11.67,0,0,1,3.84-9,13.8,13.8,0,0,1,9.6-3.39h13.88v-44.24h25.68ZM391.77,1066a8.35,8.35,0,0,0-5.87,1.94,6.19,6.19,0,0,0-2,4.88,6.79,6.79,0,0,0,2.21,5.19,7.84,7.84,0,0,0,5.68,2.16h34v-58.41H411.2V1066Z"/><path class="cls-1" d="M530.37,985.07v97.83h-87.7v-19.73h29.06L451.87,998h20.79l19.86,65.17h17.72v-78.1Z"/><path class="cls-1" d="M533.15,1085.67H439.9v-25.28H468l-19.85-65.17h26.59l19.86,65.17h12.89v-78.1h25.68Zm-87.7-5.55h82.14V987.85H513V1066H490.47l-19.86-65.17h-15L475.48,1066h-30Z"/><path class="cls-1" d="M544.5,985.07h20.12v97.83H544.5Z"/><path class="cls-1" d="M567.4,1085.67H541.72V982.29H567.4Zm-20.13-5.55h14.57V987.85H547.27Z"/><path class="cls-1" d="M678,1010.13v62.5q0,21.19-10.26,32.19t-30,11a102.71,102.71,0,0,1-18.13-1.73l.13-19.46a111.86,111.86,0,0,0,15.06,1.2q12.12,0,17.73-5.52t5.6-17.8v-.4a25.93,25.93,0,0,1-21.59,10.8,29.17,29.17,0,0,1-16.8-4.8,30.74,30.74,0,0,1-10.73-12.66,39.34,39.34,0,0,1-3.66-16.8,38.52,38.52,0,0,1,4.8-18.85q4.8-8.73,15.13-14.2t26.19-5.46Zm-28.12,50.51a18.48,18.48,0,0,0,6-6.86,19.72,19.72,0,0,0,2.27-9.26v-14.27h-6.94q-13.57,0-19.65,4.74c-4.05,3.15-6.06,7.08-6.06,11.79a16.73,16.73,0,0,0,2,7.93,15.63,15.63,0,0,0,5.79,6.13,16.56,16.56,0,0,0,8.87,2.33A13.53,13.53,0,0,0,649.91,1060.64Z"/><path class="cls-1" d="M637.79,1118.59a106.61,106.61,0,0,1-18.62-1.77l-2.3-.42.17-25,3.13.43c15.65,2.16,25.49,1.35,30.46-3.55,2-2,3.43-5,4.17-8.76a29,29,0,0,1-4.69,3,29.34,29.34,0,0,1-13.52,3.1,32.06,32.06,0,0,1-18.36-5.27,33.69,33.69,0,0,1-11.69-13.78,42.34,42.34,0,0,1-3.92-18,41.46,41.46,0,0,1,5.14-20.19c3.45-6.27,8.92-11.43,16.27-15.32s16.51-5.78,27.49-5.78h29.29v65.28c0,14.8-3.71,26.26-11,34.09S651.68,1118.59,637.79,1118.59Zm-15.34-6.85a97.93,97.93,0,0,0,15.34,1.3c12.29,0,21.69-3.41,27.94-10.12s9.52-17,9.52-30.29v-59.72H651.52c-10.07,0-18.44,1.73-24.9,5.14s-11.07,7.77-14,13.07a35.83,35.83,0,0,0-4.46,17.52,36.72,36.72,0,0,0,3.4,15.63,28.2,28.2,0,0,0,9.77,11.54,26.71,26.71,0,0,0,15.24,4.31,23.2,23.2,0,0,0,19.36-9.68l5-6.71v8.37c0,9.31-2.15,16-6.42,20.17s-10.88,6.33-19.68,6.33a107.63,107.63,0,0,1-12.3-.82ZM642.18,1066a19.29,19.29,0,0,1-10.31-2.75,18.36,18.36,0,0,1-6.8-7.2,19.61,19.61,0,0,1-2.32-9.22c0-5.59,2.4-10.3,7.13-14s11.58-5.31,21.36-5.31H661v17a22.47,22.47,0,0,1-2.58,10.54,21.12,21.12,0,0,1-6.9,7.87h0A16.31,16.31,0,0,1,642.18,1066Zm9.06-32.92c-8.38,0-14.42,1.4-18,4.15-3.35,2.61-5,5.76-5,9.6a14,14,0,0,0,1.68,6.63,12.78,12.78,0,0,0,4.79,5.06,12.17,12.17,0,0,0,13.58-.13h0a15.75,15.75,0,0,0,5.1-5.85,17.1,17.1,0,0,0,1.95-8V1033Z"/><path class="cls-1" d="M735.47,1077.83A32.93,32.93,0,0,1,723,1064.51a38.58,38.58,0,0,1-4.19-17.73,40.09,40.09,0,0,1,4.19-18.06A33.71,33.71,0,0,1,735.54,1015q8.33-5.26,19.92-5.27t19.86,5.2a33.16,33.16,0,0,1,12.39,13.52,40.83,40.83,0,0,1,0,35.79,32.61,32.61,0,0,1-12.39,13.52q-8.27,5.15-19.86,5.14T735.47,1077.83Zm-.4-80.63a11.27,11.27,0,1,1,8,3.33A10.91,10.91,0,0,1,735.07,997.2Zm32.52,61.24a16.39,16.39,0,0,0,4.27-11.4,17.77,17.77,0,0,0-4.47-12q-4.46-5.13-12.2-5.14t-12.12,5a17.25,17.25,0,0,0-4.4,11.8,16.74,16.74,0,0,0,4.46,11.59q4.47,4.93,12.33,4.93T767.59,1058.44Zm-6-61.24a11.27,11.27,0,1,1,8,3.33A10.91,10.91,0,0,1,761.59,997.2Z"/><path class="cls-1" d="M755.46,1085.67c-8.3,0-15.52-1.84-21.45-5.47h0a35.8,35.8,0,0,1-13.47-14.44,41.45,41.45,0,0,1-4.5-19,43.13,43.13,0,0,1,4.48-19.29,36.77,36.77,0,0,1,13.54-14.84c6-3.79,13.17-5.7,21.4-5.7s15.4,1.89,21.34,5.63a36.1,36.1,0,0,1,13.4,14.64,43.63,43.63,0,0,1,0,38.25,35.51,35.51,0,0,1-13.43,14.65C770.85,1083.81,763.68,1085.67,755.46,1085.67Zm0-73.17c-7.16,0-13.36,1.63-18.43,4.84A31.26,31.26,0,0,0,725.5,1030a37.44,37.44,0,0,0-3.91,16.82,36,36,0,0,0,3.9,16.47,30.31,30.31,0,0,0,11.43,12.21h0c5,3.09,11.28,4.66,18.54,4.66s13.35-1.59,18.39-4.72A30,30,0,0,0,785.22,1063a38.08,38.08,0,0,0,0-33.33,30.64,30.64,0,0,0-11.38-12.4C768.8,1014.11,762.62,1012.5,755.46,1012.5Zm0,53.45c-6,0-10.87-2-14.38-5.84a19.45,19.45,0,0,1-5.19-13.46A20,20,0,0,1,741,1033c3.47-4,8.25-5.94,14.2-5.94s10.78,2,14.29,6.08a20.57,20.57,0,0,1,5.16,13.88,19.2,19.2,0,0,1-5,13.26h0C766.27,1064.05,761.5,1066,755.46,1066Zm-.27-33.32c-4.35,0-7.64,1.33-10,4a14.5,14.5,0,0,0-3.7,10,13.88,13.88,0,0,0,3.74,9.72c2.45,2.71,5.81,4,10.27,4s7.75-1.24,10.07-3.81h0a13.62,13.62,0,0,0,3.55-9.54,15,15,0,0,0-3.79-10.23C762.85,1034,759.54,1032.63,755.19,1032.63Zm14.4-29.32a13.63,13.63,0,0,1-10-4.14,14.05,14.05,0,0,1-3.3-5.07,14.18,14.18,0,0,1-23.22,5.07h0a14,14,0,0,1,0-19.92,14.19,14.19,0,0,1,23.22,5.06,13.93,13.93,0,0,1,3.3-5.06,14.08,14.08,0,0,1,19.92,0,14.1,14.1,0,0,1-10,24.06Zm0-22.65a8.53,8.53,0,0,0-6,14.58h0a8.43,8.43,0,0,0,12.06,0,8.55,8.55,0,0,0-6-14.58Zm-26.52,0a8.52,8.52,0,0,0-6,14.58h0a8.44,8.44,0,0,0,12.06,0,8.55,8.55,0,0,0-6-14.58Z"/><path class="cls-1" d="M806,1063.17h47.31v-7.59q0-9.74-3.06-15.26a17.65,17.65,0,0,0-9.6-8q-6.52-2.46-17.45-2.47h-9.73v-20.12h10q23.31,0,36.65,11.73t13.32,34.12v27.32H806Z"/><path class="cls-1" d="M876.19,1085.67h-73v-25.28h47.31v-4.81c0-6-.92-10.67-2.72-13.92a14.83,14.83,0,0,0-8.15-6.74c-4-1.52-9.56-2.29-16.48-2.29h-12.5V1007h12.78c16.16,0,29.11,4.18,38.48,12.42s14.27,20.52,14.27,36.21Zm-67.44-5.55h61.88v-24.54c0-14-4.16-24.8-12.38-32s-20-11-34.81-11h-7.22v14.58h6.94c7.59,0,13.79.89,18.44,2.64a20.45,20.45,0,0,1,11,9.25c2.27,4.09,3.41,9.67,3.41,16.61V1066H808.75Z"/><path class="cls-1" d="M924.18,1063.17v19.73H887.54V985.07h20.12v78.1Z"/><path class="cls-1" d="M927,1085.67h-42.2V982.29h25.68v78.1H927Zm-36.65-5.55h31.1V1066H904.88v-78.1H890.31Z"/><path class="cls-1" d="M916.53,1066a10.78,10.78,0,0,1,7.65-2.8h26.66v19.73H924.18a10.78,10.78,0,0,1-7.65-2.8,9.8,9.8,0,0,1,0-14.13Z"/><path class="cls-1" d="M953.62,1085.67H924.18a13.51,13.51,0,0,1-9.55-3.54,12.58,12.58,0,0,1,0-18.19,13.53,13.53,0,0,1,9.55-3.55h29.44ZM924.18,1066a8,8,0,0,0-5.76,2h0a7,7,0,0,0,0,10,8,8,0,0,0,5.76,2.06h23.88V1066Z"/><path class="cls-1" d="M943.18,1066a10.8,10.8,0,0,1,7.66-2.8h26.65v19.73H950.84a10.8,10.8,0,0,1-7.66-2.8,9.82,9.82,0,0,1,0-14.13Z"/><path class="cls-1" d="M980.27,1085.67H950.84a13.55,13.55,0,0,1-9.56-3.54,12.6,12.6,0,0,1,0-18.19,13.56,13.56,0,0,1,9.56-3.55h29.43ZM950.84,1066a8,8,0,0,0-5.77,2.06,7,7,0,0,0,0,10,8,8,0,0,0,5.77,2.06h23.88V1066Z"/><path class="cls-1" d="M969.83,1066a10.82,10.82,0,0,1,7.66-2.8h26.66v19.73H977.49a10.82,10.82,0,0,1-7.66-2.8,9.82,9.82,0,0,1,0-14.13Z"/><path class="cls-1" d="M1006.92,1085.67H977.49a13.55,13.55,0,0,1-9.56-3.54,12.62,12.62,0,0,1,0-18.19h0a13.56,13.56,0,0,1,9.56-3.55h29.43ZM971.73,1068h0a7,7,0,0,0,0,10.07,8,8,0,0,0,5.76,2h23.88V1066H977.49A8,8,0,0,0,971.73,1068Z"/><path class="cls-1" d="M996.49,1066a10.79,10.79,0,0,1,7.66-2.8h26.65v19.73h-26.65a10.79,10.79,0,0,1-7.66-2.8,9.82,9.82,0,0,1,0-14.13Z"/><path class="cls-1" d="M1033.58,1085.67h-29.43a13.52,13.52,0,0,1-9.56-3.54,12.6,12.6,0,0,1,0-18.19,13.52,13.52,0,0,1,9.56-3.55h29.43ZM1004.15,1066a8,8,0,0,0-5.77,2,7,7,0,0,0,0,10.07,8,8,0,0,0,5.77,2H1028V1066Z"/><path class="cls-1" d="M1023.14,1066a10.8,10.8,0,0,1,7.66-2.8h26.66v19.73H1030.8a10.8,10.8,0,0,1-7.66-2.8,9.82,9.82,0,0,1,0-14.13Z"/><path class="cls-1" d="M1060.24,1085.67H1030.8a13.55,13.55,0,0,1-9.56-3.54,12.59,12.59,0,0,1,0-18.19,13.52,13.52,0,0,1,9.55-3.55h29.44ZM1030.8,1066a8,8,0,0,0-5.76,2h0a7,7,0,0,0,0,10,8,8,0,0,0,5.76,2.06h23.88V1066Z"/><path class="cls-1" d="M1049.79,1066a10.85,10.85,0,0,1,7.67-2.8h26.65v19.73h-26.65a10.85,10.85,0,0,1-7.67-2.8,9.82,9.82,0,0,1,0-14.13Z"/><path class="cls-1" d="M1086.89,1085.67h-29.43a13.53,13.53,0,0,1-9.56-3.54,12.6,12.6,0,0,1,0-18.19,13.54,13.54,0,0,1,9.56-3.55h29.43ZM1057.46,1066a8,8,0,0,0-5.77,2.06,7,7,0,0,0,0,10,8,8,0,0,0,5.77,2.06h23.87V1066Z"/><path class="cls-1" d="M1100.77,1018.93h20.13v64h-36.79a10.6,10.6,0,0,1-7.6-2.93,9.6,9.6,0,0,1-3.06-7.2,9,9,0,0,1,2.93-6.93,11,11,0,0,1,7.73-2.67h16.66Zm-11.46,95a11.27,11.27,0,1,1,8,3.33A10.91,10.91,0,0,1,1089.31,1114Zm26.52,0a11.26,11.26,0,1,1,8,3.33A10.91,10.91,0,0,1,1115.83,1114Z"/><path class="cls-1" d="M1123.83,1120.06a13.64,13.64,0,0,1-10-4.15,13.88,13.88,0,0,1-3.3-5.06,14.19,14.19,0,0,1-23.23,5.06,14.05,14.05,0,0,1,0-19.92,14.19,14.19,0,0,1,23.23,5.06,13.76,13.76,0,0,1,3.3-5.06,14.09,14.09,0,0,1,19.92,0,14.11,14.11,0,0,1-10,24.07Zm0-22.66a8.53,8.53,0,0,0-6,14.58,8.43,8.43,0,0,0,12.07,0,8.55,8.55,0,0,0-6-14.58Zm-26.53,0a8.53,8.53,0,0,0-6,14.58,8.43,8.43,0,0,0,12.07,0,8.55,8.55,0,0,0-6-14.58Zm26.37-11.73h-39.56a13.32,13.32,0,0,1-9.51-3.69,12.32,12.32,0,0,1-3.93-9.21,11.68,11.68,0,0,1,3.84-9,13.8,13.8,0,0,1,9.6-3.39H1098v-44.24h25.68ZM1084.11,1066a8.28,8.28,0,0,0-5.86,1.94,6.15,6.15,0,0,0-2,4.88,6.78,6.78,0,0,0,2.21,5.2,7.87,7.87,0,0,0,5.67,2.15h34v-58.41h-14.57V1066Z"/><path class="cls-1" d="M1197.13,1063.17v19.73h-13.86q0,14.25-6.4,21.59t-18.26,7.33a54.16,54.16,0,0,1-16.8-2.93l3.87-17.33a44,44,0,0,0,9.6,1.46q4.13,0,6-2.26t1.86-7.86v-64h20.13v44.24Z"/><path class="cls-1" d="M1158.61,1114.59a57.18,57.18,0,0,1-17.66-3.06l-2.4-.79,5-22.54,2.74.66c7.32,1.75,11.35,1.9,12.81.13.45-.56,1.23-2.1,1.23-6.09v-66.75H1186v44.24h13.86v25.28H1186c-.4,8.82-2.76,15.76-7,20.64C1174.17,1111.8,1167.32,1114.59,1158.61,1114.59Zm-13.52-7.6a49.48,49.48,0,0,0,13.52,2c7.13,0,12.42-2.09,16.16-6.38s5.72-11,5.72-19.76v-2.78h13.86V1066h-13.86v-44.24h-14.57v61.19c0,4.42-.82,7.57-2.49,9.62s-4.54,3.28-8.15,3.28a37.83,37.83,0,0,1-7.49-.93Z"/><path class="cls-1" d="M1213.78,985.07h20.13v97.83h-36.78a10.79,10.79,0,0,1-7.66-2.8,9.8,9.8,0,0,1,0-14.13,10.79,10.79,0,0,1,7.66-2.8h16.65Z"/><path class="cls-1" d="M1236.68,1085.67h-39.56a13.51,13.51,0,0,1-9.55-3.54,12.58,12.58,0,0,1,0-18.19,13.52,13.52,0,0,1,9.55-3.55H1211v-78.1h25.67ZM1197.12,1066a8,8,0,0,0-5.76,2,7,7,0,0,0,0,10.06,8,8,0,0,0,5.76,2.06h34V987.85h-14.57V1066Z"/><path class="cls-1" d="M1248,985.07h20.13v97.83H1248Z"/><path class="cls-1" d="M1270.93,1085.67h-25.68V982.29h25.68Zm-20.12-5.55h14.57V987.85h-14.57Z"/><rect class="cls-1" x="26.17" y="920.31" width="424.79" height="5.55"/><rect class="cls-1" x="885.65" y="920.31" width="401.24" height="5.55"/><rect class="cls-1" x="9.3" y="1149.48" width="1273.89" height="5.55"/><path class="cls-1" d="M202,625.11A89.18,89.18,0,0,1,127.12,584L29,429.42A88.44,88.44,0,0,1,31,331.29L261.37,0l55.25,38.42L86.25,369.71a21.3,21.3,0,0,0-.5,23.64l98.17,154.56a21.25,21.25,0,0,0,18.42,9.9l307.64-4L441,621,203.6,625.09Z"/><path class="cls-1" d="M1089.78,625.11l-1.62,0L847.07,621l-62.66-67.28,305,4a21.38,21.38,0,0,0,18.42-9.9L1206,393.35a21.3,21.3,0,0,0-.49-23.64L975.14,38.42,1030.39,0l230.37,331.29a88.46,88.46,0,0,1,2,98.14L1164.64,584A89.18,89.18,0,0,1,1089.78,625.11Z"/><text class="cls-2"><tspan x="0" y="1261.54" xml:space="preserve">ســــــلــــــبارــــــــــط   ةــــعــــماـــــــج</tspan></text></svg>