<svg id="Layer_1" data-name="Layer 1" xmlns="http://www.w3.org/2000/svg" xmlns:xlink="http://www.w3.org/1999/xlink" viewBox="0 0 1293.67 1301.99"><defs><style>.cls-1{fill:none;}.cls-2,.cls-4{fill:#fcfefe;}.cls-3{fill:#24556f;}.cls-4{font-size:88px;font-family:FFShamelFamily-SansOneBook, FF Shamel Family;}.cls-5{clip-path:url(#clip-path);}.cls-6{fill:#245670;}.cls-7{fill:#255670;}.cls-8{fill:#255771;}.cls-9{fill:#265771;}.cls-10{fill:#265872;}.cls-11{fill:#275873;}.cls-12{fill:#285973;}.cls-13{fill:#295a74;}.cls-14{fill:#2a5b75;}.cls-15{fill:#2b5b75;}.cls-16{fill:#2c5c76;}.cls-17{fill:#2d5d77;}.cls-18{fill:#2e5d78;}.cls-19{fill:#2e5e78;}.cls-20{fill:#2f5f79;}.cls-21{fill:#305f79;}.cls-22{fill:#30607a;}.cls-23{fill:#31607b;}.cls-24{fill:#32617b;}.cls-25{fill:#32617c;}.cls-26{fill:#33627c;}.cls-27{fill:#34637d;}.cls-28{fill:#35647e;}.cls-29{fill:#36647f;}.cls-30{fill:#36657f;}.cls-31{fill:#376680;}.cls-32{fill:#386681;}.cls-33{fill:#386781;}.cls-34{fill:#396882;}.cls-35{fill:#3a6882;}.cls-36{fill:#3a6983;}.cls-37{fill:#3b6984;}.cls-38{fill:#3c6a84;}.cls-39{fill:#3c6b85;}.cls-40{fill:#3d6b86;}.cls-41{fill:#3d6c86;}.cls-42{fill:#3e6c87;}.cls-43{fill:#3f6d88;}.cls-44{fill:#3f6e88;}.cls-45{fill:#406e89;}.cls-46{fill:#416f89;}.cls-47{fill:#41708a;}.cls-48{fill:#42708b;}.cls-49{fill:#43718b;}.cls-50{fill:#43728c;}.cls-51{fill:#44728d;}.cls-52{fill:#45738d;}.cls-53{fill:#45748e;}.cls-54{fill:#46748f;}.cls-55{fill:#47758f;}.cls-56{fill:#477690;}.cls-57{fill:#487791;}.cls-58{fill:#497792;}.cls-59{fill:#4a7892;}.cls-60{fill:#4a7993;}.cls-61{fill:#4b7994;}.cls-62{fill:#4c7a94;}.cls-63{fill:#4c7b95;}.cls-64{fill:#4d7c96;}.cls-65{fill:#4e7c97;}.cls-66{fill:#4e7d97;}.cls-67{fill:#4f7e98;}.cls-68{fill:#507f99;}.cls-69{fill:#507f9a;}.cls-70{fill:#51809a;}.cls-71{fill:#52819b;}.cls-72{fill:#52829c;}.cls-73{fill:#53829d;}.cls-74{fill:#54839e;}.cls-75{fill:#55849e;}.cls-76{fill:#55859f;}.cls-77{fill:#5686a0;}.cls-78{fill:#5786a1;}.cls-79{fill:#5887a2;}.cls-80{fill:#5888a3;}.cls-81{fill:#5989a3;}.cls-82{fill:#5a8aa4;}.cls-83{fill:#5a8ba5;}.cls-84{fill:#5b8ba6;}.cls-85{fill:#5c8ca7;}.cls-86{fill:#5d8da7;}.cls-87{fill:#5d8ea8;}.cls-88{fill:#5e8fa9;}.cls-89{fill:#5f8faa;}.cls-90{fill:#5f90ab;}.cls-91{fill:#6091ac;}.cls-92{fill:#6192ac;}.cls-93{fill:#6293ad;}.cls-94{fill:#6294ae;}.cls-95{fill:#6395af;}.cls-96{fill:#6495b0;}.cls-97{fill:#6596b1;}.cls-98{fill:#6597b2;}.cls-99{fill:#6698b2;}.cls-100{fill:#6799b3;}.cls-101{fill:#689ab4;}.cls-102{fill:#689bb5;}.cls-103{fill:#699cb6;}.cls-104{fill:#6a9db7;}.cls-105{fill:#6b9db8;}.cls-106{fill:#6c9eb9;}.cls-107{fill:#6c9fba;}.cls-108{fill:#6da0ba;}.cls-109{fill:#6ea1bb;}.cls-110{fill:#6fa2bc;}.cls-111{fill:#6fa3bd;}.cls-112{fill:#70a4be;}.cls-113{fill:#71a5bf;}.cls-114{fill:#72a6c0;}.cls-115{fill:#73a7c1;}.cls-116{fill:#73a7c2;}.cls-117{fill:#74a8c2;}.cls-118{fill:#75a9c3;}.cls-119{fill:#76aac4;}.cls-120{fill:#76abc5;}.cls-121{fill:#77acc6;}.cls-122{fill:#78adc7;}.cls-123{fill:#79aec8;}.cls-124{fill:#7aafc9;}.cls-125{fill:#7bb0ca;}.cls-126{fill:#7bb1cb;}.cls-127{fill:#7cb2cc;}.cls-128{fill:#7db3cd;}.cls-129{fill:#7eb4ce;}.cls-130{fill:#7fb6cf;}.cls-131{fill:#80b7d0;}.cls-132{fill:#81b8d2;}.cls-133{fill:#82b9d3;}.cls-134{fill:#82bad4;}.cls-135{fill:#83bbd5;}.cls-136{fill:#84bcd6;}.cls-137{fill:#85bdd7;}.cls-138{fill:#86bfd9;}.cls-139{fill:#87c0da;}</style><clipPath id="clip-path"><path class="cls-1" d="M570.3,478.33H227.09l-21.75-40.45h323.9L301.34,210l28.6-28.6L586.87,438.31a23.44,23.44,0,0,1-16.57,40Zm535.07-40.45H776.86L1004.75,210l-28.6-28.6L717.84,439.69a22.62,22.62,0,0,0,16,38.64h345.67ZM746.42,468.31l0,0Zm-65.16-93.19L929.13,127.25l-27-27L654.28,348.13a1.51,1.51,0,0,1-2.13,0L402.35,98.34l-27,27,249.79,249.8a39.71,39.71,0,0,0,56.1,0ZM654.57,754.67,781.43,627.81a2.15,2.15,0,0,0,0-3L654.57,497.91a2.16,2.16,0,0,0-3.05,0L524.66,624.77a2.15,2.15,0,0,0,0,3L651.52,754.67A2.16,2.16,0,0,0,654.57,754.67ZM208.18,626.27,446,622.21l69.62-67.4-308.68,4.06A21.35,21.35,0,0,1,188.45,549L90.1,394.09a21.33,21.33,0,0,1,.5-23.68L321.4,38.49,266.05,0,35.25,331.92a88.59,88.59,0,0,0-2.06,98.31l98.35,154.86a89.37,89.37,0,0,0,75,41.2ZM1171,585.09l98.35-154.85a88.61,88.61,0,0,0-2.05-98.32L1036.52,0,981.17,38.49,1212,370.41a21.35,21.35,0,0,1,.49,23.68L1114.12,549a21.42,21.42,0,0,1-18.46,9.92l-306.53-4.06,63.73,67.4,241.54,4.06,1.63,0A89.35,89.35,0,0,0,1171,585.09ZM205.34,437.88"/></clipPath></defs><path class="cls-2" d="M572.2,909.69H556v5.7q0,13.14-5.27,19.64t-16.06,6.5a55.24,55.24,0,0,1-13.44-1.89l2.34-10.09a45.55,45.55,0,0,0,9.21,1.17q6.12,0,9.05-3.57c1.95-2.39,2.91-6.31,2.91-11.76V842.51H556v56.38h16.2Zm-26.57-84.26a6.57,6.57,0,0,1-2-4.82,6.34,6.34,0,0,1,2-4.75,6.69,6.69,0,0,1,4.81-2,6.73,6.73,0,0,1,6.72,6.72,6.69,6.69,0,0,1-2,4.82,6.36,6.36,0,0,1-4.75,2A6.56,6.56,0,0,1,545.63,825.43Z"/><path class="cls-2" d="M619.74,845.29a42,42,0,0,1,19,17.6q6.36,11.46,6.35,29.57v17.23H572.2a5.46,5.46,0,0,1-4.16-1.61,5.47,5.47,0,0,1,0-7.59,5.49,5.49,0,0,1,4.16-1.6h61.64v-6.43q0-16.07-6.21-25.77t-18.26-14.54q-12-4.81-31-6.28l-1.46-14.75a157.94,157.94,0,0,1,31.47-18.18,160.35,160.35,0,0,1,36.29-11l2.2,10.81A184.26,184.26,0,0,0,613,822.8q-15.63,6.42-25.7,13.87Q607.11,839.16,619.74,845.29Z"/><path class="cls-2" d="M707.73,909.69H691.52v5.7q0,13.14-5.26,19.64t-16.06,6.5a55.24,55.24,0,0,1-13.44-1.89l2.34-10.09a45.55,45.55,0,0,0,9.2,1.17c4.09,0,7.1-1.19,9.06-3.57s2.91-6.31,2.91-11.76V842.51h11.25v56.38h16.21Z"/><path class="cls-2" d="M780.83,837.77A35.16,35.16,0,0,1,793.46,852a44.84,44.84,0,0,1,4.52,20.3q0,11.54-4.89,20a33.94,33.94,0,0,1-13,13,35.25,35.25,0,0,1-17.46,4.53,38.21,38.21,0,0,1-16.2-3.65,40.93,40.93,0,0,1-14-10.81l-.15.29A24.11,24.11,0,0,1,722.56,906a29.2,29.2,0,0,1-14.83,3.65,6.37,6.37,0,0,1-4.52-1.61,5.23,5.23,0,0,1-1.76-4.08,4.6,4.6,0,0,1,1.68-3.73,7,7,0,0,1,4.6-1.38,18.39,18.39,0,0,0,9.57-2.48,14.65,14.65,0,0,0,6.06-6.87,33.54,33.54,0,0,0,2.34-8.25q.72-4.6.87-5.48a95.93,95.93,0,0,1,2.19-12.26q3.81-15,12.27-23t21.32-8A33.56,33.56,0,0,1,780.83,837.77Zm-6.36,58.12a23.1,23.1,0,0,0,8.91-9.2,29.2,29.2,0,0,0,3.36-14.38q0-12.55-6.64-20.52t-17.75-8q-8.61,0-14,5.18t-8.47,15.7a91.5,91.5,0,0,0-2.77,13.44l-1.32,6.72a38.42,38.42,0,0,0,12.49,10.58,30.12,30.12,0,0,0,14,3.58A24.38,24.38,0,0,0,774.47,895.89Z"/><path class="cls-2" d="M35,1095.09c2.76,0,4.77-.75,6-2.27s1.87-4.14,1.87-7.87v-64.09H63V1085q0,14.28-6.4,21.63t-18.3,7.34A54,54,0,0,1,21.5,1111l3.86-17.35A44.76,44.76,0,0,0,35,1095.09Z"/><path class="cls-2" d="M113.89,1065.18V1085H77.17v-98H97.34v78.24Z"/><path class="cls-2" d="M106.22,1068a10.79,10.79,0,0,1,7.67-2.81H140.6V1085H113.89a10.79,10.79,0,0,1-7.67-2.81,9.82,9.82,0,0,1,0-14.15Z"/><path class="cls-2" d="M132.92,1068a10.8,10.8,0,0,1,7.68-2.81h26.71V1085H140.6a10.8,10.8,0,0,1-7.68-2.81,9.82,9.82,0,0,1,0-14.15Z"/><path class="cls-2" d="M159.63,1068a10.8,10.8,0,0,1,7.68-2.81H194V1085h-26.7a10.8,10.8,0,0,1-7.68-2.81,9.82,9.82,0,0,1,0-14.15Z"/><path class="cls-2" d="M186.33,1068a10.8,10.8,0,0,1,7.68-2.81h26.7V1085H194a10.8,10.8,0,0,1-7.68-2.81,9.84,9.84,0,0,1,0-14.15Z"/><path class="cls-2" d="M213,1068a10.79,10.79,0,0,1,7.67-2.81h26.71V1085H220.71a10.79,10.79,0,0,1-7.67-2.81,9.82,9.82,0,0,1,0-14.15Z"/><path class="cls-2" d="M339.28,1065.18V1085q-19.63,0-28.18-10-10,10-31,10H247.42a9.43,9.43,0,0,1-7.35-2.94,10.37,10.37,0,0,1,0-13.89,9.43,9.43,0,0,1,7.35-2.94h32.71a46.08,46.08,0,0,0,11.35-1.07,9.32,9.32,0,0,0,5.67-3.54c1.12-1.64,1.67-4,1.67-7.14q0-5.87-5.27-10.28t-15-6.81a94.73,94.73,0,0,0-22.63-2.4l-4-25.11a120.08,120.08,0,0,1,28.77-16.08q15.28-6,37.18-9.42l2.95,19.76A132.16,132.16,0,0,0,297,1008.3a111.68,111.68,0,0,0-20.89,8.82q19.89,2.8,31.17,12.08T319,1052.5Q320.85,1065.19,339.28,1065.18Z"/><path class="cls-2" d="M396.7,1065.18V1085q-21.24,0-28.71-11.76a32,32,0,0,1-12.09,8.68,42.35,42.35,0,0,1-16.62,3.08,10.58,10.58,0,0,1-7.61-2.94,9.59,9.59,0,0,1-3.08-7.21,9,9,0,0,1,2.94-7,11.14,11.14,0,0,1,7.75-2.67,17.13,17.13,0,0,0,12-4.27q4.67-4.28,4.67-12.82v-27.23h20.16v27.23q0,7.62,4.28,12.15Q385.33,1065.19,396.7,1065.18Zm-51.94-59.68a11.3,11.3,0,1,1,8,3.33A10.92,10.92,0,0,1,344.76,1005.5Zm26.56,0a11.31,11.31,0,1,1,8,3.33A11,11,0,0,1,371.32,1005.5Z"/><path class="cls-2" d="M413.39,1020.86h20.15V1085H396.7a10.56,10.56,0,0,1-7.61-2.94,9.59,9.59,0,0,1-3.08-7.21,9,9,0,0,1,2.94-7,11.12,11.12,0,0,1,7.75-2.67h16.69Zm-4.14,95.33a11.27,11.27,0,1,1,8,3.34A10.92,10.92,0,0,1,409.25,1116.19Z"/><path class="cls-2" d="M535.56,986.94v98H447.7v-19.77h29.11l-19.9-65.29h20.83l19.9,65.29H515.4V986.94Z"/><path class="cls-2" d="M549.71,986.94h20.17v98H549.71Z"/><path class="cls-2" d="M683.5,1012v62.62q0,21.24-10.28,32.25t-30,11a103,103,0,0,1-18.16-1.73l.13-19.49a113.94,113.94,0,0,0,15.09,1.2q12.15,0,17.76-5.54t5.61-17.83v-.4a26.88,26.88,0,0,1-9.35,8A26.53,26.53,0,0,1,642,1085a29.27,29.27,0,0,1-16.83-4.81,30.77,30.77,0,0,1-10.75-12.68,39.34,39.34,0,0,1-3.67-16.83,38.54,38.54,0,0,1,4.81-18.89q4.8-8.76,15.15-14.23t26.24-5.47Zm-28.17,50.61a18.49,18.49,0,0,0,6-6.88,19.74,19.74,0,0,0,2.27-9.28V1032.2h-7q-13.6,0-19.69,4.74t-6.08,11.82a16.82,16.82,0,0,0,2,8,15.74,15.74,0,0,0,5.8,6.14,16.63,16.63,0,0,0,8.89,2.33A13.62,13.62,0,0,0,655.33,1062.65Z"/><path class="cls-2" d="M741.05,1079.87a32.92,32.92,0,0,1-12.48-13.35,38.59,38.59,0,0,1-4.21-17.76,40.07,40.07,0,0,1,4.21-18.09,33.7,33.7,0,0,1,12.55-13.75q8.34-5.28,20-5.28t19.89,5.21a33.31,33.31,0,0,1,12.42,13.55,40.87,40.87,0,0,1,0,35.85A32.7,32.7,0,0,1,781,1079.8q-8.28,5.15-19.89,5.15Q749.32,1085,741.05,1079.87Zm-.4-80.78a11.27,11.27,0,1,1,8,3.34A10.91,10.91,0,0,1,740.65,999.09Zm32.58,61.35A16.42,16.42,0,0,0,777.5,1049a17.85,17.85,0,0,0-4.47-12.09q-4.47-5.13-12.22-5.14c-5.17,0-9.21,1.67-12.15,5a17.29,17.29,0,0,0-4.41,11.82,16.7,16.7,0,0,0,4.48,11.61q4.47,5,12.35,4.94T773.23,1060.44Zm-6-61.35a11.27,11.27,0,1,1,8,3.34A10.91,10.91,0,0,1,767.22,999.09Z"/><path class="cls-2" d="M811.68,1065.18h47.4v-7.61q0-9.75-3.06-15.28a17.72,17.72,0,0,0-9.62-8q-6.54-2.46-17.49-2.47h-9.75v-20.16h10q23.37,0,36.72,11.75t13.35,34.18V1085H811.68Z"/><path class="cls-2" d="M930.12,1065.18V1085H893.4v-98h20.16v78.24Z"/><path class="cls-2" d="M922.44,1068a10.8,10.8,0,0,1,7.68-2.81h26.71V1085H930.12a10.8,10.8,0,0,1-7.68-2.81,9.82,9.82,0,0,1,0-14.15Z"/><path class="cls-2" d="M949.15,1068a10.8,10.8,0,0,1,7.68-2.81h26.7V1085h-26.7a10.8,10.8,0,0,1-7.68-2.81,9.82,9.82,0,0,1,0-14.15Z"/><path class="cls-2" d="M975.85,1068a10.8,10.8,0,0,1,7.68-2.81h26.7V1085h-26.7a10.8,10.8,0,0,1-7.68-2.81,9.84,9.84,0,0,1,0-14.15Z"/><path class="cls-2" d="M1002.56,1068a10.79,10.79,0,0,1,7.67-2.81h26.71V1085h-26.71a10.79,10.79,0,0,1-7.67-2.81,9.82,9.82,0,0,1,0-14.15Z"/><path class="cls-2" d="M1029.26,1068a10.8,10.8,0,0,1,7.68-2.81h26.71V1085h-26.71a10.8,10.8,0,0,1-7.68-2.81,9.82,9.82,0,0,1,0-14.15Z"/><path class="cls-2" d="M1056,1068a10.8,10.8,0,0,1,7.68-2.81h26.7V1085h-26.7a10.8,10.8,0,0,1-7.68-2.81,9.82,9.82,0,0,1,0-14.15Z"/><path class="cls-2" d="M1107,1020.86h20.16V1085h-36.85a10.62,10.62,0,0,1-7.62-2.94,9.61,9.61,0,0,1-3.06-7.21,9,9,0,0,1,2.93-7,11.14,11.14,0,0,1,7.75-2.67H1107Zm-11.49,95.2a11.31,11.31,0,1,1,8,3.33A11,11,0,0,1,1095.55,1116.06Zm26.58,0a11.3,11.3,0,1,1,8,3.33A10.93,10.93,0,0,1,1122.13,1116.06Z"/><path class="cls-2" d="M1203.58,1065.18V1085h-13.89q0,14.28-6.41,21.63t-18.29,7.34a54.08,54.08,0,0,1-16.83-2.94l3.88-17.35a44.6,44.6,0,0,0,9.61,1.46c2.76,0,4.76-.75,6-2.27s1.87-4.14,1.87-7.87v-64.09h20.16v44.32Z"/><path class="cls-2" d="M1220.27,986.94h20.15v98h-36.84a10.8,10.8,0,0,1-7.68-2.81,9.82,9.82,0,0,1,0-14.15,10.8,10.8,0,0,1,7.68-2.81h16.69Z"/><path class="cls-2" d="M1254.58,986.94h20.16v98h-20.16Z"/><rect class="cls-3" x="30.4" y="922.05" width="425.59" height="5.57"/><rect class="cls-3" x="891.51" y="922.05" width="401.99" height="5.57"/><rect class="cls-3" x="13.51" y="1151.66" width="1276.3" height="5.57"/><text class="cls-4"><tspan x="0" y="1260.81" xml:space="preserve">ســــــلــــــبارــــــــــط   ةــــعــــماـــــــج</tspan></text><g class="cls-5"><polygon class="cls-3" points="1132.8 626.29 1288.62 470.48 1288.62 626.29 1132.8 626.29"/><polygon class="cls-3" points="1121.98 626.29 1288.62 459.66 1288.62 470.48 1132.8 626.29 1121.98 626.29"/><polygon class="cls-6" points="1111.16 626.29 1288.62 448.84 1288.62 459.66 1121.98 626.29 1111.16 626.29"/><polygon class="cls-7" points="1100.35 626.29 1288.62 438.02 1288.62 448.84 1111.16 626.29 1100.35 626.29"/><polygon class="cls-8" points="1089.53 626.29 1288.62 427.2 1288.62 438.02 1100.35 626.29 1089.53 626.29"/><polygon class="cls-9" points="1078.71 626.29 1288.62 416.38 1288.62 427.2 1089.53 626.29 1078.71 626.29"/><polygon class="cls-10" points="1067.89 626.29 1288.62 405.56 1288.62 416.38 1078.71 626.29 1067.89 626.29"/><polygon class="cls-11" points="1057.07 626.29 1288.62 394.75 1288.62 405.56 1067.89 626.29 1057.07 626.29"/><polygon class="cls-12" points="1046.25 626.29 1288.62 383.93 1288.62 394.75 1057.07 626.29 1046.25 626.29"/><polygon class="cls-13" points="1035.43 626.29 1288.62 373.11 1288.62 383.93 1046.25 626.29 1035.43 626.29"/><polygon class="cls-13" points="1024.61 626.29 1288.62 362.29 1288.62 373.11 1035.43 626.29 1024.61 626.29"/><polygon class="cls-14" points="1013.79 626.29 1288.62 351.47 1288.62 362.29 1024.61 626.29 1013.79 626.29"/><polygon class="cls-15" points="1002.97 626.29 1288.62 340.65 1288.62 351.47 1013.79 626.29 1002.97 626.29"/><polygon class="cls-16" points="992.15 626.29 1288.62 329.83 1288.62 340.65 1002.97 626.29 992.15 626.29"/><polygon class="cls-16" points="981.34 626.29 1288.62 319.01 1288.62 329.83 992.15 626.29 981.34 626.29"/><polygon class="cls-17" points="970.52 626.29 1288.62 308.19 1288.62 319.01 981.34 626.29 970.52 626.29"/><polygon class="cls-18" points="959.7 626.29 1288.62 297.37 1288.62 308.19 970.52 626.29 959.7 626.29"/><polygon class="cls-19" points="948.88 626.29 1288.62 286.55 1288.62 297.37 959.7 626.29 948.88 626.29"/><polygon class="cls-20" points="938.06 626.29 1288.62 275.74 1288.62 286.55 948.88 626.29 938.06 626.29"/><polygon class="cls-21" points="927.24 626.29 1288.62 264.92 1288.62 275.74 938.06 626.29 927.24 626.29"/><polygon class="cls-22" points="916.42 626.29 1288.62 254.1 1288.62 264.92 927.24 626.29 916.42 626.29"/><polygon class="cls-23" points="905.6 626.29 1288.62 243.28 1288.62 254.1 916.42 626.29 905.6 626.29"/><polygon class="cls-24" points="894.78 626.29 1286.67 234.4 1288.62 236.35 1288.62 243.28 905.6 626.29 894.78 626.29"/><polygon class="cls-25" points="883.96 626.29 1281.26 228.99 1286.67 234.4 894.78 626.29 883.96 626.29"/><polygon class="cls-26" points="873.14 626.29 1275.85 223.58 1281.26 228.99 883.96 626.29 873.14 626.29"/><polygon class="cls-27" points="862.33 626.29 1270.44 218.18 1275.85 223.58 873.14 626.29 862.33 626.29"/><polygon class="cls-27" points="851.51 626.29 1265.03 212.76 1270.44 218.18 862.33 626.29 851.51 626.29"/><polygon class="cls-28" points="841.2 626.29 840.94 626.03 1259.62 207.36 1265.03 212.76 851.51 626.29 841.2 626.29"/><rect class="cls-29" x="751.53" y="410.16" width="592.1" height="7.65" transform="translate(14.09 862) rotate(-45)"/><rect class="cls-30" x="746.12" y="404.76" width="592.1" height="7.65" transform="translate(16.33 856.59) rotate(-45)"/><rect class="cls-31" x="740.71" y="399.35" width="592.1" height="7.65" transform="translate(18.57 851.19) rotate(-45)"/><rect class="cls-32" x="735.3" y="393.94" width="592.1" height="7.65" transform="translate(20.82 845.78) rotate(-45)"/><rect class="cls-33" x="729.89" y="388.53" width="592.1" height="7.65" transform="translate(23.06 840.37) rotate(-45)"/><rect class="cls-34" x="724.48" y="383.12" width="592.1" height="7.65" transform="translate(25.3 834.96) rotate(-45)"/><rect class="cls-35" x="719.07" y="377.71" width="592.1" height="7.65" transform="translate(27.54 829.55) rotate(-45)"/><rect class="cls-36" x="713.66" y="372.3" width="592.1" height="7.65" transform="translate(29.78 824.14) rotate(-45)"/><rect class="cls-37" x="708.25" y="366.89" width="592.1" height="7.65" transform="translate(32.02 818.73) rotate(-45)"/><polygon class="cls-38" points="792.26 577.35 789.13 574.22 789.13 569.66 1205.53 153.26 1210.94 158.67 792.26 577.35"/><polygon class="cls-39" points="789.13 558.84 1200.12 147.85 1205.53 153.26 789.13 569.66 789.13 558.84"/><polygon class="cls-40" points="789.13 548.02 1194.71 142.44 1200.12 147.85 789.13 558.84 789.13 548.02"/><polygon class="cls-41" points="789.13 537.2 1189.3 137.03 1194.71 142.44 789.13 548.02 789.13 537.2"/><polygon class="cls-42" points="789.13 526.38 1183.89 131.62 1189.3 137.03 789.13 537.2 789.13 526.38"/><polygon class="cls-43" points="789.13 515.56 1178.48 126.21 1183.89 131.62 789.13 526.38 789.13 515.56"/><polygon class="cls-44" points="789.13 504.74 1173.07 120.8 1178.48 126.21 789.13 515.56 789.13 504.74"/><polygon class="cls-45" points="789.13 493.92 1167.66 115.39 1173.07 120.8 789.13 504.74 789.13 493.92"/><polygon class="cls-46" points="789.13 483.11 1162.25 109.98 1167.66 115.39 789.13 493.92 789.13 483.11"/><polygon class="cls-47" points="789.13 472.29 1156.84 104.57 1162.25 109.98 789.13 483.11 789.13 472.29"/><polygon class="cls-48" points="789.13 461.47 1151.43 99.16 1156.84 104.57 789.13 472.29 789.13 461.47"/><polygon class="cls-49" points="789.13 450.65 1146.02 93.75 1151.43 99.16 789.13 461.47 789.13 450.65"/><polygon class="cls-50" points="789.13 439.83 1140.61 88.34 1146.02 93.75 789.13 450.65 789.13 439.83"/><polygon class="cls-51" points="789.13 429.01 1135.2 82.94 1140.61 88.34 789.13 439.83 789.13 429.01"/><polygon class="cls-52" points="789.13 418.19 1129.79 77.53 1135.2 82.94 789.13 429.01 789.13 418.19"/><polygon class="cls-53" points="789.13 407.37 1124.38 72.12 1129.79 77.53 789.13 418.19 789.13 407.37"/><polygon class="cls-54" points="789.13 396.55 1118.97 66.71 1124.38 72.12 789.13 407.37 789.13 396.55"/><polygon class="cls-55" points="789.13 385.73 1113.56 61.3 1118.97 66.71 789.13 396.55 789.13 385.73"/><polygon class="cls-56" points="789.13 374.91 1108.15 55.89 1113.56 61.3 789.13 385.73 789.13 374.91"/><polygon class="cls-57" points="789.13 364.1 1102.74 50.48 1108.15 55.89 789.13 374.91 789.13 364.1"/><polygon class="cls-58" points="789.13 353.28 1097.34 45.07 1102.74 50.48 789.13 364.1 789.13 353.28"/><polygon class="cls-59" points="789.13 342.46 1091.92 39.66 1097.34 45.07 789.13 353.28 789.13 342.46"/><polygon class="cls-60" points="789.13 331.64 1086.52 34.25 1091.92 39.66 789.13 342.46 789.13 331.64"/><polygon class="cls-61" points="789.13 320.82 1081.11 28.84 1086.52 34.25 789.13 331.64 789.13 320.82"/><polygon class="cls-62" points="789.13 310 1075.7 23.43 1081.11 28.84 789.13 320.82 789.13 310"/><polygon class="cls-63" points="789.13 299.18 1070.29 18.02 1075.7 23.43 789.13 310 789.13 299.18"/><polygon class="cls-64" points="789.13 288.36 1064.88 12.61 1070.29 18.02 789.13 299.18 789.13 288.36"/><polygon class="cls-65" points="789.13 277.54 1059.47 7.2 1064.88 12.61 789.13 288.36 789.13 277.54"/><polygon class="cls-66" points="789.13 266.72 1054.06 1.79 1059.47 7.2 789.13 277.54 789.13 266.72"/><polygon class="cls-67" points="789.13 255.9 1045.03 0 1052.27 0 1054.06 1.79 789.13 266.72 789.13 255.9"/><polygon class="cls-68" points="789.13 245.08 1034.21 0 1045.03 0 789.13 255.9 789.13 245.08"/><polygon class="cls-69" points="789.13 234.26 1023.39 0 1034.21 0 789.13 245.08 789.13 234.26"/><polygon class="cls-70" points="789.13 223.45 1012.57 0 1023.39 0 789.13 234.26 789.13 223.45"/><polygon class="cls-71" points="789.13 212.63 1001.75 0 1012.57 0 789.13 223.45 789.13 212.63"/><polygon class="cls-72" points="789.13 201.81 990.94 0 1001.75 0 789.13 212.63 789.13 201.81"/><polygon class="cls-73" points="789.13 190.99 980.12 0 990.94 0 789.13 201.81 789.13 190.99"/><polygon class="cls-74" points="789.13 180.17 969.3 0 980.12 0 789.13 190.99 789.13 180.17"/><polygon class="cls-75" points="789.13 169.35 958.48 0 969.3 0 789.13 180.17 789.13 169.35"/><polygon class="cls-76" points="789.13 158.53 947.66 0 958.48 0 789.13 169.35 789.13 158.53"/><polygon class="cls-77" points="789.13 147.71 936.84 0 947.66 0 789.13 158.53 789.13 147.71"/><polygon class="cls-78" points="789.13 136.89 926.02 0 936.84 0 789.13 147.71 789.13 136.89"/><polygon class="cls-79" points="789.13 126.07 915.2 0 926.02 0 789.13 136.89 789.13 126.07"/><polygon class="cls-80" points="789.13 115.25 904.38 0 915.2 0 789.13 126.07 789.13 115.25"/><polygon class="cls-81" points="789.13 104.44 893.56 0 904.38 0 789.13 115.25 789.13 104.44"/><polygon class="cls-82" points="789.13 93.62 882.74 0 893.56 0 789.13 104.44 789.13 93.62"/><polygon class="cls-83" points="789.13 82.8 871.92 0 882.74 0 789.13 93.62 789.13 82.8"/><polygon class="cls-84" points="789.13 71.98 861.11 0 871.92 0 789.13 82.8 789.13 71.98"/><polygon class="cls-85" points="789.13 61.16 850.29 0 861.11 0 789.13 71.98 789.13 61.16"/><polygon class="cls-86" points="789.13 50.34 839.47 0 850.29 0 789.13 61.16 789.13 50.34"/><polygon class="cls-87" points="789.13 39.52 828.65 0 839.47 0 789.13 50.34 789.13 39.52"/><polygon class="cls-88" points="789.13 28.7 817.83 0 828.65 0 789.13 39.52 789.13 28.7"/><polygon class="cls-89" points="789.13 17.88 807.01 0 817.83 0 789.13 28.7 789.13 17.88"/><polygon class="cls-90" points="789.13 7.06 796.19 0 807.01 0 789.13 17.88 789.13 7.06"/><polygon class="cls-91" points="796.19 0 789.13 7.06 789.13 0 796.19 0"/><polygon class="cls-59" points="505.29 626.29 515.59 615.99 515.59 626.29 505.29 626.29"/><polygon class="cls-60" points="494.48 626.29 515.59 605.17 515.59 615.99 505.29 626.29 494.48 626.29"/><polygon class="cls-61" points="483.66 626.29 515.59 594.35 515.59 605.17 494.48 626.29 483.66 626.29"/><polygon class="cls-62" points="472.84 626.29 515.59 583.53 515.59 594.35 483.66 626.29 472.84 626.29"/><polygon class="cls-63" points="462.02 626.29 515.59 572.72 515.59 583.53 472.84 626.29 462.02 626.29"/><polygon class="cls-64" points="451.2 626.29 515.59 561.9 515.59 572.72 462.02 626.29 451.2 626.29"/><polygon class="cls-65" points="440.38 626.29 515.59 551.08 515.59 561.9 451.2 626.29 440.38 626.29"/><polygon class="cls-66" points="429.56 626.29 515.59 540.26 515.59 551.08 440.38 626.29 429.56 626.29"/><polygon class="cls-67" points="418.74 626.29 515.59 529.44 515.59 540.26 429.56 626.29 418.74 626.29"/><polygon class="cls-68" points="407.92 626.29 515.59 518.62 515.59 529.44 418.74 626.29 407.92 626.29"/><polygon class="cls-69" points="397.1 626.29 515.59 507.8 515.59 518.62 407.92 626.29 397.1 626.29"/><polygon class="cls-70" points="386.28 626.29 515.59 496.98 515.59 507.8 397.1 626.29 386.28 626.29"/><polygon class="cls-71" points="375.46 626.29 515.59 486.16 515.59 496.98 386.28 626.29 375.46 626.29"/><polygon class="cls-72" points="364.64 626.29 515.59 475.34 515.59 486.16 375.46 626.29 364.64 626.29"/><polygon class="cls-73" points="353.83 626.29 515.59 464.52 515.59 475.34 364.64 626.29 353.83 626.29"/><polygon class="cls-74" points="343.01 626.29 515.59 453.7 515.59 464.52 353.83 626.29 343.01 626.29"/><polygon class="cls-75" points="332.19 626.29 515.59 442.89 515.59 453.7 343.01 626.29 332.19 626.29"/><polygon class="cls-76" points="321.37 626.29 515.59 432.07 515.59 442.89 332.19 626.29 321.37 626.29"/><polygon class="cls-77" points="310.55 626.29 515.59 421.25 515.59 432.07 321.37 626.29 310.55 626.29"/><polygon class="cls-78" points="299.73 626.29 515.59 410.43 515.59 421.25 310.55 626.29 299.73 626.29"/><polygon class="cls-79" points="288.91 626.29 515.59 399.61 515.59 410.43 299.73 626.29 288.91 626.29"/><polygon class="cls-80" points="278.09 626.29 515.59 388.79 515.59 399.61 288.91 626.29 278.09 626.29"/><polygon class="cls-81" points="267.27 626.29 515.59 377.97 515.59 388.79 278.09 626.29 267.27 626.29"/><polygon class="cls-82" points="256.45 626.29 515.59 367.15 515.59 377.97 267.27 626.29 256.45 626.29"/><polygon class="cls-83" points="245.63 626.29 515.59 356.33 515.59 367.15 256.45 626.29 245.63 626.29"/><polygon class="cls-84" points="234.82 626.29 515.59 345.51 515.59 356.33 245.63 626.29 234.82 626.29"/><polygon class="cls-85" points="224 626.29 515.59 334.69 515.59 345.51 234.82 626.29 224 626.29"/><polygon class="cls-86" points="213.18 626.29 515.59 323.88 515.59 334.69 224 626.29 213.18 626.29"/><polygon class="cls-87" points="202.36 626.29 515.59 313.06 515.59 323.88 213.18 626.29 202.36 626.29"/><polygon class="cls-88" points="191.54 626.29 515.59 302.24 515.59 313.06 202.36 626.29 191.54 626.29"/><polygon class="cls-89" points="180.72 626.29 515.59 291.42 515.59 302.24 191.54 626.29 180.72 626.29"/><polygon class="cls-90" points="169.9 626.29 515.59 280.6 515.59 291.42 180.72 626.29 169.9 626.29"/><polygon class="cls-91" points="159.08 626.29 515.59 269.78 515.59 280.6 169.9 626.29 159.08 626.29"/><polygon class="cls-92" points="148.26 626.29 515.59 258.96 515.59 269.78 159.08 626.29 148.26 626.29"/><polygon class="cls-93" points="147.69 626.29 142.57 621.17 515.59 248.14 515.59 258.96 148.26 626.29 147.69 626.29"/><polygon class="cls-94" points="142.57 621.17 137.16 615.76 515.59 237.32 515.59 248.14 142.57 621.17"/><polygon class="cls-95" points="137.16 615.76 131.75 610.35 515.59 226.5 515.59 237.32 137.16 615.76"/><polygon class="cls-96" points="131.75 610.35 126.34 604.94 514.97 216.31 515.59 216.94 515.59 226.5 131.75 610.35"/><rect class="cls-97" x="43.15" y="404.09" width="549.6" height="7.65" transform="translate(-195.32 344.3) rotate(-45)"/><rect class="cls-98" x="37.74" y="398.68" width="549.6" height="7.65" transform="translate(-193.08 338.89) rotate(-45)"/><rect class="cls-99" x="32.33" y="393.27" width="549.6" height="7.65" transform="translate(-190.84 333.48) rotate(-45)"/><rect class="cls-100" x="26.92" y="387.87" width="549.6" height="7.65" transform="translate(-188.6 328.07) rotate(-45)"/><rect class="cls-101" x="21.51" y="382.46" width="549.6" height="7.65" transform="translate(-186.35 322.66) rotate(-45)"/><rect class="cls-102" x="16.1" y="377.05" width="549.6" height="7.65" transform="translate(-184.11 317.25) rotate(-45)"/><rect class="cls-103" x="10.69" y="371.64" width="549.6" height="7.65" transform="translate(-181.87 311.84) rotate(-45)"/><rect class="cls-104" x="5.28" y="366.23" width="549.6" height="7.65" transform="translate(-179.63 306.43) rotate(-45)"/><rect class="cls-105" x="-0.13" y="360.82" width="549.6" height="7.65" transform="translate(-177.39 301.02) rotate(-45)"/><rect class="cls-106" x="-5.54" y="355.41" width="549.6" height="7.65" transform="translate(-175.15 295.61) rotate(-45)"/><rect class="cls-107" x="-10.95" y="350" width="549.6" height="7.65" transform="translate(-172.91 290.2) rotate(-45)"/><rect class="cls-108" x="-16.36" y="344.59" width="549.6" height="7.65" transform="translate(-170.67 284.79) rotate(-45)"/><rect class="cls-109" x="-21.77" y="339.18" width="549.6" height="7.65" transform="translate(-168.43 279.38) rotate(-45)"/><rect class="cls-110" x="-27.18" y="333.77" width="549.6" height="7.65" transform="translate(-166.19 273.98) rotate(-45)"/><rect class="cls-111" x="-32.59" y="328.36" width="549.6" height="7.65" transform="translate(-163.95 268.57) rotate(-45)"/><rect class="cls-112" x="-38" y="322.95" width="549.6" height="7.65" transform="translate(-161.71 263.16) rotate(-45)"/><rect class="cls-113" x="-43.41" y="317.54" width="549.6" height="7.65" transform="translate(-159.47 257.75) rotate(-45)"/><rect class="cls-114" x="-48.82" y="312.13" width="549.6" height="7.65" transform="translate(-157.23 252.34) rotate(-45)"/><rect class="cls-115" x="-54.23" y="306.72" width="549.6" height="7.65" transform="translate(-154.98 246.93) rotate(-45)"/><rect class="cls-116" x="-59.64" y="301.31" width="549.6" height="7.65" transform="translate(-152.74 241.52) rotate(-45)"/><polygon class="cls-117" points="18.15 496.75 13.96 492.56 13.96 490.11 401.37 102.71 406.77 108.12 18.15 496.75"/><polygon class="cls-118" points="13.96 479.29 395.96 97.3 401.37 102.71 13.96 490.11 13.96 479.29"/><polygon class="cls-119" points="13.96 468.47 390.55 91.89 395.96 97.3 13.96 479.29 13.96 468.47"/><polygon class="cls-120" points="13.96 457.65 385.14 86.48 390.55 91.89 13.96 468.47 13.96 457.65"/><polygon class="cls-121" points="13.96 446.83 379.73 81.07 385.14 86.48 13.96 457.65 13.96 446.83"/><polygon class="cls-122" points="13.96 436.02 374.32 75.66 379.73 81.07 13.96 446.83 13.96 436.02"/><polygon class="cls-123" points="13.96 425.2 368.91 70.25 374.32 75.66 13.96 436.02 13.96 425.2"/><polygon class="cls-124" points="13.96 414.38 363.5 64.84 368.91 70.25 13.96 425.2 13.96 414.38"/><polygon class="cls-125" points="13.96 403.56 358.09 59.43 363.5 64.84 13.96 414.38 13.96 403.56"/><polygon class="cls-126" points="13.96 392.74 352.68 54.02 358.09 59.43 13.96 403.56 13.96 392.74"/><polygon class="cls-127" points="13.96 381.92 347.27 48.61 352.68 54.02 13.96 392.74 13.96 381.92"/><polygon class="cls-128" points="13.96 371.1 341.86 43.2 347.27 48.61 13.96 381.92 13.96 371.1"/><polygon class="cls-129" points="13.96 360.28 336.45 37.79 341.86 43.2 13.96 371.1 13.96 360.28"/><polygon class="cls-130" points="13.96 349.46 331.04 32.38 336.45 37.79 13.96 360.28 13.96 349.46"/><polygon class="cls-131" points="13.96 338.64 325.63 26.98 331.04 32.38 13.96 349.46 13.96 338.64"/><polygon class="cls-132" points="13.96 327.82 320.22 21.57 325.63 26.98 13.96 338.64 13.96 327.82"/><polygon class="cls-133" points="13.96 317 314.81 16.16 320.22 21.57 13.96 327.82 13.96 317"/><polygon class="cls-134" points="13.96 306.19 309.4 10.75 314.81 16.16 13.96 317 13.96 306.19"/><polygon class="cls-135" points="13.96 295.37 303.99 5.34 309.4 10.75 13.96 306.19 13.96 295.37"/><polygon class="cls-136" points="13.96 284.55 298.51 0 298.66 0 303.99 5.34 13.96 295.37 13.96 284.55"/><polygon class="cls-137" points="13.96 273.73 287.69 0 298.51 0 13.96 284.55 13.96 273.73"/><polygon class="cls-138" points="13.96 262.91 276.87 0 287.69 0 13.96 273.73 13.96 262.91"/><polygon class="cls-139" points="13.96 252.09 266.05 0 276.87 0 13.96 262.91 13.96 252.09"/><polygon class="cls-139" points="266.05 0 13.96 252.09 13.96 0 266.05 0"/><polygon class="cls-24" points="768.67 752.4 779.15 741.92 779.15 752.4 768.67 752.4"/><polygon class="cls-25" points="757.86 752.4 779.15 731.1 779.15 741.92 768.67 752.4 757.86 752.4"/><polygon class="cls-26" points="747.04 752.4 779.15 720.28 779.15 731.1 757.86 752.4 747.04 752.4"/><polygon class="cls-27" points="736.22 752.4 779.15 709.46 779.15 720.28 747.04 752.4 736.22 752.4"/><polygon class="cls-27" points="725.4 752.4 779.15 698.64 779.15 709.46 736.22 752.4 725.4 752.4"/><polygon class="cls-28" points="714.58 752.4 779.15 687.82 779.15 698.64 725.4 752.4 714.58 752.4"/><polygon class="cls-29" points="703.76 752.4 779.15 677 779.15 687.82 714.58 752.4 703.76 752.4"/><polygon class="cls-30" points="692.94 752.4 779.15 666.18 779.15 677 703.76 752.4 692.94 752.4"/><polygon class="cls-31" points="682.12 752.4 779.15 655.37 779.15 666.18 692.94 752.4 682.12 752.4"/><polygon class="cls-32" points="671.3 752.4 779.15 644.55 779.15 655.37 682.12 752.4 671.3 752.4"/><polygon class="cls-33" points="660.48 752.4 779.15 633.73 779.15 644.55 671.3 752.4 660.48 752.4"/><polygon class="cls-34" points="649.66 752.4 779.15 622.91 779.15 633.73 660.48 752.4 649.66 752.4"/><polygon class="cls-35" points="638.85 752.4 779.15 612.09 779.15 622.91 649.66 752.4 638.85 752.4"/><polygon class="cls-36" points="633.51 752.4 630.77 749.66 776.41 604.01 779.15 606.75 779.15 612.09 638.85 752.4 633.51 752.4"/><rect class="cls-37" x="597.9" y="670.3" width="205.98" height="7.65" transform="translate(-271.4 693.05) rotate(-45)"/><rect class="cls-38" x="592.49" y="664.89" width="205.98" height="7.65" transform="translate(-269.16 687.64) rotate(-45)"/><rect class="cls-39" x="587.08" y="659.48" width="205.98" height="7.65" transform="translate(-266.92 682.23) rotate(-45)"/><rect class="cls-40" x="581.67" y="654.08" width="205.98" height="7.65" transform="translate(-264.67 676.82) rotate(-45)"/><rect class="cls-41" x="576.26" y="648.67" width="205.98" height="7.65" transform="translate(-262.43 671.41) rotate(-45)"/><rect class="cls-42" x="570.85" y="643.26" width="205.98" height="7.65" transform="translate(-260.19 666) rotate(-45)"/><rect class="cls-43" x="565.44" y="637.85" width="205.98" height="7.65" transform="translate(-257.95 660.59) rotate(-45)"/><rect class="cls-44" x="560.03" y="632.44" width="205.98" height="7.65" transform="translate(-255.71 655.18) rotate(-45)"/><rect class="cls-45" x="554.62" y="627.03" width="205.98" height="7.65" transform="translate(-253.47 649.77) rotate(-45)"/><rect class="cls-46" x="549.21" y="621.62" width="205.98" height="7.65" transform="translate(-251.23 644.36) rotate(-45)"/><rect class="cls-47" x="543.8" y="616.21" width="205.98" height="7.65" transform="translate(-248.99 638.95) rotate(-45)"/><rect class="cls-48" x="538.39" y="610.8" width="205.98" height="7.65" transform="translate(-246.75 633.54) rotate(-45)"/><rect class="cls-49" x="532.98" y="605.39" width="205.98" height="7.65" transform="translate(-244.51 628.13) rotate(-45)"/><rect class="cls-50" x="527.57" y="599.98" width="205.98" height="7.65" transform="translate(-242.27 622.72) rotate(-45)"/><rect class="cls-51" x="522.16" y="594.57" width="205.98" height="7.65" transform="translate(-240.03 617.31) rotate(-45)"/><rect class="cls-52" x="516.75" y="589.16" width="205.98" height="7.65" transform="translate(-237.79 611.91) rotate(-45)"/><rect class="cls-53" x="511.34" y="583.75" width="205.98" height="7.65" transform="translate(-235.55 606.5) rotate(-45)"/><rect class="cls-54" x="505.93" y="578.34" width="205.98" height="7.65" transform="translate(-233.3 601.09) rotate(-45)"/><rect class="cls-55" x="500.53" y="572.93" width="205.98" height="7.65" transform="translate(-231.06 595.68) rotate(-45)"/><polygon class="cls-56" points="527.99 646.88 526.94 645.83 526.94 637.1 663.86 500.18 672.59 500.18 673.63 501.23 527.99 646.88"/><polygon class="cls-57" points="526.94 626.28 653.04 500.18 663.86 500.18 526.94 637.1 526.94 626.28"/><polygon class="cls-58" points="526.94 615.47 642.22 500.18 653.04 500.18 526.94 626.28 526.94 615.47"/><polygon class="cls-59" points="526.94 604.65 631.4 500.18 642.22 500.18 526.94 615.47 526.94 604.65"/><polygon class="cls-60" points="526.94 593.83 620.58 500.18 631.4 500.18 526.94 604.65 526.94 593.83"/><polygon class="cls-61" points="526.94 583.01 609.76 500.18 620.58 500.18 526.94 593.83 526.94 583.01"/><polygon class="cls-62" points="526.94 572.19 598.95 500.18 609.76 500.18 526.94 583.01 526.94 572.19"/><polygon class="cls-63" points="526.94 561.37 588.13 500.18 598.95 500.18 526.94 572.19 526.94 561.37"/><polygon class="cls-64" points="526.94 550.55 577.31 500.18 588.13 500.18 526.94 561.37 526.94 550.55"/><polygon class="cls-65" points="526.94 539.73 566.49 500.18 577.31 500.18 526.94 550.55 526.94 539.73"/><polygon class="cls-66" points="526.94 528.91 555.67 500.18 566.49 500.18 526.94 539.73 526.94 528.91"/><polygon class="cls-67" points="526.94 518.09 544.85 500.18 555.67 500.18 526.94 528.91 526.94 518.09"/><polygon class="cls-68" points="526.94 507.27 534.03 500.18 544.85 500.18 526.94 518.09 526.94 507.27"/><polygon class="cls-69" points="534.03 500.18 526.94 507.27 526.94 500.18 534.03 500.18"/><polygon class="cls-42" points="928.79 386.72 929.13 386.38 929.13 386.72 928.79 386.72"/><polygon class="cls-43" points="917.97 386.72 929.13 375.56 929.13 386.38 928.79 386.72 917.97 386.72"/><polygon class="cls-44" points="907.15 386.72 929.13 364.74 929.13 375.56 917.97 386.72 907.15 386.72"/><polygon class="cls-45" points="896.33 386.72 929.13 353.92 929.13 364.74 907.15 386.72 896.33 386.72"/><polygon class="cls-46" points="885.51 386.72 929.13 343.1 929.13 353.92 896.33 386.72 885.51 386.72"/><polygon class="cls-47" points="874.7 386.72 929.13 332.29 929.13 343.1 885.51 386.72 874.7 386.72"/><polygon class="cls-48" points="863.88 386.72 929.13 321.47 929.13 332.29 874.7 386.72 863.88 386.72"/><polygon class="cls-49" points="853.06 386.72 929.13 310.65 929.13 321.47 863.88 386.72 853.06 386.72"/><polygon class="cls-50" points="842.24 386.72 929.13 299.83 929.13 310.65 853.06 386.72 842.24 386.72"/><polygon class="cls-51" points="831.42 386.72 929.13 289.01 929.13 299.83 842.24 386.72 831.42 386.72"/><polygon class="cls-52" points="820.6 386.72 929.13 278.19 929.13 289.01 831.42 386.72 820.6 386.72"/><polygon class="cls-53" points="809.78 386.72 929.13 267.37 929.13 278.19 820.6 386.72 809.78 386.72"/><polygon class="cls-54" points="798.96 386.72 929.13 256.55 929.13 267.37 809.78 386.72 798.96 386.72"/><polygon class="cls-55" points="788.14 386.72 929.13 245.73 929.13 256.55 798.96 386.72 788.14 386.72"/><polygon class="cls-56" points="777.32 386.72 929.13 234.91 929.13 245.73 788.14 386.72 777.32 386.72"/><polygon class="cls-57" points="766.5 386.72 929.13 224.09 929.13 234.91 777.32 386.72 766.5 386.72"/><polygon class="cls-58" points="755.68 386.72 929.13 213.28 929.13 224.09 766.5 386.72 755.68 386.72"/><polygon class="cls-59" points="744.87 386.72 929.13 202.46 929.13 213.28 755.68 386.72 744.87 386.72"/><polygon class="cls-60" points="734.05 386.72 929.13 191.64 929.13 202.46 744.87 386.72 734.05 386.72"/><polygon class="cls-61" points="723.23 386.72 929.13 180.82 929.13 191.64 734.05 386.72 723.23 386.72"/><polygon class="cls-62" points="712.41 386.72 929.13 170 929.13 180.82 723.23 386.72 712.41 386.72"/><polygon class="cls-63" points="701.59 386.72 929.13 159.18 929.13 170 712.41 386.72 701.59 386.72"/><polygon class="cls-64" points="690.77 386.72 929.13 148.36 929.13 159.18 701.59 386.72 690.77 386.72"/><polygon class="cls-65" points="679.95 386.72 929.13 137.54 929.13 148.36 690.77 386.72 679.95 386.72"/><polygon class="cls-66" points="669.13 386.72 929.13 126.72 929.13 137.54 679.95 386.72 669.13 386.72"/><polygon class="cls-67" points="658.31 386.72 929.13 115.9 929.13 126.72 669.13 386.72 658.31 386.72"/><polygon class="cls-68" points="647.49 386.72 925.91 108.3 929.13 111.51 929.13 115.9 658.31 386.72 647.49 386.72"/><polygon class="cls-69" points="636.67 386.72 920.5 102.89 925.91 108.3 647.49 386.72 636.67 386.72"/><polygon class="cls-70" points="625.86 386.72 914.23 98.34 915.96 98.34 920.5 102.89 636.67 386.72 625.86 386.72"/><polygon class="cls-71" points="621.02 386.72 618.03 383.73 903.41 98.34 914.23 98.34 625.86 386.72 621.02 386.72"/><polygon class="cls-72" points="618.03 383.73 612.62 378.32 892.6 98.34 903.41 98.34 618.03 383.73"/><polygon class="cls-73" points="612.62 378.32 607.21 372.91 881.78 98.34 892.6 98.34 612.62 378.32"/><polygon class="cls-74" points="607.21 372.91 601.8 367.5 870.96 98.34 881.78 98.34 607.21 372.91"/><polygon class="cls-75" points="601.8 367.5 596.39 362.09 860.14 98.34 870.96 98.34 601.8 367.5"/><polygon class="cls-76" points="596.39 362.09 590.98 356.68 849.32 98.34 860.14 98.34 596.39 362.09"/><polygon class="cls-77" points="590.98 356.68 585.57 351.27 838.5 98.34 849.32 98.34 590.98 356.68"/><polygon class="cls-78" points="585.57 351.27 580.16 345.86 827.68 98.34 838.5 98.34 585.57 351.27"/><polygon class="cls-79" points="580.16 345.86 574.75 340.45 816.86 98.34 827.68 98.34 580.16 345.86"/><polygon class="cls-80" points="574.75 340.45 569.34 335.04 806.04 98.34 816.86 98.34 574.75 340.45"/><polygon class="cls-81" points="569.34 335.04 563.93 329.63 795.22 98.34 806.04 98.34 569.34 335.04"/><polygon class="cls-82" points="563.93 329.63 558.52 324.22 784.4 98.34 795.22 98.34 563.93 329.63"/><polygon class="cls-83" points="558.52 324.22 553.11 318.81 773.59 98.34 784.4 98.34 558.52 324.22"/><polygon class="cls-84" points="553.11 318.81 547.7 313.4 762.77 98.34 773.59 98.34 553.11 318.81"/><polygon class="cls-85" points="547.7 313.4 542.29 307.99 751.95 98.34 762.77 98.34 547.7 313.4"/><polygon class="cls-86" points="542.29 307.99 536.88 302.58 741.13 98.34 751.95 98.34 542.29 307.99"/><polygon class="cls-87" points="536.88 302.58 531.47 297.18 730.31 98.34 741.13 98.34 536.88 302.58"/><polygon class="cls-88" points="531.47 297.18 526.06 291.76 719.49 98.34 730.31 98.34 531.47 297.18"/><polygon class="cls-89" points="526.06 291.76 520.65 286.36 708.67 98.34 719.49 98.34 526.06 291.76"/><polygon class="cls-90" points="520.65 286.36 515.25 280.95 697.85 98.34 708.67 98.34 520.65 286.36"/><polygon class="cls-91" points="515.25 280.95 509.84 275.54 687.03 98.34 697.85 98.34 515.25 280.95"/><polygon class="cls-92" points="509.84 275.54 504.43 270.13 676.21 98.34 687.03 98.34 509.84 275.54"/><polygon class="cls-93" points="504.43 270.13 499.02 264.72 665.39 98.34 676.21 98.34 504.43 270.13"/><polygon class="cls-94" points="499.02 264.72 493.61 259.31 654.58 98.34 665.39 98.34 499.02 264.72"/><polygon class="cls-95" points="493.61 259.31 488.2 253.9 643.76 98.34 654.58 98.34 493.61 259.31"/><polygon class="cls-96" points="488.2 253.9 482.79 248.49 632.94 98.34 643.76 98.34 488.2 253.9"/><polygon class="cls-97" points="482.79 248.49 477.38 243.08 622.12 98.34 632.94 98.34 482.79 248.49"/><polygon class="cls-98" points="477.38 243.08 471.97 237.67 611.3 98.34 622.12 98.34 477.38 243.08"/><polygon class="cls-99" points="471.97 237.67 466.56 232.26 600.48 98.34 611.3 98.34 471.97 237.67"/><polygon class="cls-100" points="466.56 232.26 461.15 226.85 589.66 98.34 600.48 98.34 466.56 232.26"/><polygon class="cls-101" points="461.15 226.85 455.74 221.44 578.84 98.34 589.66 98.34 461.15 226.85"/><polygon class="cls-102" points="455.74 221.44 450.33 216.03 568.02 98.34 578.84 98.34 455.74 221.44"/><polygon class="cls-103" points="450.33 216.03 444.92 210.62 557.2 98.34 568.02 98.34 450.33 216.03"/><polygon class="cls-104" points="444.92 210.62 439.51 205.21 546.38 98.34 557.2 98.34 444.92 210.62"/><polygon class="cls-105" points="439.51 205.21 434.1 199.8 535.56 98.34 546.38 98.34 439.51 205.21"/><polygon class="cls-106" points="434.1 199.8 428.69 194.39 524.75 98.34 535.56 98.34 434.1 199.8"/><polygon class="cls-107" points="428.69 194.39 423.28 188.98 513.93 98.34 524.75 98.34 428.69 194.39"/><polygon class="cls-108" points="423.28 188.98 417.87 183.57 503.11 98.34 513.93 98.34 423.28 188.98"/><polygon class="cls-109" points="417.87 183.57 412.46 178.16 492.29 98.34 503.11 98.34 417.87 183.57"/><polygon class="cls-110" points="412.46 178.16 407.05 172.75 481.47 98.34 492.29 98.34 412.46 178.16"/><polygon class="cls-111" points="407.05 172.75 401.64 167.34 470.65 98.34 481.47 98.34 407.05 172.75"/><polygon class="cls-112" points="401.64 167.34 396.24 161.94 459.83 98.34 470.65 98.34 401.64 167.34"/><polygon class="cls-113" points="396.24 161.94 390.82 156.53 449.01 98.34 459.83 98.34 396.24 161.94"/><polygon class="cls-114" points="390.82 156.53 385.42 151.12 438.19 98.34 449.01 98.34 390.82 156.53"/><polygon class="cls-115" points="385.42 151.12 380.01 145.71 427.37 98.34 438.19 98.34 385.42 151.12"/><polygon class="cls-116" points="380.01 145.71 375.37 141.07 375.37 139.53 416.55 98.34 427.37 98.34 380.01 145.71"/><polygon class="cls-117" points="375.37 128.71 405.74 98.34 416.55 98.34 375.37 139.53 375.37 128.71"/><polygon class="cls-118" points="375.37 117.89 394.92 98.34 405.74 98.34 375.37 128.71 375.37 117.89"/><polygon class="cls-119" points="375.37 107.07 384.1 98.34 394.92 98.34 375.37 117.89 375.37 107.07"/><polygon class="cls-120" points="384.1 98.34 375.37 107.07 375.37 98.34 384.1 98.34"/><rect class="cls-52" x="746.42" y="468.28" width="0.03" height="0.03"/><polygon class="cls-19" points="1096.84 478.33 1105.37 469.8 1105.37 478.33 1096.84 478.33"/><polygon class="cls-20" points="1086.02 478.33 1105.37 458.98 1105.37 469.8 1096.84 478.33 1086.02 478.33"/><polygon class="cls-21" points="1075.2 478.33 1105.37 448.16 1105.37 458.98 1086.02 478.33 1075.2 478.33"/><polygon class="cls-22" points="1064.38 478.33 1105.37 437.34 1105.37 448.16 1075.2 478.33 1064.38 478.33"/><polygon class="cls-23" points="1053.57 478.33 1105.37 426.52 1105.37 437.34 1064.38 478.33 1053.57 478.33"/><polygon class="cls-24" points="1042.75 478.33 1105.37 415.7 1105.37 426.52 1053.57 478.33 1042.75 478.33"/><polygon class="cls-25" points="1031.93 478.33 1105.37 404.88 1105.37 415.7 1042.75 478.33 1031.93 478.33"/><polygon class="cls-26" points="1021.11 478.33 1105.37 394.06 1105.37 404.88 1031.93 478.33 1021.11 478.33"/><polygon class="cls-27" points="1010.29 478.33 1105.37 383.24 1105.37 394.06 1021.11 478.33 1010.29 478.33"/><polygon class="cls-27" points="999.47 478.33 1105.37 372.42 1105.37 383.24 1010.29 478.33 999.47 478.33"/><polygon class="cls-28" points="988.65 478.33 1105.37 361.61 1105.37 372.42 999.47 478.33 988.65 478.33"/><polygon class="cls-29" points="977.83 478.33 1105.37 350.79 1105.37 361.61 988.65 478.33 977.83 478.33"/><polygon class="cls-30" points="967.01 478.33 1105.37 339.97 1105.37 350.79 977.83 478.33 967.01 478.33"/><polygon class="cls-31" points="956.19 478.33 1105.37 329.15 1105.37 339.97 967.01 478.33 956.19 478.33"/><polygon class="cls-32" points="945.38 478.33 1105.37 318.33 1105.37 329.15 956.19 478.33 945.38 478.33"/><polygon class="cls-33" points="934.56 478.33 1105.37 307.51 1105.37 318.33 945.38 478.33 934.56 478.33"/><polygon class="cls-34" points="923.74 478.33 1105.37 296.69 1105.37 307.51 934.56 478.33 923.74 478.33"/><polygon class="cls-35" points="912.92 478.33 1100.88 290.36 1105.37 294.86 1105.37 296.69 923.74 478.33 912.92 478.33"/><polygon class="cls-36" points="902.1 478.33 1095.47 284.95 1100.88 290.36 912.92 478.33 902.1 478.33"/><polygon class="cls-37" points="891.28 478.33 1090.06 279.55 1095.47 284.95 902.1 478.33 891.28 478.33"/><polygon class="cls-38" points="880.46 478.33 1084.65 274.13 1090.06 279.55 891.28 478.33 880.46 478.33"/><polygon class="cls-39" points="869.64 478.33 1079.24 268.73 1084.65 274.13 880.46 478.33 869.64 478.33"/><polygon class="cls-40" points="858.82 478.33 1073.83 263.32 1079.24 268.73 869.64 478.33 858.82 478.33"/><polygon class="cls-41" points="848 478.33 1068.42 257.91 1073.83 263.32 858.82 478.33 848 478.33"/><polygon class="cls-42" points="837.18 478.33 1063.01 252.5 1068.42 257.91 848 478.33 837.18 478.33"/><polygon class="cls-43" points="826.36 478.33 1057.6 247.09 1063.01 252.5 837.18 478.33 826.36 478.33"/><polygon class="cls-44" points="815.54 478.33 1052.19 241.68 1057.6 247.09 826.36 478.33 815.54 478.33"/><polygon class="cls-45" points="804.73 478.33 1046.78 236.27 1052.19 241.68 815.54 478.33 804.73 478.33"/><polygon class="cls-46" points="793.91 478.33 1041.37 230.86 1046.78 236.27 804.73 478.33 793.91 478.33"/><polygon class="cls-47" points="783.09 478.33 1035.96 225.45 1041.37 230.86 793.91 478.33 783.09 478.33"/><polygon class="cls-48" points="772.27 478.33 1030.56 220.04 1035.96 225.45 783.09 478.33 772.27 478.33"/><polygon class="cls-49" points="761.45 478.33 1025.14 214.63 1030.56 220.04 772.27 478.33 761.45 478.33"/><polygon class="cls-50" points="750.63 478.33 1019.74 209.22 1025.14 214.63 761.45 478.33 750.63 478.33"/><polygon class="cls-51" points="739.81 478.33 1014.33 203.81 1019.74 209.22 750.63 478.33 739.81 478.33"/><polygon class="cls-52" points="728.99 478.33 1008.92 198.4 1014.33 203.81 739.81 478.33 728.99 478.33"/><polygon class="cls-53" points="718.17 478.33 1003.51 192.99 1008.92 198.4 728.99 478.33 718.17 478.33"/><polygon class="cls-54" points="709.4 476.28 998.1 187.58 1003.51 192.99 718.17 478.33 709.4 478.33 709.4 476.28"/><polygon class="cls-55" points="709.4 465.46 992.69 182.17 998.1 187.58 709.4 476.28 709.4 465.46"/><polygon class="cls-56" points="709.4 454.64 982.66 181.38 991.89 181.38 992.69 182.17 709.4 465.46 709.4 454.64"/><polygon class="cls-57" points="709.4 443.82 971.85 181.38 982.66 181.38 709.4 454.64 709.4 443.82"/><polygon class="cls-58" points="709.4 433 961.03 181.38 971.85 181.38 709.4 443.82 709.4 433"/><polygon class="cls-59" points="709.4 422.19 950.21 181.38 961.03 181.38 709.4 433 709.4 422.19"/><polygon class="cls-60" points="709.4 411.37 939.39 181.38 950.21 181.38 709.4 422.19 709.4 411.37"/><polygon class="cls-61" points="709.4 400.55 928.57 181.38 939.39 181.38 709.4 411.37 709.4 400.55"/><polygon class="cls-62" points="709.4 389.73 917.75 181.38 928.57 181.38 709.4 400.55 709.4 389.73"/><polygon class="cls-63" points="709.4 378.91 906.93 181.38 917.75 181.38 709.4 389.73 709.4 378.91"/><polygon class="cls-64" points="709.4 368.09 896.11 181.38 906.93 181.38 709.4 378.91 709.4 368.09"/><polygon class="cls-65" points="709.4 357.27 885.29 181.38 896.11 181.38 709.4 368.09 709.4 357.27"/><polygon class="cls-66" points="709.4 346.45 874.47 181.38 885.29 181.38 709.4 357.27 709.4 346.45"/><polygon class="cls-67" points="709.4 335.63 863.65 181.38 874.47 181.38 709.4 346.45 709.4 335.63"/><polygon class="cls-68" points="709.4 324.81 852.84 181.38 863.65 181.38 709.4 335.63 709.4 324.81"/><polygon class="cls-69" points="709.4 313.99 842.02 181.38 852.84 181.38 709.4 324.81 709.4 313.99"/><polygon class="cls-70" points="709.4 303.18 831.2 181.38 842.02 181.38 709.4 313.99 709.4 303.18"/><polygon class="cls-71" points="709.4 292.36 820.38 181.38 831.2 181.38 709.4 303.18 709.4 292.36"/><polygon class="cls-72" points="709.4 281.54 809.56 181.38 820.38 181.38 709.4 292.36 709.4 281.54"/><polygon class="cls-73" points="709.4 270.72 798.74 181.38 809.56 181.38 709.4 281.54 709.4 270.72"/><polygon class="cls-74" points="709.4 259.9 787.92 181.38 798.74 181.38 709.4 270.72 709.4 259.9"/><polygon class="cls-75" points="709.4 249.08 777.1 181.38 787.92 181.38 709.4 259.9 709.4 249.08"/><polygon class="cls-76" points="709.4 238.26 766.28 181.38 777.1 181.38 709.4 249.08 709.4 238.26"/><polygon class="cls-77" points="709.4 227.44 755.46 181.38 766.28 181.38 709.4 238.26 709.4 227.44"/><polygon class="cls-78" points="709.4 216.62 744.64 181.38 755.46 181.38 709.4 227.44 709.4 216.62"/><polygon class="cls-79" points="709.4 205.8 733.83 181.38 744.64 181.38 709.4 216.62 709.4 205.8"/><polygon class="cls-80" points="709.4 194.98 723 181.38 733.83 181.38 709.4 205.8 709.4 194.98"/><polygon class="cls-81" points="709.4 184.16 712.19 181.38 723 181.38 709.4 194.98 709.4 184.16"/><polygon class="cls-82" points="712.19 181.38 709.4 184.16 709.4 181.38 712.19 181.38"/><polygon class="cls-65" points="588.34 478.33 595.6 471.07 595.6 478.33 588.34 478.33"/><polygon class="cls-66" points="577.52 478.33 595.6 460.25 595.6 471.07 588.34 478.33 577.52 478.33"/><polygon class="cls-67" points="566.71 478.33 595.6 449.43 595.6 460.25 577.52 478.33 566.71 478.33"/><polygon class="cls-68" points="555.89 478.33 595.6 438.62 595.6 449.43 566.71 478.33 555.89 478.33"/><polygon class="cls-69" points="545.07 478.33 593.86 429.54 595.6 431.28 595.6 438.62 555.89 478.33 545.07 478.33"/><polygon class="cls-70" points="534.25 478.33 588.45 424.13 593.86 429.54 545.07 478.33 534.25 478.33"/><polygon class="cls-71" points="523.43 478.33 583.04 418.72 588.45 424.13 534.25 478.33 523.43 478.33"/><polygon class="cls-72" points="512.61 478.33 577.63 413.31 583.04 418.72 523.43 478.33 512.61 478.33"/><polygon class="cls-73" points="501.79 478.33 572.22 407.9 577.63 413.31 512.61 478.33 501.79 478.33"/><polygon class="cls-74" points="490.97 478.33 566.81 402.49 572.22 407.9 501.79 478.33 490.97 478.33"/><polygon class="cls-75" points="480.15 478.33 561.4 397.08 566.81 402.49 490.97 478.33 480.15 478.33"/><polygon class="cls-76" points="469.33 478.33 555.99 391.67 561.4 397.08 480.15 478.33 469.33 478.33"/><polygon class="cls-77" points="458.51 478.33 550.58 386.26 555.99 391.67 469.33 478.33 458.51 478.33"/><polygon class="cls-78" points="447.69 478.33 545.17 380.85 550.58 386.26 458.51 478.33 447.69 478.33"/><polygon class="cls-79" points="436.88 478.33 539.76 375.44 545.17 380.85 447.69 478.33 436.88 478.33"/><polygon class="cls-80" points="426.06 478.33 534.35 370.03 539.76 375.44 436.88 478.33 426.06 478.33"/><polygon class="cls-81" points="415.24 478.33 528.94 364.62 534.35 370.03 426.06 478.33 415.24 478.33"/><polygon class="cls-82" points="404.42 478.33 523.53 359.21 528.94 364.62 415.24 478.33 404.42 478.33"/><polygon class="cls-83" points="393.6 478.33 518.12 353.8 523.53 359.21 404.42 478.33 393.6 478.33"/><polygon class="cls-84" points="382.78 478.33 512.71 348.39 518.12 353.8 393.6 478.33 382.78 478.33"/><polygon class="cls-85" points="371.96 478.33 507.3 342.98 512.71 348.39 382.78 478.33 371.96 478.33"/><polygon class="cls-86" points="361.14 478.33 501.89 337.57 507.3 342.98 371.96 478.33 361.14 478.33"/><polygon class="cls-87" points="350.32 478.33 496.48 332.17 501.89 337.57 361.14 478.33 350.32 478.33"/><polygon class="cls-88" points="339.5 478.33 491.07 326.75 496.48 332.17 350.32 478.33 339.5 478.33"/><polygon class="cls-89" points="328.68 478.33 485.67 321.35 491.07 326.75 339.5 478.33 328.68 478.33"/><polygon class="cls-90" points="317.87 478.33 480.25 315.94 485.67 321.35 328.68 478.33 317.87 478.33"/><polygon class="cls-91" points="307.05 478.33 474.85 310.53 480.25 315.94 317.87 478.33 307.05 478.33"/><polygon class="cls-92" points="296.23 478.33 469.44 305.12 474.85 310.53 307.05 478.33 296.23 478.33"/><polygon class="cls-93" points="285.41 478.33 464.03 299.71 469.44 305.12 296.23 478.33 285.41 478.33"/><polygon class="cls-94" points="274.59 478.33 458.62 294.3 464.03 299.71 285.41 478.33 274.59 478.33"/><polygon class="cls-95" points="263.77 478.33 453.21 288.89 458.62 294.3 274.59 478.33 263.77 478.33"/><polygon class="cls-96" points="252.95 478.33 447.8 283.48 453.21 288.89 263.77 478.33 252.95 478.33"/><polygon class="cls-97" points="242.13 478.33 442.39 278.07 447.8 283.48 252.95 478.33 242.13 478.33"/><polygon class="cls-98" points="231.31 478.33 436.98 272.66 442.39 278.07 242.13 478.33 231.31 478.33"/><polygon class="cls-99" points="220.49 478.33 431.57 267.25 436.98 272.66 231.31 478.33 220.49 478.33"/><polygon class="cls-100" points="211.34 478.33 210.51 477.49 426.16 261.84 431.57 267.25 220.49 478.33 211.34 478.33"/><polygon class="cls-101" points="210.51 477.49 205.34 472.33 205.34 471.84 420.75 256.43 426.16 261.84 210.51 477.49"/><polygon class="cls-102" points="205.34 461.02 415.34 251.02 420.75 256.43 205.34 471.84 205.34 461.02"/><polygon class="cls-103" points="205.34 450.2 409.93 245.61 415.34 251.02 205.34 461.02 205.34 450.2"/><polygon class="cls-104" points="205.34 439.38 404.52 240.2 409.93 245.61 205.34 450.2 205.34 439.38"/><polygon class="cls-105" points="205.34 428.56 399.11 234.79 404.52 240.2 205.34 439.38 205.34 428.56"/><polygon class="cls-106" points="205.34 417.74 393.7 229.38 399.11 234.79 205.34 428.56 205.34 417.74"/><polygon class="cls-107" points="205.34 406.92 388.29 223.97 393.7 229.38 205.34 417.74 205.34 406.92"/><polygon class="cls-108" points="205.34 396.1 382.88 218.56 388.29 223.97 205.34 406.92 205.34 396.1"/><polygon class="cls-109" points="205.34 385.28 377.47 213.15 382.88 218.56 205.34 396.1 205.34 385.28"/><polygon class="cls-110" points="205.34 374.46 372.06 207.75 377.47 213.15 205.34 385.28 205.34 374.46"/><polygon class="cls-111" points="205.34 363.64 366.65 202.34 372.06 207.75 205.34 374.46 205.34 363.64"/><polygon class="cls-112" points="205.34 352.83 361.25 196.93 366.65 202.34 205.34 363.64 205.34 352.83"/><polygon class="cls-113" points="205.34 342.01 355.83 191.52 361.25 196.93 205.34 352.83 205.34 342.01"/><polygon class="cls-114" points="205.34 331.19 350.43 186.11 355.83 191.52 205.34 342.01 205.34 331.19"/><polygon class="cls-115" points="205.34 320.37 344.34 181.38 345.7 181.38 350.43 186.11 205.34 331.19 205.34 320.37"/><polygon class="cls-116" points="205.34 309.55 333.52 181.38 344.34 181.38 205.34 320.37 205.34 309.55"/><polygon class="cls-117" points="205.34 298.73 322.7 181.38 333.52 181.38 205.34 309.55 205.34 298.73"/><polygon class="cls-118" points="205.34 287.91 311.88 181.38 322.7 181.38 205.34 298.73 205.34 287.91"/><polygon class="cls-119" points="205.34 277.09 301.06 181.38 311.88 181.38 205.34 287.91 205.34 277.09"/><polygon class="cls-120" points="205.34 266.27 290.24 181.38 301.06 181.38 205.34 277.09 205.34 266.27"/><polygon class="cls-121" points="205.34 255.45 279.42 181.38 290.24 181.38 205.34 266.27 205.34 255.45"/><polygon class="cls-122" points="205.34 244.63 268.6 181.38 279.42 181.38 205.34 255.45 205.34 244.63"/><polygon class="cls-123" points="205.34 233.81 257.78 181.38 268.6 181.38 205.34 244.63 205.34 233.81"/><polygon class="cls-124" points="205.34 223 246.96 181.38 257.78 181.38 205.34 233.81 205.34 223"/><polygon class="cls-125" points="205.34 212.18 236.15 181.38 246.96 181.38 205.34 223 205.34 212.18"/><polygon class="cls-126" points="205.34 201.36 225.32 181.38 236.15 181.38 205.34 212.18 205.34 201.36"/><polygon class="cls-127" points="205.34 190.54 214.51 181.38 225.32 181.38 205.34 201.36 205.34 190.54"/><polygon class="cls-128" points="214.51 181.38 205.34 190.54 205.34 181.38 214.51 181.38"/></g></svg>