<svg id="Layer_1" data-name="Layer 1" xmlns="http://www.w3.org/2000/svg" xmlns:xlink="http://www.w3.org/1999/xlink" viewBox="0 0 1296.56 1260.77"><defs><style>.cls-1{fill:none;}.cls-2{clip-path:url(#clip-path);}.cls-3{fill:#24556f;}.cls-4{fill:#245670;}.cls-5{fill:#255670;}.cls-6{fill:#255771;}.cls-7{fill:#265771;}.cls-8{fill:#265872;}.cls-9{fill:#275873;}.cls-10{fill:#285973;}.cls-11{fill:#295a74;}.cls-12{fill:#2a5b75;}.cls-13{fill:#2b5b75;}.cls-14{fill:#2c5c76;}.cls-15{fill:#2d5d77;}.cls-16{fill:#2e5d78;}.cls-17{fill:#2e5e78;}.cls-18{fill:#2f5f79;}.cls-19{fill:#305f79;}.cls-20{fill:#30607a;}.cls-21{fill:#31607b;}.cls-22{fill:#32617b;}.cls-23{fill:#32617c;}.cls-24{fill:#33627c;}.cls-25{fill:#34637d;}.cls-26{fill:#35647e;}.cls-27{fill:#36647f;}.cls-28{fill:#36657f;}.cls-29{fill:#376680;}.cls-30{fill:#386681;}.cls-31{fill:#386781;}.cls-32{fill:#396882;}.cls-33{fill:#3a6882;}.cls-34{fill:#3a6983;}.cls-35{fill:#3b6984;}.cls-36{fill:#3c6a84;}.cls-37{fill:#3c6b85;}.cls-38{fill:#3d6b86;}.cls-39{fill:#3d6c86;}.cls-40{fill:#3e6c87;}.cls-41{fill:#3f6d88;}.cls-42{fill:#3f6e88;}.cls-43{fill:#406e89;}.cls-44{fill:#416f89;}.cls-45{fill:#41708a;}.cls-46{fill:#42708b;}.cls-47{fill:#43718b;}.cls-48{fill:#43728c;}.cls-49{fill:#44728d;}.cls-50{fill:#45738d;}.cls-51{fill:#45748e;}.cls-52{fill:#46748f;}.cls-53{fill:#47758f;}.cls-54{fill:#477690;}.cls-55{fill:#487791;}.cls-56{fill:#497792;}.cls-57{fill:#4a7892;}.cls-58{fill:#4a7993;}.cls-59{fill:#4b7994;}.cls-60{fill:#4c7a94;}.cls-61{fill:#4c7b95;}.cls-62{fill:#4d7c96;}.cls-63{fill:#4e7c97;}.cls-64{fill:#4e7d97;}.cls-65{fill:#4f7e98;}.cls-66{fill:#507f99;}.cls-67{fill:#507f9a;}.cls-68{fill:#51809a;}.cls-69{fill:#52819b;}.cls-70{fill:#52829c;}.cls-71{fill:#53829d;}.cls-72{fill:#54839e;}.cls-73{fill:#55849e;}.cls-74{fill:#55859f;}.cls-75{fill:#5686a0;}.cls-76{fill:#5786a1;}.cls-77{fill:#5887a2;}.cls-78{fill:#5888a3;}.cls-79{fill:#5989a3;}.cls-80{fill:#5a8aa4;}.cls-81{fill:#5a8ba5;}.cls-82{fill:#5b8ba6;}.cls-83{fill:#5c8ca7;}.cls-84{fill:#5d8da7;}.cls-85{fill:#5d8ea8;}.cls-86{fill:#5e8fa9;}.cls-87{fill:#5f8faa;}.cls-88{fill:#5f90ab;}.cls-89{fill:#6091ac;}.cls-90{fill:#6192ac;}.cls-91{fill:#6293ad;}.cls-92{fill:#6294ae;}.cls-93{fill:#6395af;}.cls-94{fill:#6495b0;}.cls-95{fill:#6596b1;}.cls-96{fill:#6597b2;}.cls-97{fill:#6698b2;}.cls-98{fill:#6799b3;}.cls-99{fill:#689ab4;}.cls-100{fill:#689bb5;}.cls-101{fill:#699cb6;}.cls-102{fill:#6a9db7;}.cls-103{fill:#6b9db8;}.cls-104{fill:#6c9eb9;}.cls-105{fill:#6c9fba;}.cls-106{fill:#6da0ba;}.cls-107{fill:#6ea1bb;}.cls-108{fill:#6fa2bc;}.cls-109{fill:#6fa3bd;}.cls-110{fill:#70a4be;}.cls-111{fill:#71a5bf;}.cls-112{fill:#72a6c0;}.cls-113{fill:#73a7c1;}.cls-114{fill:#73a7c2;}.cls-115{fill:#74a8c2;}.cls-116{fill:#75a9c3;}.cls-117{fill:#76aac4;}.cls-118{fill:#76abc5;}.cls-119{fill:#77acc6;}.cls-120{fill:#78adc7;}.cls-121{fill:#79aec8;}.cls-122{fill:#7aafc9;}.cls-123{fill:#7bb0ca;}.cls-124{fill:#7bb1cb;}.cls-125{fill:#7cb2cc;}.cls-126{fill:#7db3cd;}.cls-127{fill:#7eb4ce;}.cls-128{fill:#7fb6cf;}.cls-129{fill:#80b7d0;}.cls-130{fill:#81b8d2;}.cls-131{fill:#82b9d3;}.cls-132{fill:#82bad4;}.cls-133{fill:#83bbd5;}.cls-134{fill:#84bcd6;}.cls-135{fill:#85bdd7;}.cls-136{fill:#86bfd9;}.cls-137{fill:#87c0da;}.cls-138{fill:#525657;}</style><clipPath id="clip-path"><path class="cls-1" d="M578.25,478.32H233.66l-21.74-40.45H537.19L309.3,210l28.6-28.6L594.83,438.31a23.44,23.44,0,0,1-16.58,40Zm534.85-40.45H784.81L1012.7,210l-28.6-28.6L725.79,439.69a22.62,22.62,0,0,0,16,38.63h345.45ZM754.37,468.3l0,0Zm-65.15-93.18L937.08,127.25l-27-27L662.24,348.13a1.52,1.52,0,0,1-2.14,0L410.3,98.34l-27,27,249.8,249.8a39.71,39.71,0,0,0,56.1,0Zm-26.7,379.55L789.38,627.81a2.16,2.16,0,0,0,0-3L662.52,497.91a2.16,2.16,0,0,0-3,0L532.62,624.76a2.14,2.14,0,0,0,0,3L659.47,754.67A2.16,2.16,0,0,0,662.52,754.67ZM216.13,626.27l237.79-4.06,68.78-67.4-307.83,4.06A21.32,21.32,0,0,1,196.41,549L98.05,394.09a21.35,21.35,0,0,1,.5-23.68L329.36,38.49,274,0,43.2,331.92a88.61,88.61,0,0,0-2.06,98.31L139.5,585.09a89.35,89.35,0,0,0,75,41.2ZM1179,585.09l98.35-154.85a88.61,88.61,0,0,0-2-98.32L1044.48,0,989.13,38.49l230.8,331.92a21.33,21.33,0,0,1,.49,23.68L1122.07,549a21.42,21.42,0,0,1-18.46,9.92l-306.19-4.06,63.39,67.4,241.54,4.06,1.63,0A89.35,89.35,0,0,0,1179,585.09ZM211.92,437.87"/></clipPath></defs><g class="cls-2"><polygon class="cls-3" points="1140.75 626.29 1296.57 470.48 1296.57 626.29 1140.75 626.29"/><polygon class="cls-3" points="1129.93 626.29 1296.57 459.66 1296.57 470.48 1140.75 626.29 1129.93 626.29"/><polygon class="cls-4" points="1119.12 626.29 1296.57 448.84 1296.57 459.66 1129.93 626.29 1119.12 626.29"/><polygon class="cls-5" points="1108.3 626.29 1296.57 438.02 1296.57 448.84 1119.12 626.29 1108.3 626.29"/><polygon class="cls-6" points="1097.48 626.29 1296.57 427.2 1296.57 438.02 1108.3 626.29 1097.48 626.29"/><polygon class="cls-7" points="1086.66 626.29 1296.57 416.38 1296.57 427.2 1097.48 626.29 1086.66 626.29"/><polygon class="cls-8" points="1075.84 626.29 1296.57 405.56 1296.57 416.38 1086.66 626.29 1075.84 626.29"/><polygon class="cls-9" points="1065.02 626.29 1296.57 394.74 1296.57 405.56 1075.84 626.29 1065.02 626.29"/><polygon class="cls-10" points="1054.2 626.29 1296.57 383.93 1296.57 394.74 1065.02 626.29 1054.2 626.29"/><polygon class="cls-11" points="1043.38 626.29 1296.57 373.11 1296.57 383.93 1054.2 626.29 1043.38 626.29"/><polygon class="cls-11" points="1032.56 626.29 1296.57 362.29 1296.57 373.11 1043.38 626.29 1032.56 626.29"/><polygon class="cls-12" points="1021.74 626.29 1296.57 351.47 1296.57 362.29 1032.56 626.29 1021.74 626.29"/><polygon class="cls-13" points="1010.92 626.29 1296.57 340.65 1296.57 351.47 1021.74 626.29 1010.92 626.29"/><polygon class="cls-14" points="1000.11 626.29 1296.57 329.83 1296.57 340.65 1010.92 626.29 1000.11 626.29"/><polygon class="cls-14" points="989.29 626.29 1296.57 319.01 1296.57 329.83 1000.11 626.29 989.29 626.29"/><polygon class="cls-15" points="978.47 626.29 1296.57 308.19 1296.57 319.01 989.29 626.29 978.47 626.29"/><polygon class="cls-16" points="967.65 626.29 1296.57 297.37 1296.57 308.19 978.47 626.29 967.65 626.29"/><polygon class="cls-17" points="956.83 626.29 1296.57 286.55 1296.57 297.37 967.65 626.29 956.83 626.29"/><polygon class="cls-18" points="946.01 626.29 1296.57 275.73 1296.57 286.55 956.83 626.29 946.01 626.29"/><polygon class="cls-19" points="935.19 626.29 1296.57 264.92 1296.57 275.73 946.01 626.29 935.19 626.29"/><polygon class="cls-20" points="924.37 626.29 1296.57 254.1 1296.57 264.92 935.19 626.29 924.37 626.29"/><polygon class="cls-21" points="913.55 626.29 1296.57 243.28 1296.57 254.1 924.37 626.29 913.55 626.29"/><polygon class="cls-22" points="902.73 626.29 1294.62 234.4 1296.57 236.35 1296.57 243.28 913.55 626.29 902.73 626.29"/><polygon class="cls-23" points="891.91 626.29 1289.21 228.99 1294.62 234.4 902.73 626.29 891.91 626.29"/><polygon class="cls-24" points="881.1 626.29 1283.8 223.58 1289.21 228.99 891.91 626.29 881.1 626.29"/><polygon class="cls-25" points="870.28 626.29 1278.39 218.17 1283.8 223.58 881.1 626.29 870.28 626.29"/><polygon class="cls-25" points="859.46 626.29 1272.98 212.76 1278.39 218.17 870.28 626.29 859.46 626.29"/><polygon class="cls-26" points="849.15 626.29 848.89 626.03 1267.57 207.35 1272.98 212.76 859.46 626.29 849.15 626.29"/><rect class="cls-27" x="759.48" y="410.16" width="592.1" height="7.65" transform="translate(16.42 867.63) rotate(-45)"/><rect class="cls-28" x="754.07" y="404.75" width="592.1" height="7.65" transform="translate(18.66 862.22) rotate(-45)"/><rect class="cls-29" x="748.66" y="399.34" width="592.1" height="7.65" transform="translate(20.9 856.81) rotate(-45)"/><rect class="cls-30" x="743.25" y="393.94" width="592.1" height="7.65" transform="translate(23.14 851.4) rotate(-45)"/><rect class="cls-31" x="737.84" y="388.53" width="592.1" height="7.65" transform="translate(25.39 845.99) rotate(-45)"/><rect class="cls-32" x="732.43" y="383.12" width="592.1" height="7.65" transform="translate(27.63 840.58) rotate(-45)"/><rect class="cls-33" x="727.02" y="377.71" width="592.1" height="7.65" transform="translate(29.87 835.17) rotate(-45)"/><rect class="cls-34" x="721.61" y="372.3" width="592.1" height="7.65" transform="translate(32.11 829.76) rotate(-45)"/><rect class="cls-35" x="716.2" y="366.89" width="592.1" height="7.65" transform="translate(34.35 824.35) rotate(-45)"/><polygon class="cls-36" points="800.21 577.35 797.41 574.55 797.41 569.32 1213.48 153.26 1218.89 158.67 800.21 577.35"/><polygon class="cls-37" points="797.41 558.5 1208.07 147.85 1213.48 153.26 797.41 569.32 797.41 558.5"/><polygon class="cls-38" points="797.41 547.68 1202.66 142.44 1208.07 147.85 797.41 558.5 797.41 547.68"/><polygon class="cls-39" points="797.41 536.86 1197.25 137.03 1202.66 142.44 797.41 547.68 797.41 536.86"/><polygon class="cls-40" points="797.41 526.04 1191.84 131.62 1197.25 137.03 797.41 536.86 797.41 526.04"/><polygon class="cls-41" points="797.41 515.23 1186.43 126.21 1191.84 131.62 797.41 526.04 797.41 515.23"/><polygon class="cls-42" points="797.41 504.41 1181.02 120.8 1186.43 126.21 797.41 515.23 797.41 504.41"/><polygon class="cls-43" points="797.41 493.59 1175.61 115.39 1181.02 120.8 797.41 504.41 797.41 493.59"/><polygon class="cls-44" points="797.41 482.77 1170.2 109.98 1175.61 115.39 797.41 493.59 797.41 482.77"/><polygon class="cls-45" points="797.41 471.95 1164.79 104.57 1170.2 109.98 797.41 482.77 797.41 471.95"/><polygon class="cls-46" points="797.41 461.13 1159.38 99.16 1164.79 104.57 797.41 471.95 797.41 461.13"/><polygon class="cls-47" points="797.41 450.31 1153.97 93.75 1159.38 99.16 797.41 461.13 797.41 450.31"/><polygon class="cls-48" points="797.41 439.49 1148.56 88.34 1153.97 93.75 797.41 450.31 797.41 439.49"/><polygon class="cls-49" points="797.41 428.67 1143.15 82.94 1148.56 88.34 797.41 439.49 797.41 428.67"/><polygon class="cls-50" points="797.41 417.85 1137.74 77.53 1143.15 82.94 797.41 428.67 797.41 417.85"/><polygon class="cls-51" points="797.41 407.03 1132.33 72.12 1137.74 77.53 797.41 417.85 797.41 407.03"/><polygon class="cls-52" points="797.41 396.21 1126.92 66.71 1132.33 72.12 797.41 407.03 797.41 396.21"/><polygon class="cls-53" points="797.41 385.4 1121.51 61.3 1126.92 66.71 797.41 396.21 797.41 385.4"/><polygon class="cls-54" points="797.41 374.58 1116.1 55.89 1121.51 61.3 797.41 385.4 797.41 374.58"/><polygon class="cls-55" points="797.41 363.76 1110.69 50.48 1116.1 55.89 797.41 374.58 797.41 363.76"/><polygon class="cls-56" points="797.41 352.94 1105.29 45.07 1110.69 50.48 797.41 363.76 797.41 352.94"/><polygon class="cls-57" points="797.41 342.12 1099.88 39.66 1105.29 45.07 797.41 352.94 797.41 342.12"/><polygon class="cls-58" points="797.41 331.3 1094.47 34.25 1099.88 39.66 797.41 342.12 797.41 331.3"/><polygon class="cls-59" points="797.41 320.48 1089.06 28.84 1094.47 34.25 797.41 331.3 797.41 320.48"/><polygon class="cls-60" points="797.41 309.66 1083.65 23.43 1089.06 28.84 797.41 320.48 797.41 309.66"/><polygon class="cls-61" points="797.41 298.84 1078.24 18.02 1083.65 23.43 797.41 309.66 797.41 298.84"/><polygon class="cls-62" points="797.41 288.02 1072.83 12.61 1078.24 18.02 797.41 298.84 797.41 288.02"/><polygon class="cls-63" points="797.41 277.2 1067.42 7.2 1072.83 12.61 797.41 288.02 797.41 277.2"/><polygon class="cls-64" points="797.41 266.39 1062.01 1.79 1067.42 7.2 797.41 277.2 797.41 266.39"/><polygon class="cls-65" points="797.41 255.57 1052.98 0 1060.22 0 1062.01 1.79 797.41 266.39 797.41 255.57"/><polygon class="cls-66" points="797.41 244.75 1042.16 0 1052.98 0 797.41 255.57 797.41 244.75"/><polygon class="cls-67" points="797.41 233.93 1031.34 0 1042.16 0 797.41 244.75 797.41 233.93"/><polygon class="cls-68" points="797.41 223.11 1020.52 0 1031.34 0 797.41 233.93 797.41 223.11"/><polygon class="cls-69" points="797.41 212.29 1009.71 0 1020.52 0 797.41 223.11 797.41 212.29"/><polygon class="cls-70" points="797.41 201.47 998.89 0 1009.71 0 797.41 212.29 797.41 201.47"/><polygon class="cls-71" points="797.41 190.65 988.07 0 998.89 0 797.41 201.47 797.41 190.65"/><polygon class="cls-72" points="797.41 179.83 977.25 0 988.07 0 797.41 190.65 797.41 179.83"/><polygon class="cls-73" points="797.41 169.01 966.43 0 977.25 0 797.41 179.83 797.41 169.01"/><polygon class="cls-74" points="797.41 158.19 955.61 0 966.43 0 797.41 169.01 797.41 158.19"/><polygon class="cls-75" points="797.41 147.38 944.79 0 955.61 0 797.41 158.19 797.41 147.38"/><polygon class="cls-76" points="797.41 136.56 933.97 0 944.79 0 797.41 147.38 797.41 136.56"/><polygon class="cls-77" points="797.41 125.74 923.15 0 933.97 0 797.41 136.56 797.41 125.74"/><polygon class="cls-78" points="797.41 114.92 912.33 0 923.15 0 797.41 125.74 797.41 114.92"/><polygon class="cls-79" points="797.41 104.1 901.51 0 912.33 0 797.41 114.92 797.41 104.1"/><polygon class="cls-80" points="797.41 93.28 890.7 0 901.51 0 797.41 104.1 797.41 93.28"/><polygon class="cls-81" points="797.41 82.46 879.88 0 890.7 0 797.41 93.28 797.41 82.46"/><polygon class="cls-82" points="797.41 71.64 869.06 0 879.88 0 797.41 82.46 797.41 71.64"/><polygon class="cls-83" points="797.41 60.82 858.24 0 869.06 0 797.41 71.64 797.41 60.82"/><polygon class="cls-84" points="797.41 50 847.42 0 858.24 0 797.41 60.82 797.41 50"/><polygon class="cls-85" points="797.41 39.18 836.6 0 847.42 0 797.41 50 797.41 39.18"/><polygon class="cls-86" points="797.41 28.36 825.78 0 836.6 0 797.41 39.18 797.41 28.36"/><polygon class="cls-87" points="797.41 17.55 814.96 0 825.78 0 797.41 28.36 797.41 17.55"/><polygon class="cls-88" points="797.41 6.73 804.14 0 814.96 0 797.41 17.55 797.41 6.73"/><polygon class="cls-89" points="804.14 0 797.41 6.73 797.41 0 804.14 0"/><polygon class="cls-57" points="513.25 626.29 522.7 616.84 522.7 626.29 513.25 626.29"/><polygon class="cls-58" points="502.43 626.29 522.7 606.02 522.7 616.84 513.25 626.29 502.43 626.29"/><polygon class="cls-59" points="491.61 626.29 522.7 595.2 522.7 606.02 502.43 626.29 491.61 626.29"/><polygon class="cls-60" points="480.79 626.29 522.7 584.38 522.7 595.2 491.61 626.29 480.79 626.29"/><polygon class="cls-61" points="469.97 626.29 522.7 573.56 522.7 584.38 480.79 626.29 469.97 626.29"/><polygon class="cls-62" points="459.15 626.29 522.7 562.74 522.7 573.56 469.97 626.29 459.15 626.29"/><polygon class="cls-63" points="448.33 626.29 522.7 551.92 522.7 562.74 459.15 626.29 448.33 626.29"/><polygon class="cls-64" points="437.51 626.29 522.7 541.11 522.7 551.92 448.33 626.29 437.51 626.29"/><polygon class="cls-65" points="426.69 626.29 522.7 530.29 522.7 541.11 437.51 626.29 426.69 626.29"/><polygon class="cls-66" points="415.87 626.29 522.7 519.47 522.7 530.29 426.69 626.29 415.87 626.29"/><polygon class="cls-67" points="405.06 626.29 522.7 508.65 522.7 519.47 415.87 626.29 405.06 626.29"/><polygon class="cls-68" points="394.24 626.29 522.7 497.83 522.7 508.65 405.06 626.29 394.24 626.29"/><polygon class="cls-69" points="383.42 626.29 522.7 487.01 522.7 497.83 394.24 626.29 383.42 626.29"/><polygon class="cls-70" points="372.6 626.29 522.7 476.19 522.7 487.01 383.42 626.29 372.6 626.29"/><polygon class="cls-71" points="361.78 626.29 522.7 465.37 522.7 476.19 372.6 626.29 361.78 626.29"/><polygon class="cls-72" points="350.96 626.29 522.7 454.55 522.7 465.37 361.78 626.29 350.96 626.29"/><polygon class="cls-73" points="340.14 626.29 522.7 443.73 522.7 454.55 350.96 626.29 340.14 626.29"/><polygon class="cls-74" points="329.32 626.29 522.7 432.91 522.7 443.73 340.14 626.29 329.32 626.29"/><polygon class="cls-75" points="318.5 626.29 522.7 422.1 522.7 432.91 329.32 626.29 318.5 626.29"/><polygon class="cls-76" points="307.68 626.29 522.7 411.27 522.7 422.1 318.5 626.29 307.68 626.29"/><polygon class="cls-77" points="296.86 626.29 522.7 400.46 522.7 411.27 307.68 626.29 296.86 626.29"/><polygon class="cls-78" points="286.04 626.29 522.7 389.64 522.7 400.46 296.86 626.29 286.04 626.29"/><polygon class="cls-79" points="275.23 626.29 522.7 378.82 522.7 389.64 286.04 626.29 275.23 626.29"/><polygon class="cls-80" points="264.41 626.29 522.7 368 522.7 378.82 275.23 626.29 264.41 626.29"/><polygon class="cls-81" points="253.59 626.29 522.7 357.18 522.7 368 264.41 626.29 253.59 626.29"/><polygon class="cls-82" points="242.77 626.29 522.7 346.36 522.7 357.18 253.59 626.29 242.77 626.29"/><polygon class="cls-83" points="231.95 626.29 522.7 335.54 522.7 346.36 242.77 626.29 231.95 626.29"/><polygon class="cls-84" points="221.13 626.29 522.7 324.72 522.7 335.54 231.95 626.29 221.13 626.29"/><polygon class="cls-85" points="210.31 626.29 522.7 313.9 522.7 324.72 221.13 626.29 210.31 626.29"/><polygon class="cls-86" points="199.49 626.29 522.7 303.08 522.7 313.9 210.31 626.29 199.49 626.29"/><polygon class="cls-87" points="188.67 626.29 522.7 292.26 522.7 303.08 199.49 626.29 188.67 626.29"/><polygon class="cls-88" points="177.85 626.29 522.7 281.45 522.7 292.26 188.67 626.29 177.85 626.29"/><polygon class="cls-89" points="167.03 626.29 522.7 270.63 522.7 281.45 177.85 626.29 167.03 626.29"/><polygon class="cls-90" points="156.22 626.29 522.7 259.81 522.7 270.63 167.03 626.29 156.22 626.29"/><polygon class="cls-91" points="155.64 626.29 150.52 621.16 522.7 248.99 522.7 259.81 156.22 626.29 155.64 626.29"/><polygon class="cls-92" points="150.52 621.16 145.11 615.76 522.7 238.17 522.7 248.99 150.52 621.16"/><polygon class="cls-93" points="145.11 615.76 139.7 610.35 522.7 227.35 522.7 238.17 145.11 615.76"/><polygon class="cls-94" points="139.7 610.35 134.29 604.94 522.7 216.53 522.7 227.35 139.7 610.35"/><polygon class="cls-95" points="134.29 604.94 128.88 599.53 517.51 210.9 522.7 216.09 522.7 216.53 134.29 604.94"/><rect class="cls-96" x="45.69" y="398.68" width="549.6" height="7.65" transform="translate(-190.75 344.51) rotate(-45)"/><rect class="cls-97" x="40.28" y="393.27" width="549.6" height="7.65" transform="translate(-188.51 339.1) rotate(-45)"/><rect class="cls-98" x="34.87" y="387.86" width="549.6" height="7.65" transform="translate(-186.27 333.69) rotate(-45)"/><rect class="cls-99" x="29.46" y="382.45" width="549.6" height="7.65" transform="translate(-184.03 328.28) rotate(-45)"/><rect class="cls-100" x="24.05" y="377.05" width="549.6" height="7.65" transform="translate(-181.78 322.87) rotate(-45)"/><rect class="cls-101" x="18.64" y="371.64" width="549.6" height="7.65" transform="translate(-179.54 317.46) rotate(-45)"/><rect class="cls-102" x="13.23" y="366.23" width="549.6" height="7.65" transform="translate(-177.3 312.06) rotate(-45)"/><rect class="cls-103" x="7.82" y="360.82" width="549.6" height="7.65" transform="translate(-175.06 306.65) rotate(-45)"/><rect class="cls-104" x="2.41" y="355.41" width="549.6" height="7.65" transform="translate(-172.82 301.24) rotate(-45)"/><rect class="cls-105" x="-3" y="350" width="549.6" height="7.65" transform="translate(-170.58 295.83) rotate(-45)"/><rect class="cls-106" x="-8.41" y="344.59" width="549.6" height="7.65" transform="translate(-168.34 290.42) rotate(-45)"/><rect class="cls-107" x="-13.82" y="339.18" width="549.6" height="7.65" transform="translate(-166.1 285.01) rotate(-45)"/><rect class="cls-108" x="-19.23" y="333.77" width="549.6" height="7.65" transform="translate(-163.86 279.6) rotate(-45)"/><rect class="cls-109" x="-24.63" y="328.36" width="549.6" height="7.65" transform="translate(-161.62 274.19) rotate(-45)"/><rect class="cls-110" x="-30.04" y="322.95" width="549.6" height="7.65" transform="translate(-159.38 268.78) rotate(-45)"/><rect class="cls-111" x="-35.45" y="317.54" width="549.6" height="7.65" transform="translate(-157.14 263.37) rotate(-45)"/><rect class="cls-112" x="-40.86" y="312.13" width="549.6" height="7.65" transform="translate(-154.9 257.96) rotate(-45)"/><rect class="cls-113" x="-46.27" y="306.72" width="549.6" height="7.65" transform="translate(-152.66 252.55) rotate(-45)"/><rect class="cls-114" x="-51.68" y="301.31" width="549.6" height="7.65" transform="translate(-150.41 247.14) rotate(-45)"/><polygon class="cls-115" points="26.1 496.75 21.92 492.56 21.92 490.11 409.32 102.71 414.73 108.12 26.1 496.75"/><polygon class="cls-116" points="21.92 479.29 403.91 97.3 409.32 102.71 21.92 490.11 21.92 479.29"/><polygon class="cls-117" points="21.92 468.47 398.5 91.89 403.91 97.3 21.92 479.29 21.92 468.47"/><polygon class="cls-118" points="21.92 457.65 393.09 86.48 398.5 91.89 21.92 468.47 21.92 457.65"/><polygon class="cls-119" points="21.92 446.83 387.68 81.07 393.09 86.48 21.92 457.65 21.92 446.83"/><polygon class="cls-120" points="21.92 436.01 382.27 75.66 387.68 81.07 21.92 446.83 21.92 436.01"/><polygon class="cls-121" points="21.92 425.19 376.86 70.25 382.27 75.66 21.92 436.01 21.92 425.19"/><polygon class="cls-122" points="21.92 414.38 371.45 64.84 376.86 70.25 21.92 425.19 21.92 414.38"/><polygon class="cls-123" points="21.92 403.56 366.04 59.43 371.45 64.84 21.92 414.38 21.92 403.56"/><polygon class="cls-124" points="21.92 392.74 360.63 54.02 366.04 59.43 21.92 403.56 21.92 392.74"/><polygon class="cls-125" points="21.92 381.92 355.22 48.61 360.63 54.02 21.92 392.74 21.92 381.92"/><polygon class="cls-126" points="21.92 371.1 349.81 43.2 355.22 48.61 21.92 381.92 21.92 371.1"/><polygon class="cls-127" points="21.92 360.28 344.4 37.79 349.81 43.2 21.92 371.1 21.92 360.28"/><polygon class="cls-128" points="21.92 349.46 338.99 32.38 344.4 37.79 21.92 360.28 21.92 349.46"/><polygon class="cls-129" points="21.92 338.64 333.58 26.98 338.99 32.38 21.92 349.46 21.92 338.64"/><polygon class="cls-130" points="21.92 327.82 328.17 21.57 333.58 26.98 21.92 338.64 21.92 327.82"/><polygon class="cls-131" points="21.92 317 322.76 16.16 328.17 21.57 21.92 327.82 21.92 317"/><polygon class="cls-132" points="21.92 306.19 317.36 10.75 322.76 16.16 21.92 317 21.92 306.19"/><polygon class="cls-133" points="21.92 295.37 311.94 5.34 317.36 10.75 21.92 306.19 21.92 295.37"/><polygon class="cls-134" points="21.92 284.55 306.46 0 306.61 0 311.94 5.34 21.92 295.37 21.92 284.55"/><polygon class="cls-135" points="21.92 273.73 295.64 0 306.46 0 21.92 284.55 21.92 273.73"/><polygon class="cls-136" points="21.92 262.91 284.82 0 295.64 0 21.92 273.73 21.92 262.91"/><polygon class="cls-137" points="21.92 252.09 274.01 0 284.82 0 21.92 262.91 21.92 252.09"/><polygon class="cls-137" points="274.01 0 21.92 252.09 21.92 0 274.01 0"/><polygon class="cls-22" points="776.63 752.4 787.11 741.92 787.11 752.4 776.63 752.4"/><polygon class="cls-23" points="765.81 752.4 787.11 731.1 787.11 741.92 776.63 752.4 765.81 752.4"/><polygon class="cls-24" points="754.99 752.4 787.11 720.28 787.11 731.1 765.81 752.4 754.99 752.4"/><polygon class="cls-25" points="744.17 752.4 787.11 709.46 787.11 720.28 754.99 752.4 744.17 752.4"/><polygon class="cls-25" points="733.35 752.4 787.11 698.64 787.11 709.46 744.17 752.4 733.35 752.4"/><polygon class="cls-26" points="722.53 752.4 787.11 687.82 787.11 698.64 733.35 752.4 722.53 752.4"/><polygon class="cls-27" points="711.71 752.4 787.11 677 787.11 687.82 722.53 752.4 711.71 752.4"/><polygon class="cls-28" points="700.89 752.4 787.11 666.18 787.11 677 711.71 752.4 700.89 752.4"/><polygon class="cls-29" points="690.07 752.4 787.11 655.36 787.11 666.18 700.89 752.4 690.07 752.4"/><polygon class="cls-30" points="679.25 752.4 787.11 644.54 787.11 655.36 690.07 752.4 679.25 752.4"/><polygon class="cls-31" points="668.43 752.4 787.11 633.73 787.11 644.54 679.25 752.4 668.43 752.4"/><polygon class="cls-32" points="657.62 752.4 787.11 622.91 787.11 633.73 668.43 752.4 657.62 752.4"/><polygon class="cls-33" points="646.8 752.4 787.11 612.09 787.11 622.91 657.62 752.4 646.8 752.4"/><polygon class="cls-34" points="641.46 752.4 638.72 749.66 784.37 604.01 787.11 606.75 787.11 612.09 646.8 752.4 641.46 752.4"/><rect class="cls-35" x="605.85" y="670.3" width="205.98" height="7.65" transform="translate(-269.07 698.67) rotate(-45)"/><rect class="cls-36" x="600.44" y="664.89" width="205.98" height="7.65" transform="translate(-266.83 693.26) rotate(-45)"/><rect class="cls-37" x="595.03" y="659.48" width="205.98" height="7.65" transform="translate(-264.59 687.85) rotate(-45)"/><rect class="cls-38" x="589.62" y="654.07" width="205.98" height="7.65" transform="translate(-262.34 682.44) rotate(-45)"/><rect class="cls-39" x="584.21" y="648.66" width="205.98" height="7.65" transform="translate(-260.1 677.03) rotate(-45)"/><rect class="cls-40" x="578.8" y="643.25" width="205.98" height="7.65" transform="translate(-257.86 671.62) rotate(-45)"/><rect class="cls-41" x="573.39" y="637.85" width="205.98" height="7.65" transform="translate(-255.62 666.21) rotate(-45)"/><rect class="cls-42" x="567.98" y="632.44" width="205.98" height="7.65" transform="translate(-253.38 660.8) rotate(-45)"/><rect class="cls-43" x="562.57" y="627.03" width="205.98" height="7.65" transform="translate(-251.14 655.39) rotate(-45)"/><rect class="cls-44" x="557.16" y="621.62" width="205.98" height="7.65" transform="translate(-248.9 649.98) rotate(-45)"/><rect class="cls-45" x="551.75" y="616.21" width="205.98" height="7.65" transform="translate(-246.66 644.57) rotate(-45)"/><rect class="cls-46" x="546.34" y="610.8" width="205.98" height="7.65" transform="translate(-244.42 639.17) rotate(-45)"/><rect class="cls-47" x="540.93" y="605.39" width="205.98" height="7.65" transform="translate(-242.18 633.76) rotate(-45)"/><rect class="cls-48" x="535.52" y="599.98" width="205.98" height="7.65" transform="translate(-239.94 628.35) rotate(-45)"/><rect class="cls-49" x="530.11" y="594.57" width="205.98" height="7.65" transform="translate(-237.7 622.94) rotate(-45)"/><rect class="cls-50" x="524.71" y="589.16" width="205.98" height="7.65" transform="translate(-235.46 617.53) rotate(-45)"/><rect class="cls-51" x="519.3" y="583.75" width="205.98" height="7.65" transform="translate(-233.22 612.12) rotate(-45)"/><rect class="cls-52" x="513.89" y="578.34" width="205.98" height="7.65" transform="translate(-230.97 606.71) rotate(-45)"/><rect class="cls-53" x="508.48" y="572.93" width="205.98" height="7.65" transform="translate(-228.73 601.3) rotate(-45)"/><polygon class="cls-54" points="535.94 646.87 534.89 645.83 534.89 637.1 671.81 500.18 680.54 500.18 681.58 501.23 535.94 646.87"/><polygon class="cls-55" points="534.89 626.28 660.99 500.18 671.81 500.18 534.89 637.1 534.89 626.28"/><polygon class="cls-56" points="534.89 615.46 650.17 500.18 660.99 500.18 534.89 626.28 534.89 615.46"/><polygon class="cls-57" points="534.89 604.64 639.35 500.18 650.17 500.18 534.89 615.46 534.89 604.64"/><polygon class="cls-58" points="534.89 593.83 628.53 500.18 639.35 500.18 534.89 604.64 534.89 593.83"/><polygon class="cls-59" points="534.89 583.01 617.72 500.18 628.53 500.18 534.89 593.83 534.89 583.01"/><polygon class="cls-60" points="534.89 572.19 606.9 500.18 617.72 500.18 534.89 583.01 534.89 572.19"/><polygon class="cls-61" points="534.89 561.37 596.08 500.18 606.9 500.18 534.89 572.19 534.89 561.37"/><polygon class="cls-62" points="534.89 550.55 585.26 500.18 596.08 500.18 534.89 561.37 534.89 550.55"/><polygon class="cls-63" points="534.89 539.73 574.44 500.18 585.26 500.18 534.89 550.55 534.89 539.73"/><polygon class="cls-64" points="534.89 528.91 563.62 500.18 574.44 500.18 534.89 539.73 534.89 528.91"/><polygon class="cls-65" points="534.89 518.09 552.8 500.18 563.62 500.18 534.89 528.91 534.89 518.09"/><polygon class="cls-66" points="534.89 507.27 541.98 500.18 552.8 500.18 534.89 518.09 534.89 507.27"/><polygon class="cls-67" points="541.98 500.18 534.89 507.27 534.89 500.18 541.98 500.18"/><polygon class="cls-40" points="936.74 386.72 937.08 386.38 937.08 386.72 936.74 386.72"/><polygon class="cls-41" points="925.92 386.72 937.08 375.56 937.08 386.38 936.74 386.72 925.92 386.72"/><polygon class="cls-42" points="915.1 386.72 937.08 364.74 937.08 375.56 925.92 386.72 915.1 386.72"/><polygon class="cls-43" points="904.28 386.72 937.08 353.92 937.08 364.74 915.1 386.72 904.28 386.72"/><polygon class="cls-44" points="893.47 386.72 937.08 343.1 937.08 353.92 904.28 386.72 893.47 386.72"/><polygon class="cls-45" points="882.65 386.72 937.08 332.29 937.08 343.1 893.47 386.72 882.65 386.72"/><polygon class="cls-46" points="871.83 386.72 937.08 321.46 937.08 332.29 882.65 386.72 871.83 386.72"/><polygon class="cls-47" points="861.01 386.72 937.08 310.65 937.08 321.46 871.83 386.72 861.01 386.72"/><polygon class="cls-48" points="850.19 386.72 937.08 299.83 937.08 310.65 861.01 386.72 850.19 386.72"/><polygon class="cls-49" points="839.37 386.72 937.08 289.01 937.08 299.83 850.19 386.72 839.37 386.72"/><polygon class="cls-50" points="828.55 386.72 937.08 278.19 937.08 289.01 839.37 386.72 828.55 386.72"/><polygon class="cls-51" points="817.73 386.72 937.08 267.37 937.08 278.19 828.55 386.72 817.73 386.72"/><polygon class="cls-52" points="806.91 386.72 937.08 256.55 937.08 267.37 817.73 386.72 806.91 386.72"/><polygon class="cls-53" points="796.09 386.72 937.08 245.73 937.08 256.55 806.91 386.72 796.09 386.72"/><polygon class="cls-54" points="785.27 386.72 937.08 234.91 937.08 245.73 796.09 386.72 785.27 386.72"/><polygon class="cls-55" points="774.46 386.72 937.08 224.09 937.08 234.91 785.27 386.72 774.46 386.72"/><polygon class="cls-56" points="763.64 386.72 937.08 213.27 937.08 224.09 774.46 386.72 763.64 386.72"/><polygon class="cls-57" points="752.82 386.72 937.08 202.46 937.08 213.27 763.64 386.72 752.82 386.72"/><polygon class="cls-58" points="742 386.72 937.08 191.64 937.08 202.46 752.82 386.72 742 386.72"/><polygon class="cls-59" points="731.18 386.72 937.08 180.82 937.08 191.64 742 386.72 731.18 386.72"/><polygon class="cls-60" points="720.36 386.72 937.08 170 937.08 180.82 731.18 386.72 720.36 386.72"/><polygon class="cls-61" points="709.54 386.72 937.08 159.18 937.08 170 720.36 386.72 709.54 386.72"/><polygon class="cls-62" points="698.72 386.72 937.08 148.36 937.08 159.18 709.54 386.72 698.72 386.72"/><polygon class="cls-63" points="687.9 386.72 937.08 137.54 937.08 148.36 698.72 386.72 687.9 386.72"/><polygon class="cls-64" points="677.08 386.72 937.08 126.72 937.08 137.54 687.9 386.72 677.08 386.72"/><polygon class="cls-65" points="666.26 386.72 937.08 115.9 937.08 126.72 677.08 386.72 666.26 386.72"/><polygon class="cls-66" points="655.45 386.72 933.87 108.3 937.08 111.51 937.08 115.9 666.26 386.72 655.45 386.72"/><polygon class="cls-67" points="644.63 386.72 928.46 102.89 933.87 108.3 655.45 386.72 644.63 386.72"/><polygon class="cls-68" points="633.81 386.72 922.18 98.34 923.91 98.34 928.46 102.89 644.63 386.72 633.81 386.72"/><polygon class="cls-69" points="628.97 386.72 625.98 383.73 911.37 98.34 922.18 98.34 633.81 386.72 628.97 386.72"/><polygon class="cls-70" points="625.98 383.73 620.57 378.32 900.55 98.34 911.37 98.34 625.98 383.73"/><polygon class="cls-71" points="620.57 378.32 615.16 372.91 889.73 98.34 900.55 98.34 620.57 378.32"/><polygon class="cls-72" points="615.16 372.91 609.75 367.5 878.91 98.34 889.73 98.34 615.16 372.91"/><polygon class="cls-73" points="609.75 367.5 604.34 362.09 868.09 98.34 878.91 98.34 609.75 367.5"/><polygon class="cls-74" points="604.34 362.09 598.93 356.68 857.27 98.34 868.09 98.34 604.34 362.09"/><polygon class="cls-75" points="598.93 356.68 593.52 351.27 846.45 98.34 857.27 98.34 598.93 356.68"/><polygon class="cls-76" points="593.52 351.27 588.11 345.86 835.63 98.34 846.45 98.34 593.52 351.27"/><polygon class="cls-77" points="588.11 345.86 582.7 340.45 824.81 98.34 835.63 98.34 588.11 345.86"/><polygon class="cls-78" points="582.7 340.45 577.29 335.04 813.99 98.34 824.81 98.34 582.7 340.45"/><polygon class="cls-79" points="577.29 335.04 571.88 329.63 803.17 98.34 813.99 98.34 577.29 335.04"/><polygon class="cls-80" points="571.88 329.63 566.47 324.22 792.36 98.34 803.17 98.34 571.88 329.63"/><polygon class="cls-81" points="566.47 324.22 561.06 318.81 781.54 98.34 792.36 98.34 566.47 324.22"/><polygon class="cls-82" points="561.06 318.81 555.65 313.4 770.72 98.34 781.54 98.34 561.06 318.81"/><polygon class="cls-83" points="555.65 313.4 550.25 307.99 759.9 98.34 770.72 98.34 555.65 313.4"/><polygon class="cls-84" points="550.25 307.99 544.84 302.58 749.08 98.34 759.9 98.34 550.25 307.99"/><polygon class="cls-85" points="544.84 302.58 539.43 297.17 738.26 98.34 749.08 98.34 544.84 302.58"/><polygon class="cls-86" points="539.43 297.17 534.02 291.76 727.44 98.34 738.26 98.34 539.43 297.17"/><polygon class="cls-87" points="534.02 291.76 528.61 286.36 716.62 98.34 727.44 98.34 534.02 291.76"/><polygon class="cls-88" points="528.61 286.36 523.2 280.94 705.8 98.34 716.62 98.34 528.61 286.36"/><polygon class="cls-89" points="523.2 280.94 517.79 275.54 694.98 98.34 705.8 98.34 523.2 280.94"/><polygon class="cls-90" points="517.79 275.54 512.38 270.13 684.16 98.34 694.98 98.34 517.79 275.54"/><polygon class="cls-91" points="512.38 270.13 506.97 264.72 673.35 98.34 684.16 98.34 512.38 270.13"/><polygon class="cls-92" points="506.97 264.72 501.56 259.31 662.53 98.34 673.35 98.34 506.97 264.72"/><polygon class="cls-93" points="501.56 259.31 496.15 253.9 651.71 98.34 662.53 98.34 501.56 259.31"/><polygon class="cls-94" points="496.15 253.9 490.74 248.49 640.89 98.34 651.71 98.34 496.15 253.9"/><polygon class="cls-95" points="490.74 248.49 485.33 243.08 630.07 98.34 640.89 98.34 490.74 248.49"/><polygon class="cls-96" points="485.33 243.08 479.92 237.67 619.25 98.34 630.07 98.34 485.33 243.08"/><polygon class="cls-97" points="479.92 237.67 474.51 232.26 608.43 98.34 619.25 98.34 479.92 237.67"/><polygon class="cls-98" points="474.51 232.26 469.1 226.85 597.61 98.34 608.43 98.34 474.51 232.26"/><polygon class="cls-99" points="469.1 226.85 463.69 221.44 586.79 98.34 597.61 98.34 469.1 226.85"/><polygon class="cls-100" points="463.69 221.44 458.28 216.03 575.97 98.34 586.79 98.34 463.69 221.44"/><polygon class="cls-101" points="458.28 216.03 452.87 210.62 565.15 98.34 575.97 98.34 458.28 216.03"/><polygon class="cls-102" points="452.87 210.62 447.46 205.21 554.34 98.34 565.15 98.34 452.87 210.62"/><polygon class="cls-103" points="447.46 205.21 442.05 199.8 543.52 98.34 554.34 98.34 447.46 205.21"/><polygon class="cls-104" points="442.05 199.8 436.64 194.39 532.7 98.34 543.52 98.34 442.05 199.8"/><polygon class="cls-105" points="436.64 194.39 431.23 188.98 521.88 98.34 532.7 98.34 436.64 194.39"/><polygon class="cls-106" points="431.23 188.98 425.82 183.57 511.06 98.34 521.88 98.34 431.23 188.98"/><polygon class="cls-107" points="425.82 183.57 420.42 178.16 500.24 98.34 511.06 98.34 425.82 183.57"/><polygon class="cls-108" points="420.42 178.16 415.01 172.75 489.42 98.34 500.24 98.34 420.42 178.16"/><polygon class="cls-109" points="415.01 172.75 409.6 167.34 478.6 98.34 489.42 98.34 415.01 172.75"/><polygon class="cls-110" points="409.6 167.34 404.19 161.94 467.78 98.34 478.6 98.34 409.6 167.34"/><polygon class="cls-111" points="404.19 161.94 398.78 156.53 456.96 98.34 467.78 98.34 404.19 161.94"/><polygon class="cls-112" points="398.78 156.53 393.37 151.12 446.14 98.34 456.96 98.34 398.78 156.53"/><polygon class="cls-113" points="393.37 151.12 387.96 145.71 435.32 98.34 446.14 98.34 393.37 151.12"/><polygon class="cls-114" points="387.96 145.71 383.32 141.07 383.32 139.53 424.51 98.34 435.32 98.34 387.96 145.71"/><polygon class="cls-115" points="383.32 128.71 413.69 98.34 424.51 98.34 383.32 139.53 383.32 128.71"/><polygon class="cls-116" points="383.32 117.89 402.87 98.34 413.69 98.34 383.32 128.71 383.32 117.89"/><polygon class="cls-117" points="383.32 107.07 392.05 98.34 402.87 98.34 383.32 117.89 383.32 107.07"/><polygon class="cls-118" points="392.05 98.34 383.32 107.07 383.32 98.34 392.05 98.34"/><rect class="cls-50" x="754.37" y="468.28" width="0.03" height="0.03"/><polygon class="cls-17" points="1104.79 478.32 1113.1 470.02 1113.1 478.32 1104.79 478.32"/><polygon class="cls-18" points="1093.97 478.32 1113.1 459.2 1113.1 470.02 1104.79 478.32 1093.97 478.32"/><polygon class="cls-19" points="1083.15 478.32 1113.1 448.38 1113.1 459.2 1093.97 478.32 1083.15 478.32"/><polygon class="cls-20" points="1072.34 478.32 1113.1 437.56 1113.1 448.38 1083.15 478.32 1072.34 478.32"/><polygon class="cls-21" points="1061.52 478.32 1113.1 426.74 1113.1 437.56 1072.34 478.32 1061.52 478.32"/><polygon class="cls-22" points="1050.7 478.32 1113.1 415.92 1113.1 426.74 1061.52 478.32 1050.7 478.32"/><polygon class="cls-23" points="1039.88 478.32 1113.1 405.1 1113.1 415.92 1050.7 478.32 1039.88 478.32"/><polygon class="cls-24" points="1029.06 478.32 1113.1 394.28 1113.1 405.1 1039.88 478.32 1029.06 478.32"/><polygon class="cls-25" points="1018.24 478.32 1113.1 383.46 1113.1 394.28 1029.06 478.32 1018.24 478.32"/><polygon class="cls-25" points="1007.42 478.32 1113.1 372.64 1113.1 383.46 1018.24 478.32 1007.42 478.32"/><polygon class="cls-26" points="996.6 478.32 1113.1 361.82 1113.1 372.64 1007.42 478.32 996.6 478.32"/><polygon class="cls-27" points="985.78 478.32 1113.1 351.01 1113.1 361.82 996.6 478.32 985.78 478.32"/><polygon class="cls-28" points="974.96 478.32 1113.1 340.19 1113.1 351.01 985.78 478.32 974.96 478.32"/><polygon class="cls-29" points="964.14 478.32 1113.1 329.37 1113.1 340.19 974.96 478.32 964.14 478.32"/><polygon class="cls-30" points="953.33 478.32 1113.1 318.55 1113.1 329.37 964.14 478.32 953.33 478.32"/><polygon class="cls-31" points="942.51 478.32 1113.1 307.73 1113.1 318.55 953.33 478.32 942.51 478.32"/><polygon class="cls-32" points="931.69 478.32 1113.1 296.91 1113.1 307.73 942.51 478.32 931.69 478.32"/><polygon class="cls-33" points="920.87 478.32 1108.83 290.36 1113.1 294.63 1113.1 296.91 931.69 478.32 920.87 478.32"/><polygon class="cls-34" points="910.05 478.32 1103.42 284.95 1108.83 290.36 920.87 478.32 910.05 478.32"/><polygon class="cls-35" points="899.23 478.32 1098.01 279.54 1103.42 284.95 910.05 478.32 899.23 478.32"/><polygon class="cls-36" points="888.41 478.32 1092.6 274.13 1098.01 279.54 899.23 478.32 888.41 478.32"/><polygon class="cls-37" points="877.59 478.32 1087.19 268.73 1092.6 274.13 888.41 478.32 877.59 478.32"/><polygon class="cls-38" points="866.77 478.32 1081.78 263.32 1087.19 268.73 877.59 478.32 866.77 478.32"/><polygon class="cls-39" points="855.95 478.32 1076.37 257.91 1081.78 263.32 866.77 478.32 855.95 478.32"/><polygon class="cls-40" points="845.13 478.32 1070.96 252.5 1076.37 257.91 855.95 478.32 845.13 478.32"/><polygon class="cls-41" points="834.32 478.32 1065.55 247.09 1070.96 252.5 845.13 478.32 834.32 478.32"/><polygon class="cls-42" points="823.5 478.32 1060.14 241.68 1065.55 247.09 834.32 478.32 823.5 478.32"/><polygon class="cls-43" points="812.68 478.32 1054.73 236.27 1060.14 241.68 823.5 478.32 812.68 478.32"/><polygon class="cls-44" points="801.86 478.32 1049.33 230.86 1054.73 236.27 812.68 478.32 801.86 478.32"/><polygon class="cls-45" points="791.04 478.32 1043.91 225.45 1049.33 230.86 801.86 478.32 791.04 478.32"/><polygon class="cls-46" points="780.22 478.32 1038.51 220.04 1043.91 225.45 791.04 478.32 780.22 478.32"/><polygon class="cls-47" points="769.4 478.32 1033.1 214.63 1038.51 220.04 780.22 478.32 769.4 478.32"/><polygon class="cls-48" points="758.58 478.32 1027.69 209.22 1033.1 214.63 769.4 478.32 758.58 478.32"/><polygon class="cls-49" points="747.76 478.32 1022.28 203.81 1027.69 209.22 758.58 478.32 747.76 478.32"/><polygon class="cls-50" points="736.94 478.32 1016.87 198.4 1022.28 203.81 747.76 478.32 736.94 478.32"/><polygon class="cls-51" points="726.12 478.32 1011.46 192.99 1016.87 198.4 736.94 478.32 726.12 478.32"/><polygon class="cls-52" points="717.35 476.28 1006.05 187.58 1011.46 192.99 726.12 478.32 717.35 478.32 717.35 476.28"/><polygon class="cls-53" points="717.35 465.46 1000.64 182.17 1006.05 187.58 717.35 476.28 717.35 465.46"/><polygon class="cls-54" points="717.35 454.64 990.62 181.38 999.84 181.38 1000.64 182.17 717.35 465.46 717.35 454.64"/><polygon class="cls-55" points="717.35 443.82 979.8 181.38 990.62 181.38 717.35 454.64 717.35 443.82"/><polygon class="cls-56" points="717.35 433 968.98 181.38 979.8 181.38 717.35 443.82 717.35 433"/><polygon class="cls-57" points="717.35 422.19 958.16 181.38 968.98 181.38 717.35 433 717.35 422.19"/><polygon class="cls-58" points="717.35 411.37 947.34 181.38 958.16 181.38 717.35 422.19 717.35 411.37"/><polygon class="cls-59" points="717.35 400.55 936.52 181.38 947.34 181.38 717.35 411.37 717.35 400.55"/><polygon class="cls-60" points="717.35 389.73 925.7 181.38 936.52 181.38 717.35 400.55 717.35 389.73"/><polygon class="cls-61" points="717.35 378.91 914.88 181.38 925.7 181.38 717.35 389.73 717.35 378.91"/><polygon class="cls-62" points="717.35 368.09 904.06 181.38 914.88 181.38 717.35 378.91 717.35 368.09"/><polygon class="cls-63" points="717.35 357.27 893.24 181.38 904.06 181.38 717.35 368.09 717.35 357.27"/><polygon class="cls-64" points="717.35 346.45 882.42 181.38 893.24 181.38 717.35 357.27 717.35 346.45"/><polygon class="cls-65" points="717.35 335.63 871.61 181.38 882.42 181.38 717.35 346.45 717.35 335.63"/><polygon class="cls-66" points="717.35 324.81 860.79 181.38 871.61 181.38 717.35 335.63 717.35 324.81"/><polygon class="cls-67" points="717.35 313.99 849.97 181.38 860.79 181.38 717.35 324.81 717.35 313.99"/><polygon class="cls-68" points="717.35 303.18 839.15 181.38 849.97 181.38 717.35 313.99 717.35 303.18"/><polygon class="cls-69" points="717.35 292.36 828.33 181.38 839.15 181.38 717.35 303.18 717.35 292.36"/><polygon class="cls-70" points="717.35 281.54 817.51 181.38 828.33 181.38 717.35 292.36 717.35 281.54"/><polygon class="cls-71" points="717.35 270.72 806.69 181.38 817.51 181.38 717.35 281.54 717.35 270.72"/><polygon class="cls-72" points="717.35 259.9 795.87 181.38 806.69 181.38 717.35 270.72 717.35 259.9"/><polygon class="cls-73" points="717.35 249.08 785.05 181.38 795.87 181.38 717.35 259.9 717.35 249.08"/><polygon class="cls-74" points="717.35 238.26 774.23 181.38 785.05 181.38 717.35 249.08 717.35 238.26"/><polygon class="cls-75" points="717.35 227.44 763.41 181.38 774.23 181.38 717.35 238.26 717.35 227.44"/><polygon class="cls-76" points="717.35 216.62 752.6 181.38 763.41 181.38 717.35 227.44 717.35 216.62"/><polygon class="cls-77" points="717.35 205.8 741.78 181.38 752.6 181.38 717.35 216.62 717.35 205.8"/><polygon class="cls-78" points="717.35 194.98 730.96 181.38 741.78 181.38 717.35 205.8 717.35 194.98"/><polygon class="cls-79" points="717.35 184.16 720.14 181.38 730.96 181.38 717.35 194.98 717.35 184.16"/><polygon class="cls-80" points="720.14 181.38 717.35 184.16 717.35 181.38 720.14 181.38"/><polygon class="cls-63" points="596.29 478.32 603.55 471.07 603.55 478.32 596.29 478.32"/><polygon class="cls-64" points="585.48 478.32 603.55 460.25 603.55 471.07 596.29 478.32 585.48 478.32"/><polygon class="cls-65" points="574.66 478.32 603.55 449.43 603.55 460.25 585.48 478.32 574.66 478.32"/><polygon class="cls-66" points="563.84 478.32 603.55 438.61 603.55 449.43 574.66 478.32 563.84 478.32"/><polygon class="cls-67" points="553.02 478.32 601.81 429.54 603.55 431.28 603.55 438.61 563.84 478.32 553.02 478.32"/><polygon class="cls-68" points="542.2 478.32 596.4 424.13 601.81 429.54 553.02 478.32 542.2 478.32"/><polygon class="cls-69" points="531.38 478.32 590.99 418.72 596.4 424.13 542.2 478.32 531.38 478.32"/><polygon class="cls-70" points="520.56 478.32 585.58 413.31 590.99 418.72 531.38 478.32 520.56 478.32"/><polygon class="cls-71" points="509.74 478.32 580.17 407.9 585.58 413.31 520.56 478.32 509.74 478.32"/><polygon class="cls-72" points="498.92 478.32 574.76 402.49 580.17 407.9 509.74 478.32 498.92 478.32"/><polygon class="cls-73" points="488.1 478.32 569.35 397.08 574.76 402.49 498.92 478.32 488.1 478.32"/><polygon class="cls-74" points="477.29 478.32 563.94 391.67 569.35 397.08 488.1 478.32 477.29 478.32"/><polygon class="cls-75" points="466.47 478.32 558.53 386.26 563.94 391.67 477.29 478.32 466.47 478.32"/><polygon class="cls-76" points="455.65 478.32 553.12 380.85 558.53 386.26 466.47 478.32 455.65 478.32"/><polygon class="cls-77" points="444.83 478.32 547.71 375.44 553.12 380.85 455.65 478.32 444.83 478.32"/><polygon class="cls-78" points="434.01 478.32 542.3 370.03 547.71 375.44 444.83 478.32 434.01 478.32"/><polygon class="cls-79" points="423.19 478.32 536.89 364.62 542.3 370.03 434.01 478.32 423.19 478.32"/><polygon class="cls-80" points="412.37 478.32 531.48 359.21 536.89 364.62 423.19 478.32 412.37 478.32"/><polygon class="cls-81" points="401.55 478.32 526.07 353.8 531.48 359.21 412.37 478.32 401.55 478.32"/><polygon class="cls-82" points="390.73 478.32 520.66 348.39 526.07 353.8 401.55 478.32 390.73 478.32"/><polygon class="cls-83" points="379.91 478.32 515.25 342.98 520.66 348.39 390.73 478.32 379.91 478.32"/><polygon class="cls-84" points="369.09 478.32 509.85 337.57 515.25 342.98 379.91 478.32 369.09 478.32"/><polygon class="cls-85" points="358.27 478.32 504.44 332.16 509.85 337.57 369.09 478.32 358.27 478.32"/><polygon class="cls-86" points="347.45 478.32 499.03 326.75 504.44 332.16 358.27 478.32 347.45 478.32"/><polygon class="cls-87" points="336.64 478.32 493.62 321.35 499.03 326.75 347.45 478.32 336.64 478.32"/><polygon class="cls-88" points="325.82 478.32 488.21 315.94 493.62 321.35 336.64 478.32 325.82 478.32"/><polygon class="cls-89" points="315 478.32 482.8 310.53 488.21 315.94 325.82 478.32 315 478.32"/><polygon class="cls-90" points="304.18 478.32 477.39 305.12 482.8 310.53 315 478.32 304.18 478.32"/><polygon class="cls-91" points="293.36 478.32 471.98 299.71 477.39 305.12 304.18 478.32 293.36 478.32"/><polygon class="cls-92" points="282.54 478.32 466.57 294.3 471.98 299.71 293.36 478.32 282.54 478.32"/><polygon class="cls-93" points="271.72 478.32 461.16 288.89 466.57 294.3 282.54 478.32 271.72 478.32"/><polygon class="cls-94" points="260.9 478.32 455.75 283.48 461.16 288.89 271.72 478.32 260.9 478.32"/><polygon class="cls-95" points="250.08 478.32 450.34 278.07 455.75 283.48 260.9 478.32 250.08 478.32"/><polygon class="cls-96" points="239.26 478.32 444.93 272.66 450.34 278.07 250.08 478.32 239.26 478.32"/><polygon class="cls-97" points="228.44 478.32 439.52 267.25 444.93 272.66 239.26 478.32 228.44 478.32"/><polygon class="cls-98" points="217.92 478.32 217.78 478.18 434.11 261.84 439.52 267.25 228.44 478.32 217.92 478.32"/><rect class="cls-99" x="170.27" y="363.48" width="305.95" height="7.65" transform="translate(-165.05 336.14) rotate(-45)"/><polygon class="cls-100" points="212.37 472.77 211.92 472.32 211.92 462.39 423.29 251.02 428.7 256.43 212.37 472.77"/><polygon class="cls-101" points="211.92 451.57 417.88 245.61 423.29 251.02 211.92 462.39 211.92 451.57"/><polygon class="cls-102" points="211.92 440.75 412.47 240.2 417.88 245.61 211.92 451.57 211.92 440.75"/><polygon class="cls-103" points="211.92 429.93 407.06 234.79 412.47 240.2 211.92 440.75 211.92 429.93"/><polygon class="cls-104" points="211.92 419.11 401.65 229.38 407.06 234.79 211.92 429.93 211.92 419.11"/><polygon class="cls-105" points="211.92 408.29 396.24 223.97 401.65 229.38 211.92 419.11 211.92 408.29"/><polygon class="cls-106" points="211.92 397.48 390.83 218.56 396.24 223.97 211.92 408.29 211.92 397.48"/><polygon class="cls-107" points="211.92 386.66 385.43 213.15 390.83 218.56 211.92 397.48 211.92 386.66"/><polygon class="cls-108" points="211.92 375.84 380.02 207.74 385.43 213.15 211.92 386.66 211.92 375.84"/><polygon class="cls-109" points="211.92 365.02 374.61 202.34 380.02 207.74 211.92 375.84 211.92 365.02"/><polygon class="cls-110" points="211.92 354.2 369.2 196.93 374.61 202.34 211.92 365.02 211.92 354.2"/><polygon class="cls-111" points="211.92 343.38 363.79 191.52 369.2 196.93 211.92 354.2 211.92 343.38"/><polygon class="cls-112" points="211.92 332.56 358.38 186.11 363.79 191.52 211.92 343.38 211.92 332.56"/><polygon class="cls-113" points="211.92 321.74 352.29 181.38 353.65 181.38 358.38 186.11 211.92 332.56 211.92 321.74"/><polygon class="cls-114" points="211.92 310.92 341.47 181.38 352.29 181.38 211.92 321.74 211.92 310.92"/><polygon class="cls-115" points="211.92 300.1 330.65 181.38 341.47 181.38 211.92 310.92 211.92 300.1"/><polygon class="cls-116" points="211.92 289.28 319.83 181.38 330.65 181.38 211.92 300.1 211.92 289.28"/><polygon class="cls-117" points="211.92 278.46 309.01 181.38 319.83 181.38 211.92 289.28 211.92 278.46"/><polygon class="cls-118" points="211.92 267.64 298.19 181.38 309.01 181.38 211.92 278.46 211.92 267.64"/><polygon class="cls-119" points="211.92 256.83 287.37 181.38 298.19 181.38 211.92 267.64 211.92 256.83"/><polygon class="cls-120" points="211.92 246.01 276.55 181.38 287.37 181.38 211.92 256.83 211.92 246.01"/><polygon class="cls-121" points="211.92 235.19 265.74 181.38 276.55 181.38 211.92 246.01 211.92 235.19"/><polygon class="cls-122" points="211.92 224.37 254.92 181.38 265.74 181.38 211.92 235.19 211.92 224.37"/><polygon class="cls-123" points="211.92 213.55 244.1 181.38 254.92 181.38 211.92 224.37 211.92 213.55"/><polygon class="cls-124" points="211.92 202.73 233.28 181.38 244.1 181.38 211.92 213.55 211.92 202.73"/><polygon class="cls-125" points="211.92 191.91 222.46 181.38 233.28 181.38 211.92 202.73 211.92 191.91"/><polygon class="cls-126" points="222.46 181.38 211.92 191.91 211.92 181.38 222.46 181.38"/></g><path class="cls-138" d="M124,1232.52V1239H97.62q-10.83,0-15.14-8.71a15.88,15.88,0,0,1-6.29,6.47,18.91,18.91,0,0,1-9.37,2.24H55.64q-1.76,10.9-8.75,16.32t-18.09,5.42q-11.61,0-19.44-6.12t-7.84-19.93a63.52,63.52,0,0,1,2.56-16.63h6.77a59.1,59.1,0,0,0-2.64,16.1q0,11,5.85,15.58t14.74,4.57q20.59,0,20.6-22.79v-36.26h6.77v37.23H66.82q5.63,0,8.62-3.65t3-10.87v-22.71h6.77V1218q0,7.13,3.17,10.82t9.24,3.7h9.86v-40h6.77v40Z"/><path class="cls-138" d="M121.29,1233.4a4.13,4.13,0,0,1,2.73-.88h17.6V1239H124a4.06,4.06,0,0,1-2.77-.88,3.25,3.25,0,0,1,0-4.75Z"/><path class="cls-138" d="M138.89,1233.4a4.11,4.11,0,0,1,2.73-.88h17.6V1239h-17.6a4.06,4.06,0,0,1-2.77-.88,3.23,3.23,0,0,1,0-4.75Z"/><path class="cls-138" d="M156.49,1233.4a4.11,4.11,0,0,1,2.73-.88h17.6V1239h-17.6a4.06,4.06,0,0,1-2.77-.88,3.23,3.23,0,0,1,0-4.75Z"/><path class="cls-138" d="M174.09,1233.4a4.11,4.11,0,0,1,2.73-.88h17.6V1239h-17.6a4.06,4.06,0,0,1-2.77-.88,3.23,3.23,0,0,1,0-4.75Z"/><path class="cls-138" d="M191.69,1233.4a4.09,4.09,0,0,1,2.73-.88H212V1239h-17.6a4.06,4.06,0,0,1-2.77-.88,3.23,3.23,0,0,1,0-4.75Z"/><path class="cls-138" d="M209.29,1233.4a4.09,4.09,0,0,1,2.73-.88h17.6V1239H212a4,4,0,0,1-2.77-.88,3.23,3.23,0,0,1,0-4.75Z"/><path class="cls-138" d="M254.17,1228.91q3.53,3.61,10.65,3.61V1239q-12.58,0-17-9.15a16.74,16.74,0,0,1-7.17,6.82,24.31,24.31,0,0,1-11,2.33,4.06,4.06,0,0,1-2.77-.88,3.28,3.28,0,0,1,0-4.75,4.06,4.06,0,0,1,2.77-.88q14.25,0,14.25-14.52v-43.56h6.78V1218Q250.65,1225.3,254.17,1228.91Z"/><path class="cls-138" d="M262.09,1233.4a4.09,4.09,0,0,1,2.73-.88h17.6V1239h-17.6a4.08,4.08,0,0,1-2.78-.88,3,3,0,0,1-1-2.38A3,3,0,0,1,262.09,1233.4Z"/><path class="cls-138" d="M279.69,1233.4a4.09,4.09,0,0,1,2.73-.88H300V1239h-17.6a4.08,4.08,0,0,1-2.78-.88,3,3,0,0,1-1-2.38A3,3,0,0,1,279.69,1233.4Z"/><path class="cls-138" d="M297.29,1233.4a4.09,4.09,0,0,1,2.73-.88h17.6V1239H300a4.08,4.08,0,0,1-2.78-.88,3,3,0,0,1-1-2.38A2.92,2.92,0,0,1,297.29,1233.4Z"/><path class="cls-138" d="M314.89,1233.4a4.09,4.09,0,0,1,2.73-.88h17.6V1239h-17.6a4.08,4.08,0,0,1-2.78-.88,3,3,0,0,1-1-2.38A2.92,2.92,0,0,1,314.89,1233.4Z"/><path class="cls-138" d="M332.49,1233.4a4.09,4.09,0,0,1,2.73-.88h17.6V1239h-17.6a4.08,4.08,0,0,1-2.78-.88,3,3,0,0,1-1-2.38A2.92,2.92,0,0,1,332.49,1233.4Z"/><path class="cls-138" d="M350.09,1233.4a4.09,4.09,0,0,1,2.73-.88h17.6V1239h-17.6a4.08,4.08,0,0,1-2.78-.88,3,3,0,0,1-1-2.38A2.92,2.92,0,0,1,350.09,1233.4Z"/><path class="cls-138" d="M384.67,1198.55h6.78V1239h-21a3.85,3.85,0,0,1-2.73-1,3.16,3.16,0,0,1-1.06-2.46,2.79,2.79,0,0,1,1-2.25,4.29,4.29,0,0,1,2.78-.83h14.25Zm-4.58,55.4a3.94,3.94,0,0,1-1.23-3,3.82,3.82,0,0,1,1.23-2.86A4.08,4.08,0,0,1,383,1247a4.06,4.06,0,0,1,4.05,4,4.05,4.05,0,0,1-1.19,2.9,3.85,3.85,0,0,1-2.86,1.24A4.08,4.08,0,0,1,380.09,1254Z"/><path class="cls-138" d="M405.35,1174.44h6.78V1239h-6.78Z"/><path class="cls-138" d="M450.76,1239H441v3.43q0,7.92-3.17,11.84t-9.68,3.92a33.24,33.24,0,0,1-8.09-1.15l1.4-6.07a27.84,27.84,0,0,0,5.55.7q3.69,0,5.45-2.15c1.18-1.44,1.76-3.8,1.76-7.09v-43.91H441v34h9.77Z"/><path class="cls-138" d="M448,1233.4a4.09,4.09,0,0,1,2.73-.88h17.6V1239h-17.6a4,4,0,0,1-2.77-.88,3.23,3.23,0,0,1,0-4.75Z"/><path class="cls-138" d="M465.63,1233.4a4.09,4.09,0,0,1,2.73-.88H486V1239h-17.6a4.08,4.08,0,0,1-2.78-.88,3,3,0,0,1-1-2.38A3,3,0,0,1,465.63,1233.4Z"/><path class="cls-138" d="M483.23,1233.4a4.09,4.09,0,0,1,2.73-.88h17.6V1239H486a4.08,4.08,0,0,1-2.78-.88,3,3,0,0,1-1-2.38A3,3,0,0,1,483.23,1233.4Z"/><path class="cls-138" d="M500.83,1233.4a4.09,4.09,0,0,1,2.73-.88h17.6V1239h-17.6a4.08,4.08,0,0,1-2.78-.88,3,3,0,0,1-1-2.38A2.92,2.92,0,0,1,500.83,1233.4Z"/><path class="cls-138" d="M518.43,1233.4a4.09,4.09,0,0,1,2.73-.88h17.6V1239h-17.6a4.08,4.08,0,0,1-2.78-.88,3,3,0,0,1-1-2.38A2.92,2.92,0,0,1,518.43,1233.4Z"/><path class="cls-138" d="M536,1233.4a4.09,4.09,0,0,1,2.73-.88h17.6V1239h-17.6a4.08,4.08,0,0,1-2.78-.88,3,3,0,0,1-1-2.38A3,3,0,0,1,536,1233.4Z"/><path class="cls-138" d="M553.63,1233.4a4.09,4.09,0,0,1,2.73-.88H574V1239h-17.6a4.08,4.08,0,0,1-2.78-.88,3,3,0,0,1-1-2.38A2.92,2.92,0,0,1,553.63,1233.4Z"/><path class="cls-138" d="M571.23,1233.4a4.09,4.09,0,0,1,2.73-.88h17.6V1239H574a4.08,4.08,0,0,1-2.78-.88,3,3,0,0,1-1-2.38A2.92,2.92,0,0,1,571.23,1233.4Z"/><path class="cls-138" d="M588.83,1233.4a4.09,4.09,0,0,1,2.73-.88h17.6V1239h-17.6a4.08,4.08,0,0,1-2.78-.88,3,3,0,0,1-1-2.38A2.92,2.92,0,0,1,588.83,1233.4Z"/><path class="cls-138" d="M606.43,1233.4a4.09,4.09,0,0,1,2.73-.88h17.59V1239H609.16a4.08,4.08,0,0,1-2.78-.88,3,3,0,0,1-1-2.38A2.92,2.92,0,0,1,606.43,1233.4Z"/><path class="cls-138" d="M683.47,1195.82a23.38,23.38,0,0,1,9.37,9.07,25.78,25.78,0,0,1,3.35,13.11v21H626.67a3.88,3.88,0,0,1-2.73-.88,3,3,0,0,1-1-2.38,2.92,2.92,0,0,1,1-2.28,4.21,4.21,0,0,1,2.73-1h7.83v-58.08h6.69L641.1,1210a30,30,0,0,1,11.31-12.76,32,32,0,0,1,17.38-4.66A28.33,28.33,0,0,1,683.47,1195.82Zm5.94,22.18q0-8.45-5.28-13.55t-14.34-5.11a29.34,29.34,0,0,0-14.13,3.48,28.08,28.08,0,0,0-10.38,9.46,25.18,25.18,0,0,0-4.18,13.11v7.13h48.31Z"/><path class="cls-138" d="M804.6,1228.91q3.52,3.61,10.65,3.61V1239q-7.65,0-12.76-3.39a17.28,17.28,0,0,1-7-9.63q-4.58,11.27-18.22,11.26a18.83,18.83,0,0,1-9.68-2.51,17.62,17.62,0,0,1-6.77-7.12,22.35,22.35,0,0,1-2.47-10.7,23.28,23.28,0,0,1,3.61-13.11,22.72,22.72,0,0,1,9.9-8.27,34.4,34.4,0,0,1,14.21-2.82,53.74,53.74,0,0,1,8.28.71v-4.93h6.77V1218Q801.08,1225.3,804.6,1228.91ZM787,1228.6a15.53,15.53,0,0,0,5.41-6.46,22.22,22.22,0,0,0,1.94-9.51V1199.7a37.85,37.85,0,0,0-8.1-.89,26.12,26.12,0,0,0-11,2.2,17.31,17.31,0,0,0-7.48,6.34,17.56,17.56,0,0,0-2.68,9.77q0,6.51,3.7,10.16t10.2,3.66A13.93,13.93,0,0,0,787,1228.6Zm-13.51-44.75a4,4,0,0,1-1.23-2.9,3.84,3.84,0,0,1,1.23-2.86,4.05,4.05,0,0,1,2.9-1.19,4.06,4.06,0,0,1,4,4,4,4,0,0,1-1.19,2.9,3.8,3.8,0,0,1-2.86,1.24A3.94,3.94,0,0,1,773.45,1183.85Zm14.08,0a4,4,0,0,1-1.23-2.9,3.84,3.84,0,0,1,1.23-2.86,4.05,4.05,0,0,1,2.9-1.19,4.06,4.06,0,0,1,4.05,4,4,4,0,0,1-1.19,2.9,3.8,3.8,0,0,1-2.86,1.24A3.94,3.94,0,0,1,787.53,1183.85Z"/><path class="cls-138" d="M812.52,1233.4a4.11,4.11,0,0,1,2.73-.88h17.6V1239h-17.6a4.06,4.06,0,0,1-2.77-.88,3.23,3.23,0,0,1,0-4.75Z"/><path class="cls-138" d="M830.12,1233.4a4.13,4.13,0,0,1,2.73-.88h17.6V1239h-17.6a4.06,4.06,0,0,1-2.77-.88,3.25,3.25,0,0,1,0-4.75Z"/><path class="cls-138" d="M847.72,1233.4a4.11,4.11,0,0,1,2.73-.88h17.6V1239h-17.6a4.06,4.06,0,0,1-2.77-.88,3.25,3.25,0,0,1,0-4.75Z"/><path class="cls-138" d="M865.32,1233.4a4.11,4.11,0,0,1,2.73-.88h17.6V1239h-17.6a4.06,4.06,0,0,1-2.77-.88,3.23,3.23,0,0,1,0-4.75Z"/><path class="cls-138" d="M949,1232.52V1239H923.66a8.12,8.12,0,0,1-3.47-.61,8.51,8.51,0,0,1-2.86-2.91,8.79,8.79,0,0,1-2.91,3,8.33,8.33,0,0,1-3.43.57H885.65a3.87,3.87,0,0,1-2.73-1,3.19,3.19,0,0,1-1.06-2.46,2.77,2.77,0,0,1,1-2.25,4.26,4.26,0,0,1,2.77-.83H908L893.39,1219v-2.12a24.32,24.32,0,0,1,11.93-21,24,24,0,0,1,24.11,0,24.17,24.17,0,0,1,11.92,21V1219l-14.69,13.55Zm-14.43-16.63a18.32,18.32,0,0,0-2.73-8.45,17.24,17.24,0,0,0-6.21-5.94,17.08,17.08,0,0,0-16.63,0,17.21,17.21,0,0,0-6.2,5.94,18.09,18.09,0,0,0-2.73,8.45l17.25,16.28Z"/><path class="cls-138" d="M946.28,1233.4a4.09,4.09,0,0,1,2.73-.88h17.6V1239H949a4.08,4.08,0,0,1-2.78-.88,3,3,0,0,1-1-2.38A3,3,0,0,1,946.28,1233.4Z"/><path class="cls-138" d="M963.88,1233.4a4.09,4.09,0,0,1,2.73-.88h17.6V1239h-17.6a4.08,4.08,0,0,1-2.78-.88,3,3,0,0,1-1-2.38A2.92,2.92,0,0,1,963.88,1233.4Z"/><path class="cls-138" d="M981.48,1233.4a4.09,4.09,0,0,1,2.73-.88h17.6V1239h-17.6a4.08,4.08,0,0,1-2.78-.88,3,3,0,0,1-1-2.38A3,3,0,0,1,981.48,1233.4Z"/><path class="cls-138" d="M999.08,1233.4a4.09,4.09,0,0,1,2.73-.88h17.6V1239h-17.6a4.08,4.08,0,0,1-2.78-.88,3,3,0,0,1-1-2.38A3,3,0,0,1,999.08,1233.4Z"/><path class="cls-138" d="M1063.45,1195.69a21.15,21.15,0,0,1,7.61,8.58,27,27,0,0,1,2.73,12.23,23.64,23.64,0,0,1-3,12.06,20.45,20.45,0,0,1-7.83,7.83,21.22,21.22,0,0,1-10.52,2.73,22.92,22.92,0,0,1-9.76-2.2,24.87,24.87,0,0,1-8.45-6.51l-.09.17a14.5,14.5,0,0,1-5.85,6.25,17.57,17.57,0,0,1-8.93,2.2,3.85,3.85,0,0,1-2.73-1,3.16,3.16,0,0,1-1.06-2.46,2.79,2.79,0,0,1,1-2.25,4.29,4.29,0,0,1,2.78-.83,11,11,0,0,0,5.76-1.5,8.72,8.72,0,0,0,3.65-4.13,19.94,19.94,0,0,0,1.41-5c.29-1.85.47-3,.53-3.31a58.49,58.49,0,0,1,1.32-7.39q2.28-9.06,7.39-13.86a18.06,18.06,0,0,1,12.85-4.79A20.25,20.25,0,0,1,1063.45,1195.69Zm-3.83,35a14,14,0,0,0,5.37-5.55,17.58,17.58,0,0,0,2-8.67q0-7.56-4-12.36a13.21,13.21,0,0,0-10.69-4.8,11.72,11.72,0,0,0-8.45,3.13q-3.25,3.12-5.1,9.46a55,55,0,0,0-1.68,8.09l-.79,4a23.18,23.18,0,0,0,7.53,6.38,18.1,18.1,0,0,0,8.4,2.16A14.75,14.75,0,0,0,1059.62,1230.72Z"/><path class="cls-138" d="M1106.7,1232.52V1239h-20.94v-64.59h6.77v58.08Z"/><path class="cls-138" d="M1104,1233.4a4.13,4.13,0,0,1,2.73-.88h17.6V1239h-17.6a4.06,4.06,0,0,1-2.77-.88,3,3,0,0,1-1-2.38A2.94,2.94,0,0,1,1104,1233.4Z"/><path class="cls-138" d="M1121.57,1233.4a4.13,4.13,0,0,1,2.73-.88h17.6V1239h-17.6a4.06,4.06,0,0,1-2.77-.88,3,3,0,0,1-1-2.38A2.94,2.94,0,0,1,1121.57,1233.4Z"/><path class="cls-138" d="M1139.17,1233.4a4.13,4.13,0,0,1,2.73-.88h17.6V1239h-17.6a4.06,4.06,0,0,1-2.77-.88,3,3,0,0,1-1-2.38A2.94,2.94,0,0,1,1139.17,1233.4Z"/><path class="cls-138" d="M1156.77,1233.4a4.13,4.13,0,0,1,2.73-.88h17.6V1239h-17.6a4.06,4.06,0,0,1-2.77-.88,3.25,3.25,0,0,1,0-4.75Z"/><path class="cls-138" d="M1174.37,1233.4a4.13,4.13,0,0,1,2.73-.88h17.6V1239h-17.6a4.06,4.06,0,0,1-2.77-.88,3,3,0,0,1-1-2.38A2.94,2.94,0,0,1,1174.37,1233.4Z"/><path class="cls-138" d="M1192,1233.4a4.13,4.13,0,0,1,2.73-.88h17.6V1239h-17.6a4.06,4.06,0,0,1-2.77-.88,3.25,3.25,0,0,1,0-4.75Z"/><path class="cls-138" d="M1209.57,1233.4a4.13,4.13,0,0,1,2.73-.88h17.6V1239h-17.6a4.06,4.06,0,0,1-2.77-.88,3.25,3.25,0,0,1,0-4.75Z"/><path class="cls-138" d="M1277.46,1228.56a5.51,5.51,0,0,0,1.94,3.08,6.76,6.76,0,0,0,3.83.88V1239H1229.9a3.45,3.45,0,0,1-3.43-3.43,2.72,2.72,0,0,1,1-2.16,4,4,0,0,1,2.46-.92h41.36a60.85,60.85,0,0,1-1.67-7.57c-.06-.64-.21-1.55-.44-2.73a44.75,44.75,0,0,0-3.52-11.88,17.35,17.35,0,0,0-5.9-6.86,22.91,22.91,0,0,0-7.26-3.13,34.74,34.74,0,0,0-8.31-1,30.5,30.5,0,0,0-8.63,1.15l-1.23-6.6a41,41,0,0,1,10.3-1.23,39.43,39.43,0,0,1,10.2,1.32,29.46,29.46,0,0,1,9.07,4,23.38,23.38,0,0,1,7.57,8.8,50,50,0,0,1,4.39,14.35Q1276.81,1226.36,1277.46,1228.56ZM1253.13,1254a3.94,3.94,0,0,1-1.23-3,3.82,3.82,0,0,1,1.23-2.86A4.06,4.06,0,0,1,1256,1247a3.93,3.93,0,0,1,2.86,1.19,3.89,3.89,0,0,1,1.18,2.86,4,4,0,0,1-1.18,2.9,3.86,3.86,0,0,1-2.86,1.24A4.06,4.06,0,0,1,1253.13,1254Z"/><path class="cls-138" d="M562.65,889.57H546.38v5.71q0,13.2-5.27,19.72T525,921.52a55.23,55.23,0,0,1-13.49-1.91l2.35-10.11a46.54,46.54,0,0,0,9.23,1.17q6.15,0,9.09-3.59t2.93-11.8V822.16h11.28v56.56h16.27ZM536,805a6.61,6.61,0,0,1-2.05-4.84,6.37,6.37,0,0,1,2.05-4.76,6.72,6.72,0,0,1,4.83-2,6.76,6.76,0,0,1,6.75,6.74,6.74,6.74,0,0,1-2,4.84,6.38,6.38,0,0,1-4.77,2A6.59,6.59,0,0,1,536,805Z"/><path class="cls-138" d="M610.35,824.94a42.11,42.11,0,0,1,19,17.66q6.38,11.5,6.38,29.68v17.29H562.65a5.53,5.53,0,0,1-4.18-1.61,5.48,5.48,0,0,1,0-7.62,5.5,5.5,0,0,1,4.18-1.62H624.5v-6.44q0-16.12-6.23-25.87T600,831.83q-12.09-4.85-31.14-6.3l-1.47-14.81a163.31,163.31,0,0,1,68-29.31l2.2,10.85a183.68,183.68,0,0,0-34,10.11q-15.69,6.45-25.79,13.92Q597.67,818.8,610.35,824.94Z"/><path class="cls-138" d="M698.65,889.57H682.38v5.71q0,13.2-5.27,19.72T661,921.52a55.23,55.23,0,0,1-13.49-1.91l2.35-10.11a46.54,46.54,0,0,0,9.23,1.17q6.15,0,9.09-3.59t2.93-11.8V822.16h11.28v56.56h16.27Z"/><path class="cls-138" d="M772,817.39a35.25,35.25,0,0,1,12.67,14.29,44.92,44.92,0,0,1,4.55,20.37q0,11.58-4.91,20.08a34.1,34.1,0,0,1-13,13,35.38,35.38,0,0,1-17.52,4.55,38.17,38.17,0,0,1-16.26-3.67,41.2,41.2,0,0,1-14.07-10.84l-.15.29a24.24,24.24,0,0,1-9.75,10.41,29.35,29.35,0,0,1-14.87,3.66,6.46,6.46,0,0,1-4.54-1.61,5.31,5.31,0,0,1-1.76-4.11,4.6,4.6,0,0,1,1.68-3.73,7.06,7.06,0,0,1,4.62-1.4,18.32,18.32,0,0,0,9.6-2.49,14.62,14.62,0,0,0,6.08-6.88,33.56,33.56,0,0,0,2.34-8.29c.49-3.07.79-4.9.88-5.49a98.5,98.5,0,0,1,2.2-12.31q3.81-15.09,12.31-23.08t21.4-8A33.72,33.72,0,0,1,772,817.39Zm-6.38,58.33a23.32,23.32,0,0,0,8.94-9.23,29.33,29.33,0,0,0,3.37-14.44q0-12.6-6.66-20.59t-17.81-8q-8.65,0-14.07,5.21t-8.5,15.75a93.36,93.36,0,0,0-2.78,13.48l-1.32,6.75a38.57,38.57,0,0,0,12.53,10.62,30.17,30.17,0,0,0,14,3.59A24.54,24.54,0,0,0,765.62,875.72Z"/><path class="cls-138" d="M23.55,1075.61q4.15,0,6-2.27t1.88-7.91v-64.31H51.69v64.31q0,14.34-6.43,21.71t-18.36,7.37a54.35,54.35,0,0,1-16.88-3l3.89-17.42A44.41,44.41,0,0,0,23.55,1075.61Z"/><path class="cls-138" d="M102.74,1045.6v19.83H65.9V967.08H86.13v78.52Z"/><path class="cls-138" d="M95,1048.41a10.87,10.87,0,0,1,7.7-2.81h26.8v19.83h-26.8a10.87,10.87,0,0,1-7.7-2.81,9.87,9.87,0,0,1,0-14.21Z"/><path class="cls-138" d="M121.83,1048.41a10.87,10.87,0,0,1,7.71-2.81h26.8v19.83h-26.8a10.87,10.87,0,0,1-7.71-2.81,9.89,9.89,0,0,1,0-14.21Z"/><path class="cls-138" d="M148.63,1048.41a10.87,10.87,0,0,1,7.71-2.81h26.79v19.83H156.34a10.87,10.87,0,0,1-7.71-2.81,9.89,9.89,0,0,1,0-14.21Z"/><path class="cls-138" d="M175.43,1048.41a10.87,10.87,0,0,1,7.7-2.81h26.8v19.83h-26.8a10.87,10.87,0,0,1-7.7-2.81,9.89,9.89,0,0,1,0-14.21Z"/><path class="cls-138" d="M202.23,1048.41a10.87,10.87,0,0,1,7.7-2.81h26.8v19.83h-26.8a10.87,10.87,0,0,1-7.7-2.81,9.87,9.87,0,0,1,0-14.21Z"/><path class="cls-138" d="M328.91,1045.6v19.83q-19.7,0-28.27-10-10,10-31.08,10H236.73a9.44,9.44,0,0,1-7.37-3,10.39,10.39,0,0,1,0-13.93,9.44,9.44,0,0,1,7.37-3h32.83a46.88,46.88,0,0,0,11.39-1.07,9.54,9.54,0,0,0,5.69-3.55c1.12-1.65,1.67-4,1.67-7.17q0-5.89-5.29-10.32t-15-6.83a94.91,94.91,0,0,0-22.72-2.41l-4-25.19a120.68,120.68,0,0,1,28.88-16.15q15.34-6,37.32-9.45l2.94,19.84a132.07,132.07,0,0,0-23.91,5.22,112.54,112.54,0,0,0-21,8.84q20,2.82,31.28,12.13t11.73,23.38Q310.43,1045.61,328.91,1045.6Z"/><path class="cls-138" d="M386.53,1045.6v19.83q-21.3,0-28.81-11.79a32.15,32.15,0,0,1-12.13,8.71,42.48,42.48,0,0,1-16.68,3.08,10.63,10.63,0,0,1-7.64-3,9.62,9.62,0,0,1-3.08-7.23,9,9,0,0,1,2.95-7,11.11,11.11,0,0,1,7.77-2.68,17.18,17.18,0,0,0,12.06-4.29q4.69-4.27,4.69-12.86v-27.33h20.23v27.33q0,7.63,4.29,12.19Q375.13,1045.61,386.53,1045.6Zm-52.12-59.89a11.31,11.31,0,1,1,8,3.35A10.93,10.93,0,0,1,334.41,985.71Zm26.66,0a11.32,11.32,0,1,1,8,3.35A11,11,0,0,1,361.07,985.71Z"/><path class="cls-138" d="M403.28,1001.12h20.23v64.31h-37a10.61,10.61,0,0,1-7.64-3,9.62,9.62,0,0,1-3.08-7.23,9,9,0,0,1,2.95-7,11.07,11.07,0,0,1,7.77-2.68h16.75Zm-4.16,95.67a11.35,11.35,0,1,1,8,3.34A11,11,0,0,1,399.12,1096.79Z"/><path class="cls-138" d="M525.88,967.08v98.35H437.71V1045.6h29.21l-20-65.52h20.9l20,65.52h17.82V967.08Z"/><path class="cls-138" d="M540.08,967.08h20.23v98.35H540.08Z"/><path class="cls-138" d="M674.33,992.27v62.84q0,21.32-10.31,32.36t-30.15,11.06a103.74,103.74,0,0,1-18.22-1.74l.13-19.57a111.49,111.49,0,0,0,15.14,1.21q12.2,0,17.82-5.56t5.63-17.89v-.4a26.05,26.05,0,0,1-21.71,10.85,29.34,29.34,0,0,1-16.88-4.82A30.86,30.86,0,0,1,605,1047.88a39.57,39.57,0,0,1-3.68-16.88,38.79,38.79,0,0,1,4.82-19q4.83-8.77,15.21-14.27t26.33-5.5Zm-28.27,50.78a18.45,18.45,0,0,0,6-6.9,19.75,19.75,0,0,0,2.28-9.31v-14.33h-7q-13.67,0-19.76,4.75t-6.1,11.86a16.87,16.87,0,0,0,2,8,15.76,15.76,0,0,0,5.83,6.17,16.71,16.71,0,0,0,8.91,2.34A13.64,13.64,0,0,0,646.06,1043.05Z"/><path class="cls-138" d="M732.08,1060.34a33.11,33.11,0,0,1-12.53-13.4,38.85,38.85,0,0,1-4.22-17.82,40.4,40.4,0,0,1,4.22-18.16,34.09,34.09,0,0,1,12.6-13.8q8.37-5.28,20-5.29t20,5.23a33.37,33.37,0,0,1,12.47,13.6,41,41,0,0,1,0,36,32.82,32.82,0,0,1-12.47,13.6q-8.29,5.16-20,5.16T732.08,1060.34Zm-.4-81.06a11.32,11.32,0,1,1,8,3.35A11,11,0,0,1,731.68,979.28Zm32.69,61.56a16.49,16.49,0,0,0,4.29-11.45,17.9,17.9,0,0,0-4.49-12.13q-4.49-5.16-12.26-5.16t-12.19,5A17.35,17.35,0,0,0,735.3,1029a16.76,16.76,0,0,0,4.49,11.65q4.49,5,12.39,5T764.37,1040.84Zm-6-61.56a11.32,11.32,0,1,1,8,3.35A11,11,0,0,1,758.34,979.28Z"/><path class="cls-138" d="M803,1045.6h47.57V1038q0-9.78-3.08-15.34a17.82,17.82,0,0,0-9.65-8q-6.57-2.48-17.55-2.48h-9.79V991.87h10q23.44,0,36.85,11.79t13.4,34.3v27.47H803Z"/><path class="cls-138" d="M921.81,1045.6v19.83H885V967.08H905.2v78.52Z"/><path class="cls-138" d="M914.1,1048.41a10.87,10.87,0,0,1,7.71-2.81h26.8v19.83h-26.8a10.87,10.87,0,0,1-7.71-2.81,9.89,9.89,0,0,1,0-14.21Z"/><path class="cls-138" d="M940.9,1048.41a10.87,10.87,0,0,1,7.71-2.81H975.4v19.83H948.61a10.87,10.87,0,0,1-7.71-2.81,9.89,9.89,0,0,1,0-14.21Z"/><path class="cls-138" d="M967.7,1048.41a10.87,10.87,0,0,1,7.7-2.81h26.8v19.83H975.4a10.87,10.87,0,0,1-7.7-2.81,9.89,9.89,0,0,1,0-14.21Z"/><path class="cls-138" d="M994.5,1048.41a10.87,10.87,0,0,1,7.7-2.81H1029v19.83h-26.8a10.87,10.87,0,0,1-7.7-2.81,9.87,9.87,0,0,1,0-14.21Z"/><path class="cls-138" d="M1021.29,1048.41a10.87,10.87,0,0,1,7.71-2.81h26.8v19.83H1029a10.87,10.87,0,0,1-7.71-2.81,9.89,9.89,0,0,1,0-14.21Z"/><path class="cls-138" d="M1048.09,1048.41a10.87,10.87,0,0,1,7.71-2.81h26.79v19.83H1055.8a10.87,10.87,0,0,1-7.71-2.81,9.89,9.89,0,0,1,0-14.21Z"/><path class="cls-138" d="M1099.34,1001.12h20.24v64.31h-37a10.59,10.59,0,0,1-7.63-3,9.58,9.58,0,0,1-3.08-7.23,9,9,0,0,1,2.94-7,11.11,11.11,0,0,1,7.77-2.68h16.75Zm-11.52,95.53a11.32,11.32,0,1,1,8,3.35A11,11,0,0,1,1087.82,1096.65Zm26.66,0a11.32,11.32,0,1,1,8,3.35A11,11,0,0,1,1114.48,1096.65Z"/><path class="cls-138" d="M1196.22,1045.6v19.83h-13.94q0,14.34-6.43,21.71t-18.35,7.37a54.41,54.41,0,0,1-16.89-3l3.89-17.42a44.49,44.49,0,0,0,9.65,1.47q4.14,0,6-2.27t1.88-7.91v-64.31h20.23v44.48Z"/><path class="cls-138" d="M1213,967.08h20.23v98.35h-37a10.87,10.87,0,0,1-7.71-2.81,9.89,9.89,0,0,1,0-14.21,10.87,10.87,0,0,1,7.71-2.81H1213Z"/><path class="cls-138" d="M1247.4,967.08h20.23v98.35H1247.4Z"/><rect class="cls-3" x="18.96" y="902.76" width="427.08" height="4"/><rect class="cls-3" x="16.96" y="902.26" width="431.08" height="5"/><rect class="cls-3" x="883.06" y="902.76" width="403.4" height="4"/><rect class="cls-3" x="881.06" y="902.26" width="407.4" height="5"/><rect class="cls-3" x="2" y="1133.17" width="1280.75" height="4"/><rect class="cls-3" y="1132.67" width="1284.75" height="5"/></svg>