<svg id="Layer_1" data-name="Layer 1" xmlns="http://www.w3.org/2000/svg" viewBox="0 0 1293.67 1308.92"><defs><style>.cls-1{fill:#87c0da;}.cls-2{fill:#1c889b;}.cls-3{fill:#fbfdfe;}.cls-4,.cls-5{fill:#fafdfe;}.cls-5{font-size:88px;font-family:FFShamelFamily-SansOneBook, FF Shamel Family;}.cls-6{fill:#24556f;}</style></defs><path class="cls-1" d="M570.44,477.42H226.27l-21.7-40.37H529.46L302,209.58,330.54,181,587,437.48a23.4,23.4,0,0,1-16.55,39.94Z"/><path class="cls-1" d="M1078.89,477.42H733.65a22.58,22.58,0,0,1-15.95-38.56L975.53,181l28.54,28.55L776.61,437.05h328.11Zm-332.63-10,0,0Z"/><path class="cls-1" d="M653.2,386a39.51,39.51,0,0,1-28-11.57L375.88,125.09l26.93-26.94L652.14,347.48a1.52,1.52,0,0,0,2.13,0l247.39-247.4L928.59,127,681.2,374.41A39.47,39.47,0,0,1,653.2,386Z"/><rect class="cls-2" x="561.35" y="533.42" width="183.37" height="183.37" rx="2.16" transform="translate(-250.75 644.85) rotate(-45)"/><path class="cls-3" d="M572.34,908H556.17v5.69q0,13.11-5.25,19.6t-16,6.49a55.07,55.07,0,0,1-13.41-1.9l2.33-10.06A46.2,46.2,0,0,0,533,929q6.12,0,9-3.57t2.91-11.73V840.92h11.23V897.2h16.17Zm-26.52-84.11a6.54,6.54,0,0,1-2-4.81,6.32,6.32,0,0,1,2-4.74,6.67,6.67,0,0,1,4.8-2,6.71,6.71,0,0,1,6.71,6.7,6.66,6.66,0,0,1-2,4.81,6.31,6.31,0,0,1-4.74,2A6.51,6.51,0,0,1,545.82,823.87Z"/><path class="cls-4" d="M534.88,942.54a58.2,58.2,0,0,1-14.09-2l-2.64-.67,3.56-15.37,2.67.56c8.46,1.79,13.11,1.47,15.5-1.44,1.49-1.83,2.28-5.28,2.28-10V838.15h16.78v56.27h16.18v16.34H558.94v2.91c0,9.36-2,16.54-5.87,21.35C549,940,542.92,942.54,534.88,942.54Zm-10.08-6.75c11.48,2.45,19.58,1.14,24-4.27,3.07-3.79,4.63-9.8,4.63-17.85V905.2h16.18V900H553.39V843.7h-5.68v70c0,6.16-1.15,10.57-3.53,13.49s-6.26,4.59-11.19,4.59a42.65,42.65,0,0,1-7.09-.71Zm25.82-107.1a9.75,9.75,0,0,1-9.62-9.63,9.18,9.18,0,0,1,2.89-6.74,9.59,9.59,0,0,1,13.43,0,9.32,9.32,0,0,1,2.78,6.71,9.43,9.43,0,0,1-2.73,6.74A9.21,9.21,0,0,1,550.62,828.69Zm0-13.55a3.93,3.93,0,0,0-2.88,1.18,3.6,3.6,0,0,0-1.19,2.74,3.81,3.81,0,0,0,1.23,2.85h0a3.76,3.76,0,0,0,5.57,0,3.91,3.91,0,0,0,1.19-2.89,3.93,3.93,0,0,0-3.93-3.92Z"/><path class="cls-3" d="M619.79,843.7a41.82,41.82,0,0,1,19,17.56q6.35,11.44,6.34,29.52V908H572.34a5.44,5.44,0,0,1-4.15-1.61,5.45,5.45,0,0,1,0-7.57,5.47,5.47,0,0,1,4.15-1.6h61.52v-6.42q0-16-6.2-25.73t-18.22-14.5q-12-4.81-31-6.27L577,829.55a162.47,162.47,0,0,1,67.63-29.15l2.2,10.79A182.5,182.5,0,0,0,613,821.25q-15.62,6.4-25.66,13.85Q607.18,837.58,619.79,843.7Z"/><path class="cls-4" d="M647.86,910.76H572.34a8.18,8.18,0,1,1,0-16.34h58.74v-3.64c0-10.1-1.93-18.25-5.75-24.23s-9.49-10.45-16.92-13.43C600.7,850,590.55,848,578.26,847l-2.33-.18-1.84-18.59,1.25-.94a165,165,0,0,1,68.82-29.66l2.66-.48,3.29,16.18-2.73.54a181.19,181.19,0,0,0-33.3,9.91,133.81,133.81,0,0,0-19.22,9.58c10.31,1.75,19.09,4.37,26.15,7.8a44.78,44.78,0,0,1,20.16,18.72c4.44,8,6.69,18.38,6.69,30.86ZM572.34,900a2.72,2.72,0,0,0-2.15.75,2.69,2.69,0,0,0,0,3.73,2.68,2.68,0,0,0,2.15.75h70V890.78c0-11.52-2-21-6-28.17a39.26,39.26,0,0,0-17.73-16.41c-8.1-3.94-18.72-6.74-31.56-8.35l-6.48-.8.46,4.65c11.83,1.07,21.74,3.17,29.47,6.27,8.53,3.41,15.1,8.65,19.53,15.59s6.64,16,6.64,27.22V900Zm7.59-69.12.58,5.86,5.2-3.85c6.86-5.07,15.69-9.84,26.25-14.18a185.5,185.5,0,0,1,31.6-9.65l-1.09-5.39a159.68,159.68,0,0,0-62.54,27.21Z"/><path class="cls-3" d="M707.61,908H691.44v5.69q0,13.11-5.25,19.6t-16,6.49a55.07,55.07,0,0,1-13.41-1.9l2.33-10.06a46.2,46.2,0,0,0,9.19,1.17q6.12,0,9-3.57t2.91-11.73V840.92h11.23V897.2h16.17Z"/><path class="cls-4" d="M670.15,942.54a58.2,58.2,0,0,1-14.09-2l-2.64-.67L657,924.52l2.66.56c8.46,1.79,13.11,1.47,15.5-1.44,1.49-1.83,2.28-5.28,2.28-10V838.15h16.79v56.27h16.17v16.34H694.22v2.91c0,9.36-2,16.54-5.87,21.35C684.32,940,678.19,942.54,670.15,942.54Zm-10.08-6.75c11.5,2.45,19.58,1.14,24-4.27,3.07-3.79,4.63-9.8,4.63-17.85V905.2h16.18V900H688.66V843.7H683v70c0,6.16-1.16,10.57-3.54,13.49s-6.26,4.59-11.19,4.59a42.65,42.65,0,0,1-7.09-.71Z"/><path class="cls-3" d="M780.58,836.19a35.07,35.07,0,0,1,12.6,14.21,44.72,44.72,0,0,1,4.52,20.26q0,11.52-4.88,20a33.93,33.93,0,0,1-13,13,35.16,35.16,0,0,1-17.41,4.52,38.09,38.09,0,0,1-16.18-3.65,41,41,0,0,1-14-10.78l-.14.28a24,24,0,0,1-9.7,10.35,29.18,29.18,0,0,1-14.8,3.65,6.36,6.36,0,0,1-4.51-1.61,5.25,5.25,0,0,1-1.75-4.08,4.56,4.56,0,0,1,1.68-3.71,7,7,0,0,1,4.58-1.38,18.27,18.27,0,0,0,9.55-2.48,14.63,14.63,0,0,0,6.06-6.86,34,34,0,0,0,2.33-8.23c.48-3.06.77-4.89.87-5.47a95.88,95.88,0,0,1,2.19-12.24q3.79-15,12.24-23t21.28-8A33.53,33.53,0,0,1,780.58,836.19Zm-6.35,58a23.25,23.25,0,0,0,8.9-9.19,29.23,29.23,0,0,0,3.35-14.36q0-12.52-6.64-20.48t-17.71-7.94q-8.6,0-14,5.17t-8.45,15.67a91.33,91.33,0,0,0-2.77,13.41l-1.31,6.71a38.32,38.32,0,0,0,12.46,10.57A30.11,30.11,0,0,0,762,897.34,24.4,24.4,0,0,0,774.23,894.21Z"/><path class="cls-4" d="M762.43,910.9a41,41,0,0,1-17.35-3.9,42.82,42.82,0,0,1-12.31-8.66,26.66,26.66,0,0,1-9,8.4,32,32,0,0,1-16.19,4,9.09,9.09,0,0,1-6.4-2.35,8,8,0,0,1-2.64-6.12,7.31,7.31,0,0,1,2.69-5.85,9.69,9.69,0,0,1,6.35-2,15.45,15.45,0,0,0,8.13-2.09,11.83,11.83,0,0,0,4.93-5.58,30.89,30.89,0,0,0,2.13-7.56c.49-3.08.78-4.9.88-5.49a99.64,99.64,0,0,1,2.24-12.48c2.64-10.47,7-18.65,13-24.28s13.94-8.7,23.18-8.7a36.31,36.31,0,0,1,19.94,5.61h0a38.07,38.07,0,0,1,13.6,15.31,47.73,47.73,0,0,1,4.81,21.5c0,8.15-1.77,15.33-5.26,21.36a36.77,36.77,0,0,1-14,14A38,38,0,0,1,762.43,910.9ZM731.49,889l2.87,2.89A38.46,38.46,0,0,0,747.42,902a34,34,0,0,0,31.07-.78,31.35,31.35,0,0,0,11.92-11.94,36.68,36.68,0,0,0,4.51-18.58,42.26,42.26,0,0,0-4.22-19,32.47,32.47,0,0,0-11.62-13.11,31,31,0,0,0-17-4.74c-7.89,0-14.23,2.36-19.37,7.19s-9.07,12.18-11.46,21.62a94.21,94.21,0,0,0-2.12,11.9c-.12.7-.41,2.52-.89,5.56a36.49,36.49,0,0,1-2.53,8.92,17.37,17.37,0,0,1-7.18,8.12,21,21,0,0,1-11,2.87,4.42,4.42,0,0,0-2.82.75,1.81,1.81,0,0,0-.66,1.57,2.49,2.49,0,0,0,.84,2,3.54,3.54,0,0,0,2.64.88A26.65,26.65,0,0,0,721,901.93a21.11,21.11,0,0,0,8.59-9.19ZM762,900.11a33.05,33.05,0,0,1-15.2-3.87,41.38,41.38,0,0,1-13.36-11.32l-.8-1,1.57-8A93.2,93.2,0,0,1,737,862.3c2.17-7.42,5.26-13.11,9.19-16.89,4.12-3.95,9.48-5.95,15.92-5.95,8.22,0,14.89,3,19.85,8.95,4.82,5.78,7.28,13.27,7.28,22.25a32.09,32.09,0,0,1-3.7,15.71,26,26,0,0,1-10,10.26A27.32,27.32,0,0,1,762,900.11Zm-23.41-17.65a35.36,35.36,0,0,0,10.76,8.84c8.15,4.2,16.83,4.27,23.52.49h0a20.57,20.57,0,0,0,7.84-8.11,26.65,26.65,0,0,0,3-13c0-7.65-2-13.94-6-18.7s-9-7-15.58-7c-5,0-9,1.45-12.07,4.41s-5.82,8-7.71,14.44a89.69,89.69,0,0,0-2.68,13Z"/><path class="cls-3" d="M36.14,1093q4.13,0,6-2.27T44,1082.9v-64H64.12v64q0,14.25-6.39,21.59t-18.26,7.33a54.05,54.05,0,0,1-16.79-2.93l3.86-17.33A44,44,0,0,0,36.14,1093Z"/><path class="cls-4" d="M39.47,1114.6a56.82,56.82,0,0,1-17.66-3.07l-2.39-.78,5-22.54,2.74.65c7.33,1.75,11.38,1.9,12.81.14.46-.57,1.23-2.1,1.23-6.1v-66.75H66.9v66.75c0,10.16-2.38,18-7.08,23.42S48.18,1114.6,39.47,1114.6ZM26,1107a49.48,49.48,0,0,0,13.52,2c7.13,0,12.42-2.09,16.17-6.38s5.7-11,5.7-19.76v-61.19H46.78v61.19c0,4.44-.82,7.58-2.5,9.63s-4.53,3.28-8.14,3.28a38.87,38.87,0,0,1-7.5-.93Z"/><path class="cls-3" d="M114.9,1063.18v19.72H78.25V985.08H98.37v78.1Z"/><path class="cls-4" d="M117.67,1085.68H75.47V982.3h25.68v78.1h16.52ZM81,1080.12h31.1V1066H95.6v-78.1H81Z"/><path class="cls-3" d="M107.24,1066a10.74,10.74,0,0,1,7.66-2.8h26.65v19.72H114.9a10.74,10.74,0,0,1-7.66-2.8,9.81,9.81,0,0,1,0-14.12Z"/><path class="cls-4" d="M144.33,1085.68H114.9a13.52,13.52,0,0,1-9.56-3.55,12.59,12.59,0,0,1,0-18.18,13.48,13.48,0,0,1,9.56-3.55h29.43ZM114.9,1066a8,8,0,0,0-5.76,2,7,7,0,0,0,0,10.07,8,8,0,0,0,5.76,2h23.88V1066Z"/><path class="cls-3" d="M133.89,1066a10.78,10.78,0,0,1,7.66-2.8h26.66v19.72H141.55a10.78,10.78,0,0,1-7.66-2.8,9.81,9.81,0,0,1,0-14.12Z"/><path class="cls-4" d="M171,1085.68H141.55a13.52,13.52,0,0,1-9.55-3.55,12.58,12.58,0,0,1,0-18.19,13.51,13.51,0,0,1,9.55-3.54H171ZM141.55,1066a8.07,8.07,0,0,0-5.76,2h0a7,7,0,0,0,0,10.06,8,8,0,0,0,5.76,2h23.88V1066Z"/><path class="cls-3" d="M160.55,1066a10.76,10.76,0,0,1,7.66-2.8h26.65v19.72H168.21a10.76,10.76,0,0,1-7.66-2.8,9.81,9.81,0,0,1,0-14.12Z"/><path class="cls-4" d="M197.64,1085.68H168.21a13.58,13.58,0,0,1-9.56-3.54,12.61,12.61,0,0,1,0-18.2,13.53,13.53,0,0,1,9.56-3.54h29.43ZM168.21,1066a8.06,8.06,0,0,0-5.77,2.06,7,7,0,0,0,0,10.06,8.05,8.05,0,0,0,5.77,2h23.88V1066Z"/><path class="cls-3" d="M187.2,1066a10.76,10.76,0,0,1,7.66-2.8h26.65v19.72H194.86a10.76,10.76,0,0,1-7.66-2.8,9.81,9.81,0,0,1,0-14.12Z"/><path class="cls-4" d="M224.29,1085.68H194.86a13.6,13.6,0,0,1-9.56-3.54,12.62,12.62,0,0,1,0-18.19h0a13.55,13.55,0,0,1,9.56-3.54h29.43ZM189.1,1068h0a7,7,0,0,0,0,10.07,8,8,0,0,0,5.76,2h23.88V1066H194.86A8.07,8.07,0,0,0,189.1,1068Z"/><path class="cls-3" d="M213.85,1066a10.78,10.78,0,0,1,7.66-2.8h26.66v19.72H221.51a10.78,10.78,0,0,1-7.66-2.8,9.81,9.81,0,0,1,0-14.12Z"/><path class="cls-4" d="M251,1085.68H221.51a13.52,13.52,0,0,1-9.55-3.55,12.59,12.59,0,0,1,0-18.18,13.47,13.47,0,0,1,9.55-3.55H251ZM221.51,1066a8.07,8.07,0,0,0-5.76,2,7,7,0,0,0,0,10.07,8,8,0,0,0,5.76,2h23.88V1066Z"/><path class="cls-3" d="M339.86,1063.18v19.72q-19.59,0-28.12-10-10,10-30.92,10H248.17a9.43,9.43,0,0,1-7.33-2.93,10.33,10.33,0,0,1,0-13.86,9.39,9.39,0,0,1,7.33-2.93h32.65a46.33,46.33,0,0,0,11.33-1.07,9.4,9.4,0,0,0,5.66-3.53c1.12-1.64,1.67-4,1.67-7.13q0-5.87-5.26-10.27t-14.93-6.79a94.5,94.5,0,0,0-22.59-2.4l-4-25.06a119.66,119.66,0,0,1,28.72-16q15.25-5.94,37.12-9.4l2.93,19.72a132.47,132.47,0,0,0-23.79,5.2,111.93,111.93,0,0,0-20.86,8.8q19.86,2.81,31.12,12.06t11.66,23.25Q321.48,1063.19,339.86,1063.18Z"/><path class="cls-4" d="M342.64,1085.68h-2.78c-12.47,0-22-3-28.26-8.9-7.16,5.9-17.49,8.9-30.78,8.9H248.17a12.09,12.09,0,0,1-9.38-3.84,13.13,13.13,0,0,1,0-17.6,12.12,12.12,0,0,1,9.39-3.84h32.65a44.09,44.09,0,0,0,10.61-1,6.84,6.84,0,0,0,4.08-2.41,10.31,10.31,0,0,0,1.19-5.57c0-3.07-1.39-5.73-4.27-8.13-3.17-2.65-7.82-4.75-13.81-6.24a92.79,92.79,0,0,0-21.92-2.31h-2.37l-4.63-29,1.33-1a123,123,0,0,1,29.38-16.42c10.3-4,23-7.22,37.69-9.56l2.77-.43,3.77,25.32-2.83.34a129.87,129.87,0,0,0-23.3,5.09,123.27,123.27,0,0,0-13,4.92c9.89,2.3,18,6,24.23,11.15,8.12,6.67,12.39,15.19,12.68,25.31.62,4.1,3.14,10,17.48,10h2.78ZM248.17,1066a6.73,6.73,0,0,0-5.28,2A7.22,7.22,0,0,0,241,1073a7.3,7.3,0,0,0,1.94,5.07,6.76,6.76,0,0,0,5.28,2h32.65c13.13,0,22.86-3.09,28.95-9.18l2.13-2.13,2,2.29c4.71,5.52,12.52,8.53,23.23,9v-14.19c-14.93-.84-19.27-8.49-20.23-15-.27-8.89-3.76-15.82-10.67-21.52-7.08-5.81-17.08-9.67-29.74-11.45l-8.16-1.15,7.19-4a115,115,0,0,1,21.37-9,137,137,0,0,1,21.47-4.93l-2.11-14.15a176.12,176.12,0,0,0-33.77,8.79,117.4,117.4,0,0,0-26.72,14.7l3.36,21.07a94.59,94.59,0,0,1,20.89,2.46c6.81,1.69,12.21,4.17,16,7.36,4.15,3.48,6.26,7.65,6.26,12.4,0,3.72-.7,6.56-2.15,8.69a12.07,12.07,0,0,1-7.25,4.65,48.24,48.24,0,0,1-12,1.16Z"/><path class="cls-3" d="M397.17,1063.18v19.72q-21.19,0-28.66-11.73a32.1,32.1,0,0,1-12.06,8.67,42.38,42.38,0,0,1-16.59,3.06,10.56,10.56,0,0,1-7.59-2.93,9.56,9.56,0,0,1-3.07-7.2,9,9,0,0,1,2.93-6.93,11.08,11.08,0,0,1,7.73-2.66c4.88,0,8.89-1.42,12-4.27s4.67-7.1,4.67-12.79v-27.19h20.12v27.19q0,7.59,4.27,12.13Q385.83,1063.17,397.17,1063.18Zm-51.84-59.58a11.26,11.26,0,1,1,8,3.33A10.86,10.86,0,0,1,345.33,1003.6Zm26.51,0a11.27,11.27,0,1,1,8,3.33A10.89,10.89,0,0,1,371.84,1003.6Z"/><path class="cls-4" d="M399.94,1085.68h-2.77c-13.35,0-23.05-3.44-28.92-10.21a35.59,35.59,0,0,1-10.72,6.93,45.37,45.37,0,0,1-17.67,3.28,13.29,13.29,0,0,1-9.51-3.7,12.3,12.3,0,0,1-3.93-9.21,11.64,11.64,0,0,1,3.84-9,13.8,13.8,0,0,1,9.6-3.39c4.21,0,7.52-1.16,10.12-3.54s3.76-5.83,3.76-10.74v-30h25.68v30c0,4.37,1.15,7.71,3.51,10.22,2.67,2.68,7.48,4.06,14.24,4.06h2.77Zm-40.64-64v24.41c0,6.47-1.87,11.46-5.57,14.84a19.85,19.85,0,0,1-13.87,5,8.32,8.32,0,0,0-5.86,2,6.15,6.15,0,0,0-2,4.87,6.75,6.75,0,0,0,2.22,5.19,7.78,7.78,0,0,0,5.67,2.16,39.73,39.73,0,0,0,15.51-2.84,29.45,29.45,0,0,0,11-7.91l2.44-2.85,2,3.16c4.09,6.43,12,9.92,23.53,10.39v-14.19c-6.89-.4-12.08-2.3-15.44-5.67-3.39-3.6-5.09-8.32-5.09-14.09v-24.41Zm20.54-12a13.63,13.63,0,0,1-10-4.14h0a14.05,14.05,0,0,1-3.3-5.07,14.18,14.18,0,0,1-23.22,5.07h0a14,14,0,0,1,0-19.92,14.19,14.19,0,0,1,23.22,5.06,14.19,14.19,0,0,1,23.22-5.06,14.1,14.1,0,0,1-10,24.06Zm0-22.65a8.53,8.53,0,0,0-6,14.58h0a8.43,8.43,0,0,0,12.06,0,8.55,8.55,0,0,0-6-14.58Zm-26.52,0a8.53,8.53,0,0,0-6,14.58h0a8.44,8.44,0,0,0,12.06,0,8.55,8.55,0,0,0-6-14.58Z"/><path class="cls-3" d="M413.83,1018.93H434v64H397.17a10.59,10.59,0,0,1-7.6-2.93,9.59,9.59,0,0,1-3.07-7.2,8.93,8.93,0,0,1,2.94-6.93,11.08,11.08,0,0,1,7.73-2.66h16.66Zm-4.13,95.16a11.26,11.26,0,1,1,8,3.33A10.9,10.9,0,0,1,409.7,1114.09Z"/><path class="cls-4" d="M417.69,1120.2a14.09,14.09,0,0,1-10-24.07,14.09,14.09,0,0,1,19.92,0,14.11,14.11,0,0,1-10,24.07Zm0-22.66a8.53,8.53,0,0,0-6,14.58h0a8.44,8.44,0,0,0,12.07,0,8.55,8.55,0,0,0-6-14.58Zm19-11.86H397.17a13.33,13.33,0,0,1-9.52-3.7,12.34,12.34,0,0,1-3.93-9.21,11.65,11.65,0,0,1,3.85-9,13.8,13.8,0,0,1,9.6-3.39h13.88v-44.25h25.67ZM397.17,1066a8.36,8.36,0,0,0-5.87,2,6.17,6.17,0,0,0-2,4.87,6.78,6.78,0,0,0,2.21,5.19,7.8,7.8,0,0,0,5.68,2.16h34v-58.41H416.6V1066Z"/><path class="cls-3" d="M535.77,985.08v97.82h-87.7v-19.72h29.06L457.27,998h20.79l19.86,65.18h17.72v-78.1Z"/><path class="cls-4" d="M538.55,1085.68H445.3V1060.4h28.08l-19.85-65.17h26.59L500,1060.4h12.89V982.3h25.68Zm-87.7-5.56H533V987.85H518.42V1066H495.87L476,1000.78H461L480.88,1066h-30Z"/><path class="cls-3" d="M549.9,985.08H570v97.82H549.9Z"/><path class="cls-4" d="M572.8,1085.68H547.12V982.3H572.8Zm-20.13-5.56h14.57V987.85H552.67Z"/><path class="cls-3" d="M683.43,1010.13v62.51q0,21.18-10.26,32.18t-30,11a102.6,102.6,0,0,1-18.12-1.73l.13-19.46a111.86,111.86,0,0,0,15.06,1.2q12.12,0,17.73-5.53t5.6-17.79v-.4a26.85,26.85,0,0,1-9.33,8,26.47,26.47,0,0,1-12.26,2.8,29.24,29.24,0,0,1-16.8-4.79,30.83,30.83,0,0,1-10.73-12.67,39.27,39.27,0,0,1-3.66-16.79,38.53,38.53,0,0,1,4.8-18.86q4.8-8.73,15.12-14.19t26.19-5.47Zm-28.12,50.51a18.32,18.32,0,0,0,6-6.86,19.69,19.69,0,0,0,2.27-9.26v-14.26h-6.94q-13.59,0-19.66,4.73t-6.06,11.79a16.71,16.71,0,0,0,2,7.93,15.56,15.56,0,0,0,5.79,6.13,16.53,16.53,0,0,0,8.86,2.34A13.5,13.5,0,0,0,655.31,1060.64Z"/><path class="cls-4" d="M643.18,1118.6a105.59,105.59,0,0,1-18.61-1.78l-2.3-.41.17-25,3.13.44c15.66,2.15,25.49,1.34,30.46-3.55a16.48,16.48,0,0,0,4.17-8.77,29,29,0,0,1-4.69,3,29.47,29.47,0,0,1-13.52,3.1,32.14,32.14,0,0,1-18.36-5.27,33.71,33.71,0,0,1-11.69-13.79,42.33,42.33,0,0,1-3.92-18,41.5,41.5,0,0,1,5.14-20.2c3.45-6.27,8.92-11.42,16.27-15.31s16.51-5.78,27.48-5.78h29.3v65.28c0,14.79-3.71,26.26-11,34.08S657.08,1118.6,643.18,1118.6Zm-15.33-6.86a96.72,96.72,0,0,0,15.33,1.3c12.3,0,21.7-3.4,28-10.11s9.52-17,9.52-30.29v-59.73H656.91c-10.06,0-18.43,1.73-24.89,5.14s-11.07,7.77-14,13.08a35.8,35.8,0,0,0-4.46,17.52,36.67,36.67,0,0,0,3.4,15.62,28.14,28.14,0,0,0,9.77,11.54,26.62,26.62,0,0,0,15.24,4.31,23.16,23.16,0,0,0,19.36-9.67l5-6.72v8.38c0,9.3-2.16,16-6.42,20.16s-10.88,6.34-19.68,6.34a105.6,105.6,0,0,1-12.3-.83ZM647.58,1066a19.37,19.37,0,0,1-10.31-2.74,18.39,18.39,0,0,1-6.8-7.21,19.58,19.58,0,0,1-2.32-9.22c0-5.58,2.4-10.29,7.13-14s11.58-5.32,21.36-5.32h9.71v17a22.51,22.51,0,0,1-2.58,10.55,21.12,21.12,0,0,1-6.9,7.87h0A16.3,16.3,0,0,1,647.58,1066Zm9.06-32.91c-8.38,0-14.42,1.39-17.95,4.14-3.35,2.62-5,5.76-5,9.6a14,14,0,0,0,1.68,6.64,12.69,12.69,0,0,0,4.79,5,12.17,12.17,0,0,0,13.58-.12h0a15.67,15.67,0,0,0,5.1-5.85,17.07,17.07,0,0,0,1.95-8V1033Z"/><path class="cls-3" d="M740.87,1077.83a32.87,32.87,0,0,1-12.46-13.32,38.59,38.59,0,0,1-4.2-17.73,40.13,40.13,0,0,1,4.2-18.06A33.77,33.77,0,0,1,740.94,1015q8.32-5.26,19.92-5.27t19.86,5.2a33.25,33.25,0,0,1,12.39,13.53,40.81,40.81,0,0,1,0,35.78,32.64,32.64,0,0,1-12.39,13.53q-8.26,5.13-19.86,5.13T740.87,1077.83Zm-.4-80.62a11.26,11.26,0,1,1,8,3.33A10.91,10.91,0,0,1,740.47,997.21ZM773,1058.45a16.43,16.43,0,0,0,4.27-11.4,17.77,17.77,0,0,0-4.47-12.06q-4.47-5.13-12.2-5.13t-12.12,5a17.27,17.27,0,0,0-4.4,11.8,16.74,16.74,0,0,0,4.46,11.6q4.47,4.92,12.33,4.93T773,1058.45Zm-6-61.24a11.27,11.27,0,1,1,8,3.33A10.91,10.91,0,0,1,767,997.21Z"/><path class="cls-4" d="M760.86,1085.68c-8.3,0-15.52-1.85-21.45-5.48h0a35.77,35.77,0,0,1-13.47-14.43,41.49,41.49,0,0,1-4.5-19,43,43,0,0,1,4.48-19.29,36.77,36.77,0,0,1,13.54-14.84c6-3.78,13.17-5.7,21.4-5.7s15.4,1.9,21.34,5.64a36.08,36.08,0,0,1,13.4,14.63,43.63,43.63,0,0,1,0,38.25,35.54,35.54,0,0,1-13.43,14.66C776.25,1083.81,769.08,1085.68,760.86,1085.68Zm0-73.17c-7.16,0-13.36,1.63-18.44,4.84A31.28,31.28,0,0,0,730.9,1030a37.44,37.44,0,0,0-3.91,16.82,36,36,0,0,0,3.9,16.47,30.31,30.31,0,0,0,11.43,12.21h0c5,3.09,11.28,4.65,18.54,4.65s13.35-1.58,18.39-4.71A30.1,30.1,0,0,0,790.62,1063a38.08,38.08,0,0,0,0-33.33,30.51,30.51,0,0,0-11.38-12.4C774.2,1014.11,768,1012.51,760.86,1012.51Zm0,53.44c-6,0-10.87-2-14.38-5.84a19.45,19.45,0,0,1-5.19-13.46,20,20,0,0,1,5.1-13.63c3.47-3.94,8.25-5.94,14.2-5.94s10.78,2.05,14.29,6.09a20.53,20.53,0,0,1,5.15,13.88,19.19,19.19,0,0,1-5,13.26h0C771.67,1064.06,766.9,1066,760.86,1066Zm-.27-33.31c-4.35,0-7.64,1.32-10,4a14.46,14.46,0,0,0-3.7,10,13.89,13.89,0,0,0,3.74,9.73c2.45,2.71,5.81,4,10.27,4s7.75-1.25,10.07-3.81h0a13.62,13.62,0,0,0,3.55-9.54,15,15,0,0,0-3.79-10.24C768.25,1034,764.94,1032.64,760.59,1032.64Zm14.4-29.33a13.62,13.62,0,0,1-10-4.14,14.05,14.05,0,0,1-3.3-5.07,14.18,14.18,0,0,1-23.22,5.07h0a14,14,0,0,1,0-19.92,14.18,14.18,0,0,1,23.22,5.07A14.18,14.18,0,0,1,785,979.25a14.1,14.1,0,0,1-10,24.06Zm0-22.65a8.53,8.53,0,0,0-6,14.58h0a8.43,8.43,0,0,0,12.06,0,8.55,8.55,0,0,0-6-14.58Zm-26.52,0a8.52,8.52,0,0,0-6,14.58h0a8.42,8.42,0,0,0,12.06,0,8.55,8.55,0,0,0-6-14.58Z"/><path class="cls-3" d="M811.37,1063.18h47.31v-7.6q0-9.74-3.06-15.26a17.59,17.59,0,0,0-9.6-8q-6.53-2.47-17.46-2.47h-9.72v-20.13h10q23.31,0,36.65,11.73t13.32,34.12v27.32H811.37Z"/><path class="cls-4" d="M881.59,1085.68h-73V1060.4h47.31v-4.82c0-6-.92-10.66-2.72-13.91a14.84,14.84,0,0,0-8.15-6.75c-4-1.51-9.56-2.28-16.48-2.28h-12.5V1007h12.78c16.16,0,29.11,4.18,38.48,12.43s14.27,20.51,14.27,36.2Zm-67.44-5.56H876v-24.54c0-14-4.17-24.8-12.38-32s-20-11-34.81-11h-7.22v14.57h6.94c7.59,0,13.79.89,18.44,2.65a20.43,20.43,0,0,1,11,9.24c2.27,4.09,3.41,9.67,3.41,16.61V1066H814.15Z"/><path class="cls-3" d="M929.58,1063.18v19.72H892.93V985.08h20.13v78.1Z"/><path class="cls-4" d="M932.36,1085.68h-42.2V982.3h25.68v78.1h16.52Zm-36.65-5.56h31.1V1066H910.28v-78.1H895.71Z"/><path class="cls-3" d="M921.92,1066a10.78,10.78,0,0,1,7.66-2.8h26.66v19.72H929.58a10.78,10.78,0,0,1-7.66-2.8,9.81,9.81,0,0,1,0-14.12Z"/><path class="cls-4" d="M959,1085.68H929.58a13.52,13.52,0,0,1-9.55-3.55,12.58,12.58,0,0,1,0-18.19,13.51,13.51,0,0,1,9.55-3.54H959ZM929.58,1066a8.07,8.07,0,0,0-5.76,2h0a7,7,0,0,0,0,10.06,8,8,0,0,0,5.76,2h23.88V1066Z"/><path class="cls-3" d="M948.58,1066a10.76,10.76,0,0,1,7.66-2.8h26.65v19.72H956.24a10.76,10.76,0,0,1-7.66-2.8,9.81,9.81,0,0,1,0-14.12Z"/><path class="cls-4" d="M985.67,1085.68H956.24a13.6,13.6,0,0,1-9.56-3.54,12.61,12.61,0,0,1,0-18.2,13.55,13.55,0,0,1,9.56-3.54h29.43ZM956.24,1066a8.06,8.06,0,0,0-5.77,2.06,7,7,0,0,0,0,10.06,8.05,8.05,0,0,0,5.77,2h23.88V1066Z"/><path class="cls-3" d="M975.23,1066a10.76,10.76,0,0,1,7.66-2.8h26.65v19.72H982.89a10.76,10.76,0,0,1-7.66-2.8,9.81,9.81,0,0,1,0-14.12Z"/><path class="cls-4" d="M1012.32,1085.68H982.89a13.6,13.6,0,0,1-9.56-3.54,12.62,12.62,0,0,1,0-18.19h0a13.55,13.55,0,0,1,9.56-3.54h29.43ZM977.13,1068h0a7,7,0,0,0,0,10.07,8,8,0,0,0,5.76,2h23.88V1066H982.89A8.09,8.09,0,0,0,977.13,1068Z"/><path class="cls-3" d="M1001.88,1066a10.78,10.78,0,0,1,7.66-2.8h26.66v19.72h-26.66a10.78,10.78,0,0,1-7.66-2.8,9.81,9.81,0,0,1,0-14.12Z"/><path class="cls-4" d="M1039,1085.68h-29.44a13.52,13.52,0,0,1-9.55-3.55,12.59,12.59,0,0,1,0-18.18,13.47,13.47,0,0,1,9.55-3.55H1039ZM1009.54,1066a8.07,8.07,0,0,0-5.76,2,7,7,0,0,0,0,10.07,8,8,0,0,0,5.76,2h23.88V1066Z"/><path class="cls-3" d="M1028.54,1066a10.76,10.76,0,0,1,7.66-2.8h26.66v19.72H1036.2a10.76,10.76,0,0,1-7.66-2.8,9.81,9.81,0,0,1,0-14.12Z"/><path class="cls-4" d="M1065.64,1085.68H1036.2a13.56,13.56,0,0,1-9.56-3.55,12.59,12.59,0,0,1,0-18.19,13.51,13.51,0,0,1,9.55-3.54h29.44ZM1036.2,1066a8.07,8.07,0,0,0-5.76,2h0a7,7,0,0,0,0,10.06,8,8,0,0,0,5.76,2h23.88V1066Z"/><path class="cls-3" d="M1055.19,1066a10.8,10.8,0,0,1,7.67-2.8h26.65v19.72h-26.65a10.8,10.8,0,0,1-7.67-2.8,9.81,9.81,0,0,1,0-14.12Z"/><path class="cls-4" d="M1092.29,1085.68h-29.43a13.58,13.58,0,0,1-9.56-3.54,12.61,12.61,0,0,1,0-18.2,13.53,13.53,0,0,1,9.56-3.54h29.43ZM1062.86,1066a8.06,8.06,0,0,0-5.77,2.06,7,7,0,0,0,0,10.06,8.05,8.05,0,0,0,5.77,2h23.87V1066Z"/><path class="cls-3" d="M1106.17,1018.93h20.13v64h-36.79a10.6,10.6,0,0,1-7.6-2.93,9.58,9.58,0,0,1-3.06-7.2,9,9,0,0,1,2.93-6.93,11.08,11.08,0,0,1,7.73-2.66h16.66Zm-11.46,95a11.27,11.27,0,1,1,8,3.33A10.91,10.91,0,0,1,1094.71,1114Zm26.52,0a11.26,11.26,0,1,1,8,3.33A10.91,10.91,0,0,1,1121.23,1114Z"/><path class="cls-4" d="M1129.23,1120.06a13.63,13.63,0,0,1-10-4.14,13.84,13.84,0,0,1-3.3-5.07,14.18,14.18,0,0,1-23.23,5.07,14.05,14.05,0,0,1,0-19.92,14.19,14.19,0,0,1,23.23,5.06,13.68,13.68,0,0,1,3.3-5.06,14.09,14.09,0,0,1,19.92,0,14.1,14.1,0,0,1-10,24.06Zm0-22.65a8.53,8.53,0,0,0-6,14.58,8.45,8.45,0,0,0,12.07,0,8.55,8.55,0,0,0-6-14.58Zm-26.53,0a8.53,8.53,0,0,0-6,14.58,8.45,8.45,0,0,0,12.07,0,8.55,8.55,0,0,0-6-14.58Zm26.37-11.73h-39.56a13.28,13.28,0,0,1-9.51-3.7,12.3,12.3,0,0,1-3.93-9.21,11.64,11.64,0,0,1,3.84-9,13.8,13.8,0,0,1,9.6-3.39h13.88v-44.25h25.68ZM1089.51,1066a8.28,8.28,0,0,0-5.86,2,6.12,6.12,0,0,0-2,4.87,6.78,6.78,0,0,0,2.21,5.2,7.83,7.83,0,0,0,5.67,2.15h34v-58.41H1109V1066Z"/><path class="cls-3" d="M1202.52,1063.18v19.72h-13.86q0,14.25-6.39,21.59t-18.26,7.33a54.16,54.16,0,0,1-16.8-2.93l3.87-17.33a44.12,44.12,0,0,0,9.6,1.47q4.13,0,6-2.27c1.23-1.51,1.86-4.13,1.86-7.86v-64h20.12v44.25Z"/><path class="cls-4" d="M1164,1114.6a56.92,56.92,0,0,1-17.66-3.07l-2.4-.78,5-22.54,2.74.65c7.33,1.75,11.36,1.9,12.8.13.46-.55,1.24-2.1,1.24-6.09v-66.75h25.67v44.25h13.86v25.28h-13.92c-.4,8.82-2.76,15.75-7,20.64C1179.57,1111.81,1172.72,1114.6,1164,1114.6Zm-13.53-7.61a49.61,49.61,0,0,0,13.53,2c7.13,0,12.42-2.09,16.16-6.38s5.72-11,5.72-19.76v-2.78h13.86V1066h-13.86v-44.24h-14.57v61.19c0,4.43-.82,7.57-2.49,9.62s-4.54,3.29-8.15,3.29a38.6,38.6,0,0,1-7.49-.93Z"/><path class="cls-3" d="M1219.18,985.08h20.12v97.82h-36.78a10.78,10.78,0,0,1-7.66-2.8,9.81,9.81,0,0,1,0-14.12,10.78,10.78,0,0,1,7.66-2.8h16.66Z"/><path class="cls-4" d="M1242.08,1085.68h-39.56a13.52,13.52,0,0,1-9.55-3.55,12.58,12.58,0,0,1,0-18.19,13.51,13.51,0,0,1,9.55-3.54h13.89V982.3h25.67ZM1202.52,1066a8.07,8.07,0,0,0-5.76,2,7,7,0,0,0,0,10.07,8,8,0,0,0,5.76,2h34V987.85H1222V1066Z"/><path class="cls-3" d="M1253.43,985.08h20.13v97.82h-20.13Z"/><path class="cls-4" d="M1276.33,1085.68h-25.68V982.3h25.68Zm-20.12-5.56h14.57V987.85h-14.57Z"/><rect class="cls-4" x="31.57" y="920.31" width="424.79" height="5.55"/><rect class="cls-4" x="891.05" y="920.31" width="401.24" height="5.55"/><rect class="cls-4" x="14.7" y="1149.48" width="1273.89" height="5.55"/><text class="cls-5"><tspan x="0" y="1267.73" xml:space="preserve">ســــــلــــــبارــــــــــط   ةــــعــــماـــــــج</tspan></text><path class="cls-6" d="M207.38,625.11A89.18,89.18,0,0,1,132.52,584L34.35,429.42a88.44,88.44,0,0,1,2-98.13L266.77,0,322,38.42,91.64,369.71a21.32,21.32,0,0,0-.49,23.64l98.17,154.56a21.25,21.25,0,0,0,18.42,9.9l307-4L446.35,621,209,625.09Z"/><path class="cls-6" d="M1095.18,625.11l-1.62,0L852.47,621,789,553.76l305.82,4a21.38,21.38,0,0,0,18.43-9.9l98.16-154.56a21.3,21.3,0,0,0-.49-23.64L980.54,38.42,1035.79,0l230.37,331.29a88.46,88.46,0,0,1,2,98.14L1170,584A89.18,89.18,0,0,1,1095.18,625.11Z"/></svg>