<svg id="Layer_1" data-name="Layer 1" xmlns="http://www.w3.org/2000/svg" viewBox="0 0 1293.67 1301.99"><defs><style>.cls-1,.cls-2{fill:#fcfefe;}.cls-2{font-size:88px;font-family:FFShamelFamily-SansOneBook, FF Shamel Family;}</style></defs><path class="cls-1" d="M569.88,478.32H226.69l-21.75-40.45H528.82L300.93,210l28.6-28.6L586.46,438.31a23.44,23.44,0,0,1-16.58,40Z"/><path class="cls-1" d="M1077.7,478.32H733.4a22.62,22.62,0,0,1-16-38.63L975.73,181.38l28.6,28.6L776.44,437.87h327.14ZM746,468.28l0,0A0,0,0,0,0,746,468.28Z"/><path class="cls-1" d="M652.8,386.72a39.55,39.55,0,0,1-28-11.6L375,125.32l27-27,249.79,249.8a1.52,1.52,0,0,0,2.14,0L901.73,100.27l27,27L680.85,375.12A39.58,39.58,0,0,1,652.8,386.72Z"/><rect class="cls-1" x="560.77" y="534.43" width="183.71" height="183.71" rx="2.16" transform="translate(-251.7 644.91) rotate(-45)"/><path class="cls-1" d="M571.79,909.69H555.58v5.7q0,13.14-5.26,19.64t-16.07,6.5a55.22,55.22,0,0,1-13.43-1.9l2.33-10.08a46.45,46.45,0,0,0,9.21,1.17c4.09,0,7.1-1.19,9.06-3.58s2.91-6.3,2.91-11.75V842.51h11.25v56.38h16.21Zm-26.58-84.26a6.63,6.63,0,0,1-2-4.82,6.36,6.36,0,0,1,2-4.75,6.73,6.73,0,0,1,4.82-2,6.71,6.71,0,0,1,6.71,6.72,6.75,6.75,0,0,1-2,4.82,6.38,6.38,0,0,1-4.75,2A6.6,6.6,0,0,1,545.21,825.43Z"/><path class="cls-1" d="M619.33,845.29a41.86,41.86,0,0,1,19,17.6q6.36,11.46,6.35,29.57v17.23H571.79a5.48,5.48,0,0,1-4.17-1.61,5.47,5.47,0,0,1,0-7.59,5.51,5.51,0,0,1,4.17-1.6h61.63v-6.43q0-16.07-6.21-25.78T609,852.15q-12.06-4.81-31-6.28l-1.46-14.75a162.82,162.82,0,0,1,67.76-29.21l2.2,10.81a183.38,183.38,0,0,0-33.88,10.08q-15.64,6.42-25.71,13.87Q606.69,839.15,619.33,845.29Z"/><path class="cls-1" d="M707.31,909.69h-16.2v5.7q0,13.14-5.26,19.64t-16.07,6.5a55.3,55.3,0,0,1-13.44-1.9l2.34-10.08a46.28,46.28,0,0,0,9.21,1.17q6.14,0,9.05-3.58t2.92-11.75V842.51h11.25v56.38h16.2Z"/><path class="cls-1" d="M780.41,837.76A35.31,35.31,0,0,1,793.05,852a44.9,44.9,0,0,1,4.52,20.3q0,11.54-4.89,20a34.1,34.1,0,0,1-13,13,35.18,35.18,0,0,1-17.45,4.53A38.22,38.22,0,0,1,746,906.19a41.15,41.15,0,0,1-14-10.81l-.15.29A24.11,24.11,0,0,1,722.14,906a29.3,29.3,0,0,1-14.83,3.65,6.4,6.4,0,0,1-4.52-1.61A5.27,5.27,0,0,1,701,904a4.6,4.6,0,0,1,1.68-3.73,7,7,0,0,1,4.59-1.38,18.25,18.25,0,0,0,9.57-2.49,14.53,14.53,0,0,0,6.06-6.86,33.8,33.8,0,0,0,2.34-8.25q.74-4.6.88-5.48a96.44,96.44,0,0,1,2.19-12.27q3.79-15,12.26-23t21.33-8A33.57,33.57,0,0,1,780.41,837.76Zm-6.35,58.13a23.17,23.17,0,0,0,8.91-9.2,29.24,29.24,0,0,0,3.36-14.39q0-12.56-6.65-20.51t-17.74-8q-8.62,0-14,5.19t-8.46,15.7a92.76,92.76,0,0,0-2.78,13.44l-1.31,6.71a38.31,38.31,0,0,0,12.48,10.59A30.15,30.15,0,0,0,761.79,899,24.52,24.52,0,0,0,774.06,895.89Z"/><path class="cls-1" d="M34.57,1095.09q4.14,0,6-2.27c1.24-1.51,1.87-4.14,1.87-7.88v-64.09H62.6v64.09q0,14.28-6.4,21.63t-18.29,7.35A54,54,0,0,1,21.08,1111L25,1093.62A44.27,44.27,0,0,0,34.57,1095.09Z"/><path class="cls-1" d="M113.48,1065.18v19.76H76.76v-98H96.92v78.25Z"/><path class="cls-1" d="M105.8,1068a10.82,10.82,0,0,1,7.68-2.81h26.7v19.76h-26.7a10.81,10.81,0,0,1-7.68-2.8,9.84,9.84,0,0,1,0-14.15Z"/><path class="cls-1" d="M132.51,1068a10.79,10.79,0,0,1,7.67-2.81h26.71v19.76H140.18a10.79,10.79,0,0,1-7.67-2.8,9.82,9.82,0,0,1,0-14.15Z"/><path class="cls-1" d="M159.21,1068a10.82,10.82,0,0,1,7.68-2.81h26.7v19.76h-26.7a10.81,10.81,0,0,1-7.68-2.8,9.84,9.84,0,0,1,0-14.15Z"/><path class="cls-1" d="M185.91,1068a10.83,10.83,0,0,1,7.68-2.81H220.3v19.76H193.59a10.83,10.83,0,0,1-7.68-2.8,9.84,9.84,0,0,1,0-14.15Z"/><path class="cls-1" d="M212.62,1068a10.82,10.82,0,0,1,7.68-2.81H247v19.76H220.3a10.81,10.81,0,0,1-7.68-2.8,9.84,9.84,0,0,1,0-14.15Z"/><path class="cls-1" d="M338.87,1065.18v19.76q-19.64,0-28.18-10-10,10-31,10H247a9.47,9.47,0,0,1-7.35-2.93,10.4,10.4,0,0,1,0-13.89,9.44,9.44,0,0,1,7.35-2.94h32.71a46,46,0,0,0,11.35-1.07,9.46,9.46,0,0,0,5.68-3.54q1.67-2.46,1.67-7.14,0-5.87-5.27-10.28t-15-6.81a94.79,94.79,0,0,0-22.63-2.4l-4-25.11a120.46,120.46,0,0,1,28.77-16.09q15.29-5.94,37.19-9.41l2.94,19.76a132.35,132.35,0,0,0-23.84,5.21,112.25,112.25,0,0,0-20.89,8.81q19.89,2.8,31.18,12.09t11.68,23.3Q320.45,1065.18,338.87,1065.18Z"/><path class="cls-1" d="M396.28,1065.18v19.76q-21.22,0-28.71-11.75a32,32,0,0,1-12.08,8.68,42.39,42.39,0,0,1-16.62,3.07,10.59,10.59,0,0,1-7.61-2.93,9.6,9.6,0,0,1-3.08-7.21,9,9,0,0,1,2.94-7,11.08,11.08,0,0,1,7.75-2.67q7.33,0,12-4.27t4.68-12.82v-27.24h20.15v27.24q0,7.61,4.28,12.15Q384.92,1065.18,396.28,1065.18Zm-51.94-59.69a11.29,11.29,0,1,1,8,3.34A10.93,10.93,0,0,1,344.34,1005.49Zm26.57,0a11.27,11.27,0,1,1,8,3.34A10.89,10.89,0,0,1,370.91,1005.49Z"/><path class="cls-1" d="M413,1020.85h20.16v64.09H396.28a10.61,10.61,0,0,1-7.61-2.93,9.59,9.59,0,0,1-3.07-7.21,9,9,0,0,1,2.94-7,11.05,11.05,0,0,1,7.74-2.67H413Zm-4.13,95.34a11.27,11.27,0,1,1,8,3.34A10.93,10.93,0,0,1,408.84,1116.19Z"/><path class="cls-1" d="M535.14,986.93v98H447.28v-19.76h29.11L456.5,999.89h20.83l19.89,65.29H515V986.93Z"/><path class="cls-1" d="M549.3,986.93h20.16v98H549.3Z"/><path class="cls-1" d="M683.08,1012v62.62q0,21.22-10.28,32.25t-30,11a103,103,0,0,1-18.16-1.73l.13-19.5a112.27,112.27,0,0,0,15.09,1.2q12.15,0,17.76-5.53t5.61-17.83v-.4a26,26,0,0,1-21.63,10.81,29.27,29.27,0,0,1-16.83-4.8A30.94,30.94,0,0,1,614,1067.45a39.43,39.43,0,0,1-3.66-16.82,38.61,38.61,0,0,1,4.81-18.9q4.8-8.74,15.15-14.22t26.24-5.47Zm-28.17,50.6a18.46,18.46,0,0,0,6-6.87,19.77,19.77,0,0,0,2.27-9.28V1032.2h-6.94q-13.62,0-19.7,4.74t-6.07,11.82a16.88,16.88,0,0,0,2,7.94,15.64,15.64,0,0,0,5.81,6.14,16.6,16.6,0,0,0,8.88,2.34A13.53,13.53,0,0,0,654.91,1062.64Z"/><path class="cls-1" d="M740.63,1079.87a33.06,33.06,0,0,1-12.48-13.35,38.72,38.72,0,0,1-4.21-17.76,40.28,40.28,0,0,1,4.21-18.1,34,34,0,0,1,12.55-13.75q8.34-5.26,20-5.27t19.9,5.21A33.29,33.29,0,0,1,793,1030.4a40.87,40.87,0,0,1,0,35.85,32.68,32.68,0,0,1-12.41,13.55q-8.29,5.15-19.9,5.14T740.63,1079.87Zm-.4-80.78a11.31,11.31,0,1,1,8,3.33A11,11,0,0,1,740.23,999.09Zm32.59,61.35a16.5,16.5,0,0,0,4.27-11.42,17.85,17.85,0,0,0-4.48-12.08q-4.47-5.13-12.22-5.14c-5.16,0-9.2,1.67-12.15,5a17.28,17.28,0,0,0-4.4,11.82,16.73,16.73,0,0,0,4.47,11.61q4.47,4.93,12.35,4.94T772.82,1060.44Zm-6-61.35a11.3,11.3,0,1,1,8,3.33A10.92,10.92,0,0,1,766.81,999.09Z"/><path class="cls-1" d="M811.27,1065.18h47.4v-7.61q0-9.75-3.07-15.29a17.67,17.67,0,0,0-9.62-8q-6.54-2.46-17.49-2.47h-9.74v-20.16h10q23.37,0,36.72,11.75t13.35,34.18v27.37H811.27Z"/><path class="cls-1" d="M929.7,1065.18v19.76H893v-98h20.17v78.25Z"/><path class="cls-1" d="M922,1068a10.79,10.79,0,0,1,7.67-2.81h26.71v19.76H929.7a10.79,10.79,0,0,1-7.67-2.8,9.82,9.82,0,0,1,0-14.15Z"/><path class="cls-1" d="M948.73,1068a10.82,10.82,0,0,1,7.68-2.81h26.7v19.76h-26.7a10.81,10.81,0,0,1-7.68-2.8,9.84,9.84,0,0,1,0-14.15Z"/><path class="cls-1" d="M975.43,1068a10.83,10.83,0,0,1,7.68-2.81h26.7v19.76h-26.7a10.83,10.83,0,0,1-7.68-2.8,9.84,9.84,0,0,1,0-14.15Z"/><path class="cls-1" d="M1002.14,1068a10.81,10.81,0,0,1,7.67-2.81h26.71v19.76h-26.71a10.8,10.8,0,0,1-7.67-2.8,9.82,9.82,0,0,1,0-14.15Z"/><path class="cls-1" d="M1028.85,1068a10.79,10.79,0,0,1,7.67-2.81h26.71v19.76h-26.71a10.79,10.79,0,0,1-7.67-2.8,9.82,9.82,0,0,1,0-14.15Z"/><path class="cls-1" d="M1055.55,1068a10.82,10.82,0,0,1,7.68-2.81h26.7v19.76h-26.7a10.81,10.81,0,0,1-7.68-2.8,9.82,9.82,0,0,1,0-14.15Z"/><path class="cls-1" d="M1106.62,1020.85h20.17v64.09h-36.86a10.61,10.61,0,0,1-7.61-2.93,9.59,9.59,0,0,1-3.07-7.21,9,9,0,0,1,2.94-7,11.05,11.05,0,0,1,7.74-2.67h16.69Zm-11.48,95.2a11.29,11.29,0,1,1,8,3.34A10.93,10.93,0,0,1,1095.14,1116.05Zm26.57,0a11.27,11.27,0,1,1,8,3.34A10.89,10.89,0,0,1,1121.71,1116.05Z"/><path class="cls-1" d="M1203.16,1065.18v19.76h-13.89q0,14.28-6.41,21.63t-18.29,7.35a54.08,54.08,0,0,1-16.83-2.94l3.88-17.36a44.19,44.19,0,0,0,9.61,1.47q4.14,0,6-2.27c1.24-1.51,1.87-4.14,1.87-7.88v-64.09h20.16v44.33Z"/><path class="cls-1" d="M1219.85,986.93H1240v98h-36.85a10.79,10.79,0,0,1-7.68-2.8,9.82,9.82,0,0,1,0-14.15,10.8,10.8,0,0,1,7.68-2.81h16.69Z"/><path class="cls-1" d="M1254.16,986.93h20.16v98h-20.16Z"/><rect class="cls-1" x="29.99" y="922.05" width="425.59" height="5.57"/><rect class="cls-1" x="891.09" y="922.05" width="401.99" height="5.57"/><rect class="cls-1" x="13.09" y="1151.66" width="1276.3" height="5.57"/><text class="cls-2"><tspan x="0" y="1260.8" xml:space="preserve">ســــــلــــــبارــــــــــط   ةــــعــــماـــــــج</tspan></text><path class="cls-1" d="M206.13,626.29a89.36,89.36,0,0,1-75-41.2L32.78,430.23a88.59,88.59,0,0,1,2-98.31L265.64,0,321,38.49,90.18,370.41a21.33,21.33,0,0,0-.49,23.68L188,549a21.32,21.32,0,0,0,18.46,9.92l308.21-4.06-69.16,67.4-237.79,4.06Z"/><path class="cls-1" d="M1095.61,626.29l-1.63,0-241.53-4.06-62.78-67.4,305.58,4.06A21.42,21.42,0,0,0,1113.7,549l98.36-154.86a21.35,21.35,0,0,0-.5-23.68L980.76,38.49,1036.11,0l230.8,331.92a88.61,88.61,0,0,1,2.06,98.32l-98.36,154.85A89.35,89.35,0,0,1,1095.61,626.29Z"/></svg>