<svg id="Layer_1" data-name="Layer 1" xmlns="http://www.w3.org/2000/svg" viewBox="0 0 1293.67 1299.13"><defs><style>.cls-1{fill:#87c0da;}.cls-2{fill:#1c889b;}.cls-3,.cls-5{fill:#525657;}.cls-4{fill:#24556f;}.cls-5{font-size:88px;font-family:FFShamelFamily-SansOneBook, FF Shamel Family;}</style></defs><path class="cls-1" d="M570.3,478.32H227.1l-21.74-40.45H529.24L301.34,210l28.6-28.6L586.87,438.31a23.43,23.43,0,0,1-16.57,40Z"/><path class="cls-1" d="M1078.11,478.32H733.82a22.62,22.62,0,0,1-16-38.63L976.15,181.38l28.6,28.6L776.85,437.87H1104Zm-331.66-10,0,0Z"/><path class="cls-1" d="M653.21,386.72a39.57,39.57,0,0,1-28.05-11.6L375.37,125.32l27-27,249.8,249.8a1.51,1.51,0,0,0,2.13,0L902.15,100.27l27,27L681.26,375.12A39.55,39.55,0,0,1,653.21,386.72Z"/><rect class="cls-2" x="561.19" y="534.43" width="183.71" height="183.71" rx="2.16" transform="translate(-251.58 645.21) rotate(-45)"/><path class="cls-3" d="M572.2,909.69H556v5.7q0,13.14-5.27,19.64t-16.06,6.5a55.3,55.3,0,0,1-13.44-1.9l2.34-10.08a46.28,46.28,0,0,0,9.21,1.17q6.12,0,9.05-3.58t2.92-11.75V842.51H556v56.38h16.2Zm-26.57-84.26a6.6,6.6,0,0,1-2-4.82,6.34,6.34,0,0,1,2-4.75,6.69,6.69,0,0,1,4.81-2,6.73,6.73,0,0,1,6.72,6.72,6.72,6.72,0,0,1-2,4.82,6.36,6.36,0,0,1-4.75,2A6.56,6.56,0,0,1,545.63,825.43Z"/><path class="cls-3" d="M619.74,845.29a41.94,41.94,0,0,1,19,17.6q6.36,11.46,6.35,29.57v17.23H572.2a5.46,5.46,0,0,1-4.16-1.61,5.47,5.47,0,0,1,0-7.59,5.49,5.49,0,0,1,4.16-1.6h61.64v-6.43q0-16.07-6.21-25.78t-18.26-14.53q-12-4.81-31-6.28l-1.46-14.75a158.22,158.22,0,0,1,31.47-18.18,159.85,159.85,0,0,1,36.29-11l2.2,10.81A183.49,183.49,0,0,0,613,822.8q-15.63,6.42-25.7,13.87Q607.11,839.15,619.74,845.29Z"/><path class="cls-3" d="M707.73,909.69H691.52v5.7q0,13.14-5.26,19.64t-16.06,6.5a55.3,55.3,0,0,1-13.44-1.9l2.34-10.08a46.28,46.28,0,0,0,9.2,1.17c4.09,0,7.1-1.19,9.06-3.58s2.91-6.3,2.91-11.75V842.51h11.25v56.38h16.21Z"/><path class="cls-3" d="M780.83,837.76A35.29,35.29,0,0,1,793.46,852,44.9,44.9,0,0,1,798,872.3q0,11.54-4.89,20a34,34,0,0,1-13,13,35.25,35.25,0,0,1-17.46,4.53,38.21,38.21,0,0,1-16.2-3.65,41.06,41.06,0,0,1-14-10.81l-.15.29A24.17,24.17,0,0,1,722.56,906a29.3,29.3,0,0,1-14.83,3.65,6.37,6.37,0,0,1-4.52-1.61,5.24,5.24,0,0,1-1.76-4.08,4.6,4.6,0,0,1,1.68-3.73,7,7,0,0,1,4.6-1.38,18.3,18.3,0,0,0,9.57-2.49,14.58,14.58,0,0,0,6.06-6.86,33.8,33.8,0,0,0,2.34-8.25c.48-3.07.78-4.9.87-5.48a96.44,96.44,0,0,1,2.19-12.27q3.81-15,12.27-23t21.32-8A33.63,33.63,0,0,1,780.83,837.76Zm-6.36,58.13a23.1,23.1,0,0,0,8.91-9.2,29.24,29.24,0,0,0,3.36-14.39q0-12.56-6.64-20.51t-17.75-8q-8.61,0-14,5.19t-8.47,15.7a91.5,91.5,0,0,0-2.77,13.44l-1.32,6.71a38.34,38.34,0,0,0,12.49,10.59,30.12,30.12,0,0,0,14,3.58A24.48,24.48,0,0,0,774.47,895.89Z"/><path class="cls-3" d="M35,1095.09c2.75,0,4.76-.76,6-2.27s1.87-4.14,1.87-7.88v-64.09H63v64.09q0,14.28-6.4,21.63t-18.3,7.35A54,54,0,0,1,21.5,1111l3.87-17.36A44.18,44.18,0,0,0,35,1095.09Z"/><path class="cls-3" d="M113.89,1065.18v19.76H77.17v-98H97.34v78.25Z"/><path class="cls-3" d="M106.22,1068a10.79,10.79,0,0,1,7.67-2.81H140.6v19.76H113.89a10.79,10.79,0,0,1-7.67-2.8,9.82,9.82,0,0,1,0-14.15Z"/><path class="cls-3" d="M132.93,1068a10.79,10.79,0,0,1,7.67-2.81h26.71v19.76H140.6a10.79,10.79,0,0,1-7.67-2.8,9.8,9.8,0,0,1,0-14.15Z"/><path class="cls-3" d="M159.63,1068a10.8,10.8,0,0,1,7.68-2.81H194v19.76h-26.7a10.79,10.79,0,0,1-7.68-2.8,9.82,9.82,0,0,1,0-14.15Z"/><path class="cls-3" d="M186.33,1068a10.8,10.8,0,0,1,7.68-2.81h26.7v19.76H194a10.79,10.79,0,0,1-7.68-2.8,9.84,9.84,0,0,1,0-14.15Z"/><path class="cls-3" d="M213,1068a10.79,10.79,0,0,1,7.67-2.81h26.71v19.76H220.71a10.79,10.79,0,0,1-7.67-2.8,9.82,9.82,0,0,1,0-14.15Z"/><path class="cls-3" d="M339.28,1065.18v19.76q-19.63,0-28.17-10-10,10-31,10H247.42a9.46,9.46,0,0,1-7.35-2.93,10.37,10.37,0,0,1,0-13.89,9.43,9.43,0,0,1,7.35-2.94h32.71a46.08,46.08,0,0,0,11.35-1.07,9.4,9.4,0,0,0,5.67-3.54c1.12-1.64,1.67-4,1.67-7.14q0-5.87-5.27-10.28t-15-6.81a94.73,94.73,0,0,0-22.63-2.4l-4-25.11a120.46,120.46,0,0,1,28.77-16.09q15.28-5.94,37.19-9.41l2.94,19.76A132.35,132.35,0,0,0,297,1008.3a112,112,0,0,0-20.89,8.81q19.89,2.8,31.17,12.09T319,1052.5Q320.85,1065.18,339.28,1065.18Z"/><path class="cls-3" d="M396.7,1065.18v19.76q-21.24,0-28.71-11.75a32.13,32.13,0,0,1-12.09,8.68,42.36,42.36,0,0,1-16.62,3.07,10.63,10.63,0,0,1-7.61-2.93,9.59,9.59,0,0,1-3.07-7.21,9,9,0,0,1,2.94-7,11.05,11.05,0,0,1,7.74-2.67,17.13,17.13,0,0,0,12-4.27q4.67-4.28,4.67-12.82v-27.24h20.16v27.24q0,7.61,4.28,12.15Q385.35,1065.18,396.7,1065.18Zm-51.94-59.69a11.27,11.27,0,1,1,8,3.34A10.89,10.89,0,0,1,344.76,1005.49Zm26.57,0a11.27,11.27,0,1,1,8,3.34A10.89,10.89,0,0,1,371.33,1005.49Z"/><path class="cls-3" d="M413.39,1020.85h20.16v64.09H396.7a10.59,10.59,0,0,1-7.61-2.93,9.6,9.6,0,0,1-3.08-7.21,9,9,0,0,1,2.94-7,11.08,11.08,0,0,1,7.75-2.67h16.69Zm-4.14,95.34a11.27,11.27,0,1,1,8,3.34A10.92,10.92,0,0,1,409.25,1116.19Z"/><path class="cls-3" d="M535.56,986.93v98H447.7v-19.76h29.11l-19.89-65.29h20.82l19.9,65.29H515.4V986.93Z"/><path class="cls-3" d="M549.71,986.93h20.17v98H549.71Z"/><path class="cls-3" d="M683.5,1012v62.62q0,21.22-10.28,32.25t-30,11a103,103,0,0,1-18.16-1.73l.13-19.5a112.27,112.27,0,0,0,15.09,1.2q12.15,0,17.76-5.53t5.61-17.83v-.4a26.88,26.88,0,0,1-9.35,8,26.52,26.52,0,0,1-12.28,2.8,29.27,29.27,0,0,1-16.83-4.8,30.79,30.79,0,0,1-10.75-12.69,39.29,39.29,0,0,1-3.67-16.82,38.61,38.61,0,0,1,4.81-18.9q4.8-8.74,15.15-14.22t26.24-5.47Zm-28.17,50.6a18.46,18.46,0,0,0,6-6.87,19.77,19.77,0,0,0,2.27-9.28V1032.2h-7q-13.6,0-19.69,4.74t-6.07,11.82a16.77,16.77,0,0,0,2,7.94,15.57,15.57,0,0,0,5.81,6.14,16.57,16.57,0,0,0,8.88,2.34A13.56,13.56,0,0,0,655.33,1062.64Z"/><path class="cls-3" d="M741.05,1079.87a33,33,0,0,1-12.48-13.35,38.59,38.59,0,0,1-4.21-17.76,40.14,40.14,0,0,1,4.21-18.1,33.83,33.83,0,0,1,12.55-13.75q8.34-5.26,20-5.27t19.89,5.21a33.31,33.31,0,0,1,12.42,13.55,40.87,40.87,0,0,1,0,35.85A32.7,32.7,0,0,1,781,1079.8q-8.28,5.15-19.89,5.14Q749.32,1084.94,741.05,1079.87Zm-.4-80.78a11.3,11.3,0,1,1,8,3.33A10.92,10.92,0,0,1,740.65,999.09Zm32.58,61.35A16.46,16.46,0,0,0,777.5,1049a17.84,17.84,0,0,0-4.47-12.08q-4.47-5.13-12.22-5.14c-5.17,0-9.21,1.67-12.15,5a17.29,17.29,0,0,0-4.41,11.82,16.7,16.7,0,0,0,4.48,11.61q4.47,4.93,12.35,4.94T773.23,1060.44Zm-6-61.35a11.3,11.3,0,1,1,8,3.33A10.92,10.92,0,0,1,767.22,999.09Z"/><path class="cls-3" d="M811.68,1065.18h47.4v-7.61q0-9.75-3.06-15.29a17.74,17.74,0,0,0-9.62-8q-6.54-2.46-17.49-2.47h-9.75v-20.16h10q23.37,0,36.72,11.75t13.35,34.18v27.37H811.68Z"/><path class="cls-3" d="M930.12,1065.18v19.76H893.4v-98h20.16v78.25Z"/><path class="cls-3" d="M922.44,1068a10.8,10.8,0,0,1,7.68-2.81h26.71v19.76H930.12a10.79,10.79,0,0,1-7.68-2.8,9.82,9.82,0,0,1,0-14.15Z"/><path class="cls-3" d="M949.15,1068a10.8,10.8,0,0,1,7.68-2.81h26.7v19.76h-26.7a10.79,10.79,0,0,1-7.68-2.8,9.82,9.82,0,0,1,0-14.15Z"/><path class="cls-3" d="M975.85,1068a10.8,10.8,0,0,1,7.68-2.81h26.7v19.76h-26.7a10.79,10.79,0,0,1-7.68-2.8,9.84,9.84,0,0,1,0-14.15Z"/><path class="cls-3" d="M1002.56,1068a10.79,10.79,0,0,1,7.67-2.81h26.71v19.76h-26.71a10.79,10.79,0,0,1-7.67-2.8,9.82,9.82,0,0,1,0-14.15Z"/><path class="cls-3" d="M1029.26,1068a10.8,10.8,0,0,1,7.68-2.81h26.71v19.76h-26.71a10.79,10.79,0,0,1-7.68-2.8,9.82,9.82,0,0,1,0-14.15Z"/><path class="cls-3" d="M1056,1068a10.8,10.8,0,0,1,7.68-2.81h26.7v19.76h-26.7a10.79,10.79,0,0,1-7.68-2.8,9.82,9.82,0,0,1,0-14.15Z"/><path class="cls-3" d="M1107,1020.85h20.16v64.09h-36.85a10.65,10.65,0,0,1-7.62-2.93,9.62,9.62,0,0,1-3.06-7.21,9,9,0,0,1,2.93-7,11.09,11.09,0,0,1,7.75-2.67H1107Zm-11.49,95.2a11.29,11.29,0,1,1,8,3.34A10.92,10.92,0,0,1,1095.55,1116.05Zm26.58,0a11.27,11.27,0,1,1,8,3.34A10.89,10.89,0,0,1,1122.13,1116.05Z"/><path class="cls-3" d="M1203.57,1065.18v19.76h-13.88q0,14.28-6.41,21.63t-18.29,7.35a54.08,54.08,0,0,1-16.83-2.94l3.87-17.36a44.27,44.27,0,0,0,9.62,1.47q4.14,0,6-2.27c1.24-1.51,1.87-4.14,1.87-7.88v-64.09h20.16v44.33Z"/><path class="cls-3" d="M1220.27,986.93h20.15v98h-36.85a10.79,10.79,0,0,1-7.67-2.8,9.82,9.82,0,0,1,0-14.15,10.79,10.79,0,0,1,7.67-2.81h16.7Z"/><path class="cls-3" d="M1254.58,986.93h20.16v98h-20.16Z"/><rect class="cls-4" x="30.41" y="922.05" width="425.59" height="5.57"/><rect class="cls-4" x="891.51" y="922.05" width="401.99" height="5.57"/><rect class="cls-4" x="13.5" y="1151.66" width="1276.3" height="5.57"/><text class="cls-5"><tspan x="0" y="1257.95" xml:space="preserve">ســــــلــــــبارــــــــــط   ةــــعــــماـــــــج</tspan></text><path class="cls-4" d="M206.55,626.29a89.37,89.37,0,0,1-75-41.2L33.19,430.23a88.59,88.59,0,0,1,2.06-98.31L266.05,0,321.4,38.49,90.6,370.41a21.33,21.33,0,0,0-.5,23.68L188.45,549a21.35,21.35,0,0,0,18.46,9.92l308.22-4.06L446,622.21l-237.79,4.06Z"/><path class="cls-4" d="M1096,626.29l-1.63,0-241.54-4.06-62.78-67.4,305.58,4.06a21.44,21.44,0,0,0,18.46-9.92l98.35-154.86a21.35,21.35,0,0,0-.49-23.68L981.17,38.49,1036.52,0l230.81,331.92a88.61,88.61,0,0,1,2.05,98.32L1171,585.09A89.36,89.36,0,0,1,1096,626.29Z"/></svg>