<svg id="Layer_1" data-name="Layer 1" xmlns="http://www.w3.org/2000/svg" viewBox="0 0 1293.67 1302"><defs><style>.cls-1,.cls-5{fill:#fbfdfe;}.cls-1{stroke:#fafdfe;stroke-miterlimit:10;}.cls-2,.cls-4{fill:#1c889b;}.cls-3{fill:#fafdfe;}.cls-4{font-size:88px;font-family:FFShamelFamily-SansOneBook, FF Shamel Family;}</style></defs><path class="cls-1" d="M565.48,478.33H223.05l-21.74-40.45H524.42L296.52,210l28.6-28.6L582.05,438.31a23.44,23.44,0,0,1-16.57,40Z"/><path class="cls-1" d="M1074.39,478.33H729a22.62,22.62,0,0,1-16-38.64L971.33,181.38l28.6,28.6L772,437.88h328.23ZM741.63,468.28l0,0Z"/><path class="cls-1" d="M648.39,386.72a39.57,39.57,0,0,1-28-11.6L370.55,125.32l27-27,249.8,249.8a1.52,1.52,0,0,0,2.13,0L897.33,100.27l27,27L676.44,375.12A39.55,39.55,0,0,1,648.39,386.72Z"/><rect class="cls-2" x="556.37" y="534.43" width="183.72" height="183.72" rx="2.16" transform="translate(-252.99 641.8) rotate(-45)"/><path class="cls-2" d="M567.38,909.7H551.17v5.7q0,13.14-5.26,19.64t-16.06,6.5a55.3,55.3,0,0,1-13.44-1.9l2.34-10.08a46.28,46.28,0,0,0,9.21,1.17q6.12,0,9-3.58c2-2.38,2.91-6.3,2.91-11.75V842.52h11.25v56.37h16.21ZM540.8,825.43a6.6,6.6,0,0,1-2-4.82,6.4,6.4,0,0,1,2-4.75,6.72,6.72,0,0,1,4.82-2,6.71,6.71,0,0,1,6.72,6.71,6.73,6.73,0,0,1-2,4.82,6.35,6.35,0,0,1-4.75,2.05A6.57,6.57,0,0,1,540.8,825.43Z"/><path class="cls-2" d="M614.92,845.29a42,42,0,0,1,19,17.6q6.36,11.46,6.35,29.57V909.7H567.38a5.46,5.46,0,0,1-4.16-1.61,5.47,5.47,0,0,1,0-7.59,5.5,5.5,0,0,1,4.16-1.61H629v-6.43q0-16.05-6.2-25.77t-18.26-14.53q-12-4.81-31-6.28l-1.46-14.75A157.94,157.94,0,0,1,603.53,813a159.7,159.7,0,0,1,36.29-11L642,812.73a183.61,183.61,0,0,0-33.88,10.07q-15.63,6.44-25.7,13.88Q602.28,839.16,614.92,845.29Z"/><path class="cls-2" d="M702.91,909.7H686.7v5.7q0,13.14-5.26,19.64t-16.07,6.5a55.29,55.29,0,0,1-13.43-1.9l2.34-10.08a46.28,46.28,0,0,0,9.2,1.17c4.09,0,7.1-1.19,9.06-3.58s2.91-6.3,2.91-11.75V842.52H686.7v56.37h16.21Z"/><path class="cls-2" d="M776,837.77A35.23,35.23,0,0,1,788.64,852a44.9,44.9,0,0,1,4.52,20.3q0,11.54-4.89,20a34,34,0,0,1-13,13,35.25,35.25,0,0,1-17.46,4.53,38,38,0,0,1-16.2-3.66,41.16,41.16,0,0,1-14-10.8l-.14.29a24.17,24.17,0,0,1-9.71,10.37,29.3,29.3,0,0,1-14.83,3.65,6.37,6.37,0,0,1-4.52-1.61,5.25,5.25,0,0,1-1.76-4.09,4.58,4.58,0,0,1,1.68-3.72,7,7,0,0,1,4.6-1.39,18.24,18.24,0,0,0,9.56-2.48,14.64,14.64,0,0,0,6.07-6.86,33.8,33.8,0,0,0,2.34-8.25q.72-4.6.87-5.48a96.44,96.44,0,0,1,2.19-12.27q3.79-15,12.27-23t21.32-8A33.63,33.63,0,0,1,776,837.77Zm-6.36,58.13a23.17,23.17,0,0,0,8.91-9.2,29.24,29.24,0,0,0,3.36-14.39q0-12.55-6.64-20.52t-17.75-8q-8.61,0-14,5.19T735,864.72a91.35,91.35,0,0,0-2.77,13.43L731,884.87a38.46,38.46,0,0,0,12.49,10.59A30.12,30.12,0,0,0,757.39,899,24.51,24.51,0,0,0,769.65,895.9Z"/><path class="cls-2" d="M30.16,1095.1q4.14,0,6-2.27c1.24-1.51,1.87-4.14,1.87-7.88v-64.09H58.2V1085q0,14.28-6.41,21.63t-18.29,7.35A54,54,0,0,1,16.67,1111l3.87-17.36A44.27,44.27,0,0,0,30.16,1095.1Z"/><path class="cls-2" d="M109.07,1065.19V1085H72.35v-98H92.51v78.25Z"/><path class="cls-2" d="M101.39,1068a10.81,10.81,0,0,1,7.68-2.8h26.71V1085H109.07a10.81,10.81,0,0,1-7.68-2.8,9.85,9.85,0,0,1,0-14.16Z"/><path class="cls-2" d="M128.1,1068a10.79,10.79,0,0,1,7.68-2.8h26.7V1085h-26.7a10.79,10.79,0,0,1-7.68-2.8,9.83,9.83,0,0,1,0-14.16Z"/><path class="cls-2" d="M154.8,1068a10.81,10.81,0,0,1,7.68-2.8h26.71V1085H162.48a10.81,10.81,0,0,1-7.68-2.8,9.85,9.85,0,0,1,0-14.16Z"/><path class="cls-2" d="M181.51,1068a10.79,10.79,0,0,1,7.68-2.8h26.7V1085h-26.7a10.79,10.79,0,0,1-7.68-2.8,9.85,9.85,0,0,1,0-14.16Z"/><path class="cls-2" d="M208.21,1068a10.81,10.81,0,0,1,7.68-2.8H242.6V1085H215.89a10.81,10.81,0,0,1-7.68-2.8,9.85,9.85,0,0,1,0-14.16Z"/><path class="cls-2" d="M334.46,1065.19V1085q-19.63,0-28.18-10-10,10-31,10H242.6a9.46,9.46,0,0,1-7.35-2.93,10.38,10.38,0,0,1,0-13.9,9.46,9.46,0,0,1,7.35-2.93h32.7a46.11,46.11,0,0,0,11.36-1.07,9.4,9.4,0,0,0,5.67-3.54c1.12-1.64,1.67-4,1.67-7.14q0-5.87-5.27-10.28t-15-6.81a94.75,94.75,0,0,0-22.63-2.41l-4-25.1a120.18,120.18,0,0,1,28.78-16.09q15.29-5.94,37.18-9.41L316,1003.1a132.25,132.25,0,0,0-23.83,5.21,112.07,112.07,0,0,0-20.9,8.81q19.89,2.8,31.18,12.08t11.68,23.3Q316,1065.19,334.46,1065.19Z"/><path class="cls-2" d="M391.87,1065.19V1085q-21.22,0-28.7-11.75a32.13,32.13,0,0,1-12.09,8.68,42.36,42.36,0,0,1-16.62,3.07,10.61,10.61,0,0,1-7.61-2.93,9.62,9.62,0,0,1-3.08-7.22,9,9,0,0,1,2.94-6.94,11.09,11.09,0,0,1,7.75-2.67,17.13,17.13,0,0,0,12-4.27q4.66-4.28,4.67-12.82v-27.24h20.16v27.24q0,7.61,4.27,12.15Q380.52,1065.19,391.87,1065.19Zm-51.93-59.69a11.27,11.27,0,1,1,8,3.34A10.9,10.9,0,0,1,339.94,1005.5Zm26.56,0a11.29,11.29,0,1,1,8,3.34A10.88,10.88,0,0,1,366.5,1005.5Z"/><path class="cls-2" d="M408.56,1020.86h20.16V1085H391.87a10.63,10.63,0,0,1-7.61-2.93,9.65,9.65,0,0,1-3.07-7.22,9,9,0,0,1,2.94-6.94,11.07,11.07,0,0,1,7.74-2.67h16.69Zm-4.13,95.34a11.3,11.3,0,1,1,8,3.33A10.92,10.92,0,0,1,404.43,1116.2Z"/><path class="cls-2" d="M530.74,986.94v98H442.88v-19.76H472l-19.9-65.3h20.83l19.9,65.3h17.75V986.94Z"/><path class="cls-2" d="M544.89,986.94h20.16v98H544.89Z"/><path class="cls-2" d="M678.68,1012.05v62.62q0,21.22-10.28,32.24t-30,11a103,103,0,0,1-18.16-1.73l.13-19.5a112.14,112.14,0,0,0,15.09,1.2q12.14,0,17.76-5.54t5.61-17.82v-.4a26.88,26.88,0,0,1-9.35,8,26.55,26.55,0,0,1-12.28,2.8,29.27,29.27,0,0,1-16.83-4.8,30.79,30.79,0,0,1-10.75-12.69,39.31,39.31,0,0,1-3.67-16.83,38.54,38.54,0,0,1,4.81-18.89q4.8-8.74,15.15-14.22t26.24-5.47Zm-28.18,50.6a18.48,18.48,0,0,0,6-6.87,19.8,19.8,0,0,0,2.27-9.28v-14.29h-6.95q-13.62,0-19.7,4.74t-6.07,11.82a16.78,16.78,0,0,0,2,7.94,15.61,15.61,0,0,0,5.8,6.14,16.62,16.62,0,0,0,8.88,2.34A13.51,13.51,0,0,0,650.5,1062.65Z"/><path class="cls-2" d="M736.23,1079.88a33.05,33.05,0,0,1-12.48-13.35,38.62,38.62,0,0,1-4.21-17.76,40.14,40.14,0,0,1,4.21-18.1,33.83,33.83,0,0,1,12.55-13.75q8.34-5.28,20-5.28t19.89,5.22a33.25,33.25,0,0,1,12.42,13.55,40.87,40.87,0,0,1,0,35.85,32.76,32.76,0,0,1-12.42,13.55q-8.28,5.14-19.89,5.14T736.23,1079.88Zm-.4-80.79a11.27,11.27,0,1,1,8,3.34A10.89,10.89,0,0,1,735.83,999.09Zm32.58,61.36a16.46,16.46,0,0,0,4.27-11.42A17.8,17.8,0,0,0,768.2,1037c-3-3.42-7.05-5.14-12.21-5.14s-9.21,1.67-12.15,5a17.33,17.33,0,0,0-4.41,11.82,16.74,16.74,0,0,0,4.47,11.62c3,3.29,7.1,4.94,12.36,4.94S765.56,1063.61,768.41,1060.45Zm-6-61.36a11.27,11.27,0,1,1,8,3.34A10.89,10.89,0,0,1,762.4,999.09Z"/><path class="cls-2" d="M806.86,1065.19h47.4v-7.61q0-9.75-3.06-15.29a17.74,17.74,0,0,0-9.62-8q-6.54-2.47-17.49-2.47h-9.75v-20.17h10q23.37,0,36.72,11.75t13.35,34.19V1085H806.86Z"/><path class="cls-2" d="M925.3,1065.19V1085H888.58v-98h20.16v78.25Z"/><path class="cls-2" d="M917.62,1068a10.79,10.79,0,0,1,7.68-2.8H952V1085H925.3a10.79,10.79,0,0,1-7.68-2.8,9.83,9.83,0,0,1,0-14.16Z"/><path class="cls-2" d="M944.33,1068a10.79,10.79,0,0,1,7.68-2.8h26.7V1085H952a10.79,10.79,0,0,1-7.68-2.8,9.83,9.83,0,0,1,0-14.16Z"/><path class="cls-2" d="M971,1068a10.79,10.79,0,0,1,7.68-2.8h26.7V1085h-26.7a10.79,10.79,0,0,1-7.68-2.8,9.85,9.85,0,0,1,0-14.16Z"/><path class="cls-2" d="M997.74,1068a10.79,10.79,0,0,1,7.67-2.8h26.71V1085h-26.71a10.79,10.79,0,0,1-7.67-2.8,9.83,9.83,0,0,1,0-14.16Z"/><path class="cls-2" d="M1024.44,1068a10.79,10.79,0,0,1,7.68-2.8h26.71V1085h-26.71a10.79,10.79,0,0,1-7.68-2.8,9.83,9.83,0,0,1,0-14.16Z"/><path class="cls-2" d="M1051.15,1068a10.79,10.79,0,0,1,7.68-2.8h26.7V1085h-26.7a10.79,10.79,0,0,1-7.68-2.8,9.83,9.83,0,0,1,0-14.16Z"/><path class="cls-2" d="M1102.22,1020.86h20.16V1085h-36.85a10.65,10.65,0,0,1-7.62-2.93,9.64,9.64,0,0,1-3.06-7.22,9,9,0,0,1,2.93-6.94,11.09,11.09,0,0,1,7.75-2.67h16.69Zm-11.49,95.2a11.29,11.29,0,1,1,8,3.34A10.94,10.94,0,0,1,1090.73,1116.06Zm26.58,0a11.27,11.27,0,1,1,8,3.34A10.91,10.91,0,0,1,1117.31,1116.06Z"/><path class="cls-2" d="M1198.76,1065.19V1085h-13.89q0,14.28-6.41,21.63t-18.29,7.35a54.08,54.08,0,0,1-16.83-2.94l3.88-17.36a44.11,44.11,0,0,0,9.61,1.47q4.14,0,6-2.27c1.24-1.51,1.87-4.14,1.87-7.88v-64.09h20.16v44.33Z"/><path class="cls-2" d="M1215.45,986.94h20.16v98h-36.85a10.79,10.79,0,0,1-7.68-2.8,9.83,9.83,0,0,1,0-14.16,10.79,10.79,0,0,1,7.68-2.8h16.69Z"/><path class="cls-2" d="M1249.76,986.94h20.16v98h-20.16Z"/><rect class="cls-3" x="25.58" y="922.05" width="425.59" height="5.57"/><rect class="cls-3" x="886.69" y="922.05" width="402" height="5.57"/><rect class="cls-3" x="8.68" y="1151.66" width="1276.3" height="5.57"/><text class="cls-4"><tspan x="0" y="1260.81" xml:space="preserve">ســــــلــــــبارــــــــــط   ةــــعــــماـــــــج</tspan></text><path class="cls-5" d="M201.73,626.29a89.37,89.37,0,0,1-75-41.2L28.37,430.24a88.63,88.63,0,0,1,2.05-98.32L261.23,0l55.35,38.49L85.77,370.41a21.35,21.35,0,0,0-.49,23.68L183.63,549a21.35,21.35,0,0,0,18.46,9.92L510,554.81l-68.85,67.4-237.8,4.06Z"/><path class="cls-5" d="M1091.21,626.29l-1.63,0L848,622.21l-63.32-67.4,306.12,4.06A21.42,21.42,0,0,0,1109.3,549l98.35-154.86a21.33,21.33,0,0,0-.49-23.68L976.35,38.49,1031.7,0l230.81,331.92a88.59,88.59,0,0,1,2,98.32l-98.35,154.85A89.35,89.35,0,0,1,1091.21,626.29Z"/></svg>